<?xml version="1.0" encoding="UTF-8" standalone="no"?>
<!DOCTYPE svg PUBLIC "-//W3C//DTD SVG 1.1//EN"
 "http://www.w3.org/Graphics/SVG/1.1/DTD/svg11.dtd">
<!-- Generated by graphviz version 2.43.0 (0)
 -->
<!-- Title: snakemake_dag Pages: 1 -->
<svg width="323pt" height="332pt"
 viewBox="0.00 0.00 322.68 332.00" xmlns="http://www.w3.org/2000/svg" xmlns:xlink="http://www.w3.org/1999/xlink">
<g id="graph0" class="graph" transform="scale(1 1) rotate(0) translate(4 328)">
<title>snakemake_dag</title>
<polygon fill="white" stroke="transparent" points="-4,4 -4,-328 318.68,-328 318.68,4 -4,4"/>
<!-- 0 -->
<g id="node1" class="node">
<title>0</title>
<path fill="none" stroke="#56d8c1" stroke-width="2" d="M140.18,-36C140.18,-36 31.18,-36 31.18,-36 25.18,-36 19.18,-30 19.18,-24 19.18,-24 19.18,-12 19.18,-12 19.18,-6 25.18,0 31.18,0 31.18,0 140.18,0 140.18,0 146.18,0 152.18,-6 152.18,-12 152.18,-12 152.18,-24 152.18,-24 152.18,-30 146.18,-36 140.18,-36"/>
<text text-anchor="middle" x="85.68" y="-15.5" font-family="sans" font-size="10.00">paper_fig_from_number</text>
</g>
<!-- 1 -->
<g id="node2" class="node">
<title>1</title>
<path fill="none" stroke="#68d856" stroke-width="2" d="M149.68,-108C149.68,-108 21.68,-108 21.68,-108 15.68,-108 9.68,-102 9.68,-96 9.68,-96 9.68,-84 9.68,-84 9.68,-78 15.68,-72 21.68,-72 21.68,-72 149.68,-72 149.68,-72 155.68,-72 161.68,-78 161.68,-84 161.68,-84 161.68,-96 161.68,-96 161.68,-102 155.68,-108 149.68,-108"/>
<text text-anchor="middle" x="85.68" y="-87.5" font-family="sans" font-size="10.00">plot_variation_alpha_a0_Cb</text>
</g>
<!-- 1&#45;&gt;0 -->
<g id="edge1" class="edge">
<title>1&#45;&gt;0</title>
<path fill="none" stroke="grey" stroke-width="2" d="M85.68,-71.7C85.68,-63.98 85.68,-54.71 85.68,-46.11"/>
<polygon fill="grey" stroke="grey" stroke-width="2" points="89.18,-46.1 85.68,-36.1 82.18,-46.1 89.18,-46.1"/>
</g>
<!-- 2 -->
<g id="node3" class="node">
<title>2</title>
<path fill="none" stroke="#d89556" stroke-width="2" d="M143.68,-252C143.68,-252 27.68,-252 27.68,-252 21.68,-252 15.68,-246 15.68,-240 15.68,-240 15.68,-228 15.68,-228 15.68,-222 21.68,-216 27.68,-216 27.68,-216 143.68,-216 143.68,-216 149.68,-216 155.68,-222 155.68,-228 155.68,-228 155.68,-240 155.68,-240 155.68,-246 149.68,-252 143.68,-252"/>
<text text-anchor="middle" x="85.68" y="-231.5" font-family="sans" font-size="10.00">process_with_xnemogcm</text>
</g>
<!-- 2&#45;&gt;1 -->
<g id="edge2" class="edge">
<title>2&#45;&gt;1</title>
<path fill="none" stroke="grey" stroke-width="2" d="M44.49,-216C29.47,-207.54 14.11,-195.71 5.68,-180 -1.89,-165.9 -1.89,-158.1 5.68,-144 12.46,-131.36 23.74,-121.23 35.71,-113.35"/>
<polygon fill="grey" stroke="grey" stroke-width="2" points="37.77,-116.19 44.49,-108 34.13,-110.21 37.77,-116.19"/>
</g>
<!-- 4 -->
<g id="node5" class="node">
<title>4</title>
<path fill="none" stroke="#80d856" stroke-width="2" d="M144.18,-180C144.18,-180 27.18,-180 27.18,-180 21.18,-180 15.18,-174 15.18,-168 15.18,-168 15.18,-156 15.18,-156 15.18,-150 21.18,-144 27.18,-144 27.18,-144 144.18,-144 144.18,-144 150.18,-144 156.18,-150 156.18,-156 156.18,-156 156.18,-168 156.18,-168 156.18,-174 150.18,-180 144.18,-180"/>
<text text-anchor="middle" x="85.68" y="-159.5" font-family="sans" font-size="10.00">diag_alpha_function_of_T</text>
</g>
<!-- 2&#45;&gt;4 -->
<g id="edge6" class="edge">
<title>2&#45;&gt;4</title>
<path fill="none" stroke="grey" stroke-width="2" d="M85.68,-215.7C85.68,-207.98 85.68,-198.71 85.68,-190.11"/>
<polygon fill="grey" stroke="grey" stroke-width="2" points="89.18,-190.1 85.68,-180.1 82.18,-190.1 89.18,-190.1"/>
</g>
<!-- 5 -->
<g id="node6" class="node">
<title>5</title>
<path fill="none" stroke="#56c9d8" stroke-width="2" d="M302.68,-180C302.68,-180 186.68,-180 186.68,-180 180.68,-180 174.68,-174 174.68,-168 174.68,-168 174.68,-156 174.68,-156 174.68,-150 180.68,-144 186.68,-144 186.68,-144 302.68,-144 302.68,-144 308.68,-144 314.68,-150 314.68,-156 314.68,-156 314.68,-168 314.68,-168 314.68,-174 308.68,-180 302.68,-180"/>
<text text-anchor="middle" x="244.68" y="-159.5" font-family="sans" font-size="10.00">process_exp_short_name</text>
</g>
<!-- 2&#45;&gt;5 -->
<g id="edge7" class="edge">
<title>2&#45;&gt;5</title>
<path fill="none" stroke="grey" stroke-width="2" d="M124.57,-215.88C146.31,-206.31 173.58,-194.3 196.64,-184.15"/>
<polygon fill="grey" stroke="grey" stroke-width="2" points="198.17,-187.3 205.91,-180.07 195.35,-180.89 198.17,-187.3"/>
</g>
<!-- 3 -->
<g id="node4" class="node">
<title>3</title>
<path fill="none" stroke="#56b1d8" stroke-width="2" d="M120.18,-324C120.18,-324 51.18,-324 51.18,-324 45.18,-324 39.18,-318 39.18,-312 39.18,-312 39.18,-300 39.18,-300 39.18,-294 45.18,-288 51.18,-288 51.18,-288 120.18,-288 120.18,-288 126.18,-288 132.18,-294 132.18,-300 132.18,-300 132.18,-312 132.18,-312 132.18,-318 126.18,-324 120.18,-324"/>
<text text-anchor="middle" x="85.68" y="-303.5" font-family="sans" font-size="10.00">process_delta_t</text>
</g>
<!-- 3&#45;&gt;2 -->
<g id="edge5" class="edge">
<title>3&#45;&gt;2</title>
<path fill="none" stroke="grey" stroke-width="2" d="M85.68,-287.7C85.68,-279.98 85.68,-270.71 85.68,-262.11"/>
<polygon fill="grey" stroke="grey" stroke-width="2" points="89.18,-262.1 85.68,-252.1 82.18,-262.1 89.18,-262.1"/>
</g>
<!-- 4&#45;&gt;1 -->
<g id="edge4" class="edge">
<title>4&#45;&gt;1</title>
<path fill="none" stroke="grey" stroke-width="2" d="M85.68,-143.7C85.68,-135.98 85.68,-126.71 85.68,-118.11"/>
<polygon fill="grey" stroke="grey" stroke-width="2" points="89.18,-118.1 85.68,-108.1 82.18,-118.1 89.18,-118.1"/>
</g>
<!-- 5&#45;&gt;1 -->
<g id="edge3" class="edge">
<title>5&#45;&gt;1</title>
<path fill="none" stroke="grey" stroke-width="2" d="M205.78,-143.88C184.05,-134.31 156.77,-122.3 133.71,-112.15"/>
<polygon fill="grey" stroke="grey" stroke-width="2" points="135.01,-108.89 124.45,-108.07 132.19,-115.3 135.01,-108.89"/>
</g>
</g>
</svg>
