<?xml version="1.0" encoding="UTF-8" standalone="no"?>
<!DOCTYPE svg PUBLIC "-//W3C//DTD SVG 1.1//EN"
 "http://www.w3.org/Graphics/SVG/1.1/DTD/svg11.dtd">
<!-- Generated by graphviz version 2.43.0 (0)
 -->
<!-- Title: snakemake_dag Pages: 1 -->
<svg width="173pt" height="332pt"
 viewBox="0.00 0.00 173.00 332.00" xmlns="http://www.w3.org/2000/svg" xmlns:xlink="http://www.w3.org/1999/xlink">
<g id="graph0" class="graph" transform="scale(1 1) rotate(0) translate(4 328)">
<title>snakemake_dag</title>
<polygon fill="white" stroke="transparent" points="-4,4 -4,-328 169,-328 169,4 -4,4"/>
<!-- 0 -->
<g id="node1" class="node">
<title>0</title>
<path fill="none" stroke="#c6d856" stroke-width="2" d="M124.5,-36C124.5,-36 15.5,-36 15.5,-36 9.5,-36 3.5,-30 3.5,-24 3.5,-24 3.5,-12 3.5,-12 3.5,-6 9.5,0 15.5,0 15.5,0 124.5,0 124.5,0 130.5,0 136.5,-6 136.5,-12 136.5,-12 136.5,-24 136.5,-24 136.5,-30 130.5,-36 124.5,-36"/>
<text text-anchor="middle" x="70" y="-15.5" font-family="sans" font-size="10.00">paper_fig_from_number</text>
</g>
<!-- 1 -->
<g id="node2" class="node">
<title>1</title>
<path fill="none" stroke="#568ad8" stroke-width="2" d="M109.5,-108C109.5,-108 30.5,-108 30.5,-108 24.5,-108 18.5,-102 18.5,-96 18.5,-96 18.5,-84 18.5,-84 18.5,-78 24.5,-72 30.5,-72 30.5,-72 109.5,-72 109.5,-72 115.5,-72 121.5,-78 121.5,-84 121.5,-84 121.5,-96 121.5,-96 121.5,-102 115.5,-108 109.5,-108"/>
<text text-anchor="middle" x="70" y="-87.5" font-family="sans" font-size="10.00">plot_config_paper</text>
</g>
<!-- 1&#45;&gt;0 -->
<g id="edge1" class="edge">
<title>1&#45;&gt;0</title>
<path fill="none" stroke="grey" stroke-width="2" d="M70,-71.7C70,-63.98 70,-54.71 70,-46.11"/>
<polygon fill="grey" stroke="grey" stroke-width="2" points="73.5,-46.1 70,-36.1 66.5,-46.1 73.5,-46.1"/>
</g>
<!-- 2 -->
<g id="node3" class="node">
<title>2</title>
<path fill="none" stroke="#56d8c9" stroke-width="2" d="M128,-252C128,-252 12,-252 12,-252 6,-252 0,-246 0,-240 0,-240 0,-228 0,-228 0,-222 6,-216 12,-216 12,-216 128,-216 128,-216 134,-216 140,-222 140,-228 140,-228 140,-240 140,-240 140,-246 134,-252 128,-252"/>
<text text-anchor="middle" x="70" y="-231.5" font-family="sans" font-size="10.00">process_with_xnemogcm</text>
</g>
<!-- 2&#45;&gt;1 -->
<g id="edge3" class="edge">
<title>2&#45;&gt;1</title>
<path fill="none" stroke="grey" stroke-width="2" d="M60.87,-215.88C55.99,-205.76 50.49,-192.51 48,-180 44.87,-164.31 44.87,-159.69 48,-144 49.79,-135.01 53.14,-125.64 56.69,-117.32"/>
<polygon fill="grey" stroke="grey" stroke-width="2" points="59.92,-118.67 60.87,-108.12 53.54,-115.77 59.92,-118.67"/>
</g>
<!-- 4 -->
<g id="node5" class="node">
<title>4</title>
<path fill="none" stroke="#d85e56" stroke-width="2" d="M153,-180C153,-180 69,-180 69,-180 63,-180 57,-174 57,-168 57,-168 57,-156 57,-156 57,-150 63,-144 69,-144 69,-144 153,-144 153,-144 159,-144 165,-150 165,-156 165,-156 165,-168 165,-168 165,-174 159,-180 153,-180"/>
<text text-anchor="middle" x="111" y="-159.5" font-family="sans" font-size="10.00">diag_forcing_fields</text>
</g>
<!-- 2&#45;&gt;4 -->
<g id="edge5" class="edge">
<title>2&#45;&gt;4</title>
<path fill="none" stroke="grey" stroke-width="2" d="M80.13,-215.7C84.85,-207.64 90.56,-197.89 95.78,-188.98"/>
<polygon fill="grey" stroke="grey" stroke-width="2" points="98.95,-190.5 100.98,-180.1 92.91,-186.96 98.95,-190.5"/>
</g>
<!-- 3 -->
<g id="node4" class="node">
<title>3</title>
<path fill="none" stroke="#56d0d8" stroke-width="2" d="M104.5,-324C104.5,-324 35.5,-324 35.5,-324 29.5,-324 23.5,-318 23.5,-312 23.5,-312 23.5,-300 23.5,-300 23.5,-294 29.5,-288 35.5,-288 35.5,-288 104.5,-288 104.5,-288 110.5,-288 116.5,-294 116.5,-300 116.5,-300 116.5,-312 116.5,-312 116.5,-318 110.5,-324 104.5,-324"/>
<text text-anchor="middle" x="70" y="-303.5" font-family="sans" font-size="10.00">process_delta_t</text>
</g>
<!-- 3&#45;&gt;2 -->
<g id="edge4" class="edge">
<title>3&#45;&gt;2</title>
<path fill="none" stroke="grey" stroke-width="2" d="M70,-287.7C70,-279.98 70,-270.71 70,-262.11"/>
<polygon fill="grey" stroke="grey" stroke-width="2" points="73.5,-262.1 70,-252.1 66.5,-262.1 73.5,-262.1"/>
</g>
<!-- 4&#45;&gt;1 -->
<g id="edge2" class="edge">
<title>4&#45;&gt;1</title>
<path fill="none" stroke="grey" stroke-width="2" d="M100.87,-143.7C96.15,-135.64 90.44,-125.89 85.22,-116.98"/>
<polygon fill="grey" stroke="grey" stroke-width="2" points="88.09,-114.96 80.02,-108.1 82.05,-118.5 88.09,-114.96"/>
</g>
</g>
</svg>
