<?xml version="1.0" encoding="UTF-8" standalone="no"?>
<!DOCTYPE svg PUBLIC "-//W3C//DTD SVG 1.1//EN"
 "http://www.w3.org/Graphics/SVG/1.1/DTD/svg11.dtd">
<!-- Generated by graphviz version 2.43.0 (0)
 -->
<!-- Title: snakemake_dag Pages: 1 -->
<svg width="600pt" height="404pt"
 viewBox="0.00 0.00 600.00 404.00" xmlns="http://www.w3.org/2000/svg" xmlns:xlink="http://www.w3.org/1999/xlink">
<g id="graph0" class="graph" transform="scale(1 1) rotate(0) translate(4 400)">
<title>snakemake_dag</title>
<polygon fill="white" stroke="transparent" points="-4,4 -4,-400 596,-400 596,4 -4,4"/>
<!-- 0 -->
<g id="node1" class="node">
<title>0</title>
<path fill="none" stroke="#56b1d8" stroke-width="2" d="M391.5,-36C391.5,-36 282.5,-36 282.5,-36 276.5,-36 270.5,-30 270.5,-24 270.5,-24 270.5,-12 270.5,-12 270.5,-6 276.5,0 282.5,0 282.5,0 391.5,0 391.5,0 397.5,0 403.5,-6 403.5,-12 403.5,-12 403.5,-24 403.5,-24 403.5,-30 397.5,-36 391.5,-36"/>
<text text-anchor="middle" x="337" y="-15.5" font-family="sans" font-size="10.00">paper_fig_from_number</text>
</g>
<!-- 1 -->
<g id="node2" class="node">
<title>1</title>
<path fill="none" stroke="#d89556" stroke-width="2" d="M366.5,-108C366.5,-108 307.5,-108 307.5,-108 301.5,-108 295.5,-102 295.5,-96 295.5,-96 295.5,-84 295.5,-84 295.5,-78 301.5,-72 307.5,-72 307.5,-72 366.5,-72 366.5,-72 372.5,-72 378.5,-78 378.5,-84 378.5,-84 378.5,-96 378.5,-96 378.5,-102 372.5,-108 366.5,-108"/>
<text text-anchor="middle" x="337" y="-87.5" font-family="sans" font-size="10.00">plot_fb_comp</text>
</g>
<!-- 1&#45;&gt;0 -->
<g id="edge1" class="edge">
<title>1&#45;&gt;0</title>
<path fill="none" stroke="grey" stroke-width="2" d="M337,-71.7C337,-63.98 337,-54.71 337,-46.11"/>
<polygon fill="grey" stroke="grey" stroke-width="2" points="340.5,-46.1 337,-36.1 333.5,-46.1 340.5,-46.1"/>
</g>
<!-- 2 -->
<g id="node3" class="node">
<title>2</title>
<path fill="none" stroke="#5692d8" stroke-width="2" d="M299,-324C299,-324 183,-324 183,-324 177,-324 171,-318 171,-312 171,-312 171,-300 171,-300 171,-294 177,-288 183,-288 183,-288 299,-288 299,-288 305,-288 311,-294 311,-300 311,-300 311,-312 311,-312 311,-318 305,-324 299,-324"/>
<text text-anchor="middle" x="241" y="-303.5" font-family="sans" font-size="10.00">process_with_xnemogcm</text>
</g>
<!-- 2&#45;&gt;1 -->
<g id="edge4" class="edge">
<title>2&#45;&gt;1</title>
<path fill="none" stroke="grey" stroke-width="2" d="M311.09,-295.15C360.86,-286.55 421.49,-272.26 437,-252 472.37,-205.8 411.17,-146.61 369.93,-114.42"/>
<polygon fill="grey" stroke="grey" stroke-width="2" points="371.8,-111.45 361.73,-108.16 367.56,-117.01 371.8,-111.45"/>
</g>
<!-- 4 -->
<g id="node5" class="node">
<title>4</title>
<path fill="none" stroke="#56d0d8" stroke-width="2" d="M580,-252C580,-252 496,-252 496,-252 490,-252 484,-246 484,-240 484,-240 484,-228 484,-228 484,-222 490,-216 496,-216 496,-216 580,-216 580,-216 586,-216 592,-222 592,-228 592,-228 592,-240 592,-240 592,-246 586,-252 580,-252"/>
<text text-anchor="middle" x="538" y="-231.5" font-family="sans" font-size="10.00">diag_forcing_fields</text>
</g>
<!-- 2&#45;&gt;4 -->
<g id="edge9" class="edge">
<title>2&#45;&gt;4</title>
<path fill="none" stroke="grey" stroke-width="2" d="M311.23,-289.08C356.58,-278.72 416.84,-264.8 470,-252 471.26,-251.7 472.54,-251.39 473.83,-251.08"/>
<polygon fill="grey" stroke="grey" stroke-width="2" points="474.95,-254.41 483.83,-248.63 473.29,-247.61 474.95,-254.41"/>
</g>
<!-- 5 -->
<g id="node6" class="node">
<title>5</title>
<path fill="none" stroke="#d85656" stroke-width="2" d="M44,-180C44,-180 12,-180 12,-180 6,-180 0,-174 0,-168 0,-168 0,-156 0,-156 0,-150 6,-144 12,-144 12,-144 44,-144 44,-144 50,-144 56,-150 56,-156 56,-156 56,-168 56,-168 56,-174 50,-180 44,-180"/>
<text text-anchor="middle" x="28" y="-159.5" font-family="sans" font-size="10.00">diag_sci</text>
</g>
<!-- 2&#45;&gt;5 -->
<g id="edge10" class="edge">
<title>2&#45;&gt;5</title>
<path fill="none" stroke="grey" stroke-width="2" d="M170.68,-299.89C133.28,-293.73 88.95,-280.44 59,-252 42,-235.86 34.32,-209.92 30.85,-190.19"/>
<polygon fill="grey" stroke="grey" stroke-width="2" points="34.31,-189.62 29.36,-180.25 27.38,-190.66 34.31,-189.62"/>
</g>
<!-- 6 -->
<g id="node7" class="node">
<title>6</title>
<path fill="none" stroke="#b6d856" stroke-width="2" d="M181.5,-252C181.5,-252 80.5,-252 80.5,-252 74.5,-252 68.5,-246 68.5,-240 68.5,-240 68.5,-228 68.5,-228 68.5,-222 74.5,-216 80.5,-216 80.5,-216 181.5,-216 181.5,-216 187.5,-216 193.5,-222 193.5,-228 193.5,-228 193.5,-240 193.5,-240 193.5,-246 187.5,-252 181.5,-252"/>
<text text-anchor="middle" x="131" y="-231.5" font-family="sans" font-size="10.00">diag_thermodynamics</text>
</g>
<!-- 2&#45;&gt;6 -->
<g id="edge13" class="edge">
<title>2&#45;&gt;6</title>
<path fill="none" stroke="grey" stroke-width="2" d="M214.09,-287.88C199.84,-278.81 182.15,-267.55 166.76,-257.76"/>
<polygon fill="grey" stroke="grey" stroke-width="2" points="168.33,-254.61 158.01,-252.19 164.57,-260.51 168.33,-254.61"/>
</g>
<!-- 7 -->
<g id="node8" class="node">
<title>7</title>
<path fill="none" stroke="#568ad8" stroke-width="2" d="M199.5,-180C199.5,-180 86.5,-180 86.5,-180 80.5,-180 74.5,-174 74.5,-168 74.5,-168 74.5,-156 74.5,-156 74.5,-150 80.5,-144 86.5,-144 86.5,-144 199.5,-144 199.5,-144 205.5,-144 211.5,-150 211.5,-156 211.5,-156 211.5,-168 211.5,-168 211.5,-174 205.5,-180 199.5,-180"/>
<text text-anchor="middle" x="143" y="-159.5" font-family="sans" font-size="10.00">diag_average_properties</text>
</g>
<!-- 2&#45;&gt;7 -->
<g id="edge14" class="edge">
<title>2&#45;&gt;7</title>
<path fill="none" stroke="grey" stroke-width="2" d="M235.9,-287.81C229.8,-269.01 218.31,-238.56 202,-216 194.23,-205.26 183.97,-195.1 174.18,-186.61"/>
<polygon fill="grey" stroke="grey" stroke-width="2" points="176.4,-183.9 166.48,-180.17 171.91,-189.27 176.4,-183.9"/>
</g>
<!-- 8 -->
<g id="node9" class="node">
<title>8</title>
<path fill="none" stroke="#d8d356" stroke-width="2" d="M342,-180C342,-180 242,-180 242,-180 236,-180 230,-174 230,-168 230,-168 230,-156 230,-156 230,-150 236,-144 242,-144 242,-144 342,-144 342,-144 348,-144 354,-150 354,-156 354,-156 354,-168 354,-168 354,-174 348,-180 342,-180"/>
<text text-anchor="middle" x="292" y="-159.5" font-family="sans" font-size="10.00">diag_buoyancy_fluxes</text>
</g>
<!-- 2&#45;&gt;8 -->
<g id="edge16" class="edge">
<title>2&#45;&gt;8</title>
<path fill="none" stroke="grey" stroke-width="2" d="M247.15,-287.87C255.92,-263.46 272.09,-218.43 282.43,-189.64"/>
<polygon fill="grey" stroke="grey" stroke-width="2" points="285.74,-190.78 285.83,-180.19 279.15,-188.42 285.74,-190.78"/>
</g>
<!-- 9 -->
<g id="node10" class="node">
<title>9</title>
<path fill="none" stroke="#56d892" stroke-width="2" d="M416,-252C416,-252 300,-252 300,-252 294,-252 288,-246 288,-240 288,-240 288,-228 288,-228 288,-222 294,-216 300,-216 300,-216 416,-216 416,-216 422,-216 428,-222 428,-228 428,-228 428,-240 428,-240 428,-246 422,-252 416,-252"/>
<text text-anchor="middle" x="358" y="-231.5" font-family="sans" font-size="10.00">process_exp_short_name</text>
</g>
<!-- 2&#45;&gt;9 -->
<g id="edge18" class="edge">
<title>2&#45;&gt;9</title>
<path fill="none" stroke="grey" stroke-width="2" d="M269.62,-287.88C284.92,-278.72 303.94,-267.34 320.42,-257.48"/>
<polygon fill="grey" stroke="grey" stroke-width="2" points="322.48,-260.33 329.27,-252.19 318.89,-254.32 322.48,-260.33"/>
</g>
<!-- 3 -->
<g id="node4" class="node">
<title>3</title>
<path fill="none" stroke="#88d856" stroke-width="2" d="M146.5,-396C146.5,-396 77.5,-396 77.5,-396 71.5,-396 65.5,-390 65.5,-384 65.5,-384 65.5,-372 65.5,-372 65.5,-366 71.5,-360 77.5,-360 77.5,-360 146.5,-360 146.5,-360 152.5,-360 158.5,-366 158.5,-372 158.5,-372 158.5,-384 158.5,-384 158.5,-390 152.5,-396 146.5,-396"/>
<text text-anchor="middle" x="112" y="-375.5" font-family="sans" font-size="10.00">process_delta_t</text>
</g>
<!-- 3&#45;&gt;2 -->
<g id="edge8" class="edge">
<title>3&#45;&gt;2</title>
<path fill="none" stroke="grey" stroke-width="2" d="M143.56,-359.88C160.66,-350.6 181.98,-339.03 200.32,-329.08"/>
<polygon fill="grey" stroke="grey" stroke-width="2" points="202.2,-332.04 209.32,-324.19 198.86,-325.88 202.2,-332.04"/>
</g>
<!-- 3&#45;&gt;5 -->
<g id="edge12" class="edge">
<title>3&#45;&gt;5</title>
<path fill="none" stroke="grey" stroke-width="2" d="M97.59,-359.72C79.38,-336.76 48.75,-294.16 35,-252 28.48,-232.02 26.91,-208.23 26.86,-190.27"/>
<polygon fill="grey" stroke="grey" stroke-width="2" points="30.36,-190.24 27,-180.19 23.37,-190.15 30.36,-190.24"/>
</g>
<!-- 4&#45;&gt;1 -->
<g id="edge3" class="edge">
<title>4&#45;&gt;1</title>
<path fill="none" stroke="grey" stroke-width="2" d="M528.65,-215.68C517.18,-195.9 496.03,-163.74 470,-144 445.85,-125.69 414.54,-112.8 388.36,-104.32"/>
<polygon fill="grey" stroke="grey" stroke-width="2" points="389.19,-100.91 378.6,-101.28 387.11,-107.59 389.19,-100.91"/>
</g>
<!-- 5&#45;&gt;1 -->
<g id="edge2" class="edge">
<title>5&#45;&gt;1</title>
<path fill="none" stroke="grey" stroke-width="2" d="M56.01,-147.3C59,-146.08 62.04,-144.95 65,-144 139.8,-119.91 229.87,-104.99 285.28,-97.34"/>
<polygon fill="grey" stroke="grey" stroke-width="2" points="285.78,-100.8 295.22,-95.99 284.84,-93.87 285.78,-100.8"/>
</g>
<!-- 6&#45;&gt;5 -->
<g id="edge11" class="edge">
<title>6&#45;&gt;5</title>
<path fill="none" stroke="grey" stroke-width="2" d="M105.8,-215.88C92.59,-206.89 76.21,-195.76 61.89,-186.03"/>
<polygon fill="grey" stroke="grey" stroke-width="2" points="63.53,-182.92 53.29,-180.19 59.6,-188.71 63.53,-182.92"/>
</g>
<!-- 6&#45;&gt;7 -->
<g id="edge15" class="edge">
<title>6&#45;&gt;7</title>
<path fill="none" stroke="grey" stroke-width="2" d="M133.97,-215.7C135.29,-207.98 136.88,-198.71 138.35,-190.11"/>
<polygon fill="grey" stroke="grey" stroke-width="2" points="141.83,-190.55 140.07,-180.1 134.93,-189.37 141.83,-190.55"/>
</g>
<!-- 6&#45;&gt;8 -->
<g id="edge17" class="edge">
<title>6&#45;&gt;8</title>
<path fill="none" stroke="grey" stroke-width="2" d="M170.39,-215.88C192.39,-206.31 220.01,-194.3 243.36,-184.15"/>
<polygon fill="grey" stroke="grey" stroke-width="2" points="244.97,-187.27 252.74,-180.07 242.18,-180.85 244.97,-187.27"/>
</g>
<!-- 7&#45;&gt;1 -->
<g id="edge5" class="edge">
<title>7&#45;&gt;1</title>
<path fill="none" stroke="grey" stroke-width="2" d="M190.46,-143.88C219.28,-133.48 256.08,-120.2 285.6,-109.55"/>
<polygon fill="grey" stroke="grey" stroke-width="2" points="287.08,-112.73 295.3,-106.05 284.71,-106.15 287.08,-112.73"/>
</g>
<!-- 8&#45;&gt;1 -->
<g id="edge7" class="edge">
<title>8&#45;&gt;1</title>
<path fill="none" stroke="grey" stroke-width="2" d="M303.12,-143.7C308.36,-135.56 314.7,-125.69 320.48,-116.7"/>
<polygon fill="grey" stroke="grey" stroke-width="2" points="323.54,-118.41 326,-108.1 317.65,-114.62 323.54,-118.41"/>
</g>
<!-- 9&#45;&gt;1 -->
<g id="edge6" class="edge">
<title>9&#45;&gt;1</title>
<path fill="none" stroke="grey" stroke-width="2" d="M361.82,-215.69C365.16,-197.57 368.67,-168.42 363,-144 360.9,-134.96 357.03,-125.68 352.91,-117.47"/>
<polygon fill="grey" stroke="grey" stroke-width="2" points="355.86,-115.55 348.05,-108.39 349.69,-118.86 355.86,-115.55"/>
</g>
</g>
</svg>
