<?xml version="1.0" encoding="UTF-8" standalone="no"?>
<!DOCTYPE svg PUBLIC "-//W3C//DTD SVG 1.1//EN"
 "http://www.w3.org/Graphics/SVG/1.1/DTD/svg11.dtd">
<!-- Generated by graphviz version 2.43.0 (0)
 -->
<!-- Title: snakemake_dag Pages: 1 -->
<svg width="232pt" height="404pt"
 viewBox="0.00 0.00 231.50 404.00" xmlns="http://www.w3.org/2000/svg" xmlns:xlink="http://www.w3.org/1999/xlink">
<g id="graph0" class="graph" transform="scale(1 1) rotate(0) translate(4 400)">
<title>snakemake_dag</title>
<polygon fill="white" stroke="transparent" points="-4,4 -4,-400 227.5,-400 227.5,4 -4,4"/>
<!-- 0 -->
<g id="node1" class="node">
<title>0</title>
<path fill="none" stroke="#56d8c9" stroke-width="2" d="M131.5,-36C131.5,-36 22.5,-36 22.5,-36 16.5,-36 10.5,-30 10.5,-24 10.5,-24 10.5,-12 10.5,-12 10.5,-6 16.5,0 22.5,0 22.5,0 131.5,0 131.5,0 137.5,0 143.5,-6 143.5,-12 143.5,-12 143.5,-24 143.5,-24 143.5,-30 137.5,-36 131.5,-36"/>
<text text-anchor="middle" x="77" y="-15.5" font-family="sans" font-size="10.00">paper_fig_from_number</text>
</g>
<!-- 1 -->
<g id="node2" class="node">
<title>1</title>
<path fill="none" stroke="#d8ac56" stroke-width="2" d="M116.5,-108C116.5,-108 37.5,-108 37.5,-108 31.5,-108 25.5,-102 25.5,-96 25.5,-96 25.5,-84 25.5,-84 25.5,-78 31.5,-72 37.5,-72 37.5,-72 116.5,-72 116.5,-72 122.5,-72 128.5,-78 128.5,-84 128.5,-84 128.5,-96 128.5,-96 128.5,-102 122.5,-108 116.5,-108"/>
<text text-anchor="middle" x="77" y="-87.5" font-family="sans" font-size="10.00">plot_config_paper</text>
</g>
<!-- 1&#45;&gt;0 -->
<g id="edge1" class="edge">
<title>1&#45;&gt;0</title>
<path fill="none" stroke="grey" stroke-width="2" d="M77,-71.7C77,-63.98 77,-54.71 77,-46.11"/>
<polygon fill="grey" stroke="grey" stroke-width="2" points="80.5,-46.1 77,-36.1 73.5,-46.1 80.5,-46.1"/>
</g>
<!-- 2 -->
<g id="node3" class="node">
<title>2</title>
<path fill="none" stroke="#56b9d8" stroke-width="2" d="M128,-324C128,-324 12,-324 12,-324 6,-324 0,-318 0,-312 0,-312 0,-300 0,-300 0,-294 6,-288 12,-288 12,-288 128,-288 128,-288 134,-288 140,-294 140,-300 140,-300 140,-312 140,-312 140,-318 134,-324 128,-324"/>
<text text-anchor="middle" x="70" y="-303.5" font-family="sans" font-size="10.00">process_with_xnemogcm</text>
</g>
<!-- 2&#45;&gt;1 -->
<g id="edge3" class="edge">
<title>2&#45;&gt;1</title>
<path fill="none" stroke="grey" stroke-width="2" d="M64.16,-287.87C54.89,-258.21 39.04,-195.54 51,-144 53.1,-134.96 56.97,-125.68 61.09,-117.47"/>
<polygon fill="grey" stroke="grey" stroke-width="2" points="64.31,-118.86 65.95,-108.39 58.14,-115.55 64.31,-118.86"/>
</g>
<!-- 4 -->
<g id="node5" class="node">
<title>4</title>
<path fill="none" stroke="#56d89a" stroke-width="2" d="M172,-180C172,-180 72,-180 72,-180 66,-180 60,-174 60,-168 60,-168 60,-156 60,-156 60,-150 66,-144 72,-144 72,-144 172,-144 172,-144 178,-144 184,-150 184,-156 184,-156 184,-168 184,-168 184,-174 178,-180 172,-180"/>
<text text-anchor="middle" x="122" y="-159.5" font-family="sans" font-size="10.00">diag_buoyancy_fluxes</text>
</g>
<!-- 2&#45;&gt;4 -->
<g id="edge6" class="edge">
<title>2&#45;&gt;4</title>
<path fill="none" stroke="grey" stroke-width="2" d="M71.88,-287.75C74.29,-269.43 79.36,-239.88 89,-216 92.75,-206.7 98.11,-197.2 103.41,-188.86"/>
<polygon fill="grey" stroke="grey" stroke-width="2" points="106.46,-190.59 109.07,-180.32 100.62,-186.72 106.46,-190.59"/>
</g>
<!-- 5 -->
<g id="node6" class="node">
<title>5</title>
<path fill="none" stroke="#56d87b" stroke-width="2" d="M211.5,-252C211.5,-252 110.5,-252 110.5,-252 104.5,-252 98.5,-246 98.5,-240 98.5,-240 98.5,-228 98.5,-228 98.5,-222 104.5,-216 110.5,-216 110.5,-216 211.5,-216 211.5,-216 217.5,-216 223.5,-222 223.5,-228 223.5,-228 223.5,-240 223.5,-240 223.5,-246 217.5,-252 211.5,-252"/>
<text text-anchor="middle" x="161" y="-231.5" font-family="sans" font-size="10.00">diag_thermodynamics</text>
</g>
<!-- 2&#45;&gt;5 -->
<g id="edge7" class="edge">
<title>2&#45;&gt;5</title>
<path fill="none" stroke="grey" stroke-width="2" d="M92.49,-287.7C103.96,-278.88 118.06,-268.03 130.48,-258.47"/>
<polygon fill="grey" stroke="grey" stroke-width="2" points="132.97,-260.98 138.76,-252.1 128.7,-255.43 132.97,-260.98"/>
</g>
<!-- 3 -->
<g id="node4" class="node">
<title>3</title>
<path fill="none" stroke="#5692d8" stroke-width="2" d="M104.5,-396C104.5,-396 35.5,-396 35.5,-396 29.5,-396 23.5,-390 23.5,-384 23.5,-384 23.5,-372 23.5,-372 23.5,-366 29.5,-360 35.5,-360 35.5,-360 104.5,-360 104.5,-360 110.5,-360 116.5,-366 116.5,-372 116.5,-372 116.5,-384 116.5,-384 116.5,-390 110.5,-396 104.5,-396"/>
<text text-anchor="middle" x="70" y="-375.5" font-family="sans" font-size="10.00">process_delta_t</text>
</g>
<!-- 3&#45;&gt;2 -->
<g id="edge4" class="edge">
<title>3&#45;&gt;2</title>
<path fill="none" stroke="grey" stroke-width="2" d="M70,-359.7C70,-351.98 70,-342.71 70,-334.11"/>
<polygon fill="grey" stroke="grey" stroke-width="2" points="73.5,-334.1 70,-324.1 66.5,-334.1 73.5,-334.1"/>
</g>
<!-- 4&#45;&gt;1 -->
<g id="edge2" class="edge">
<title>4&#45;&gt;1</title>
<path fill="none" stroke="grey" stroke-width="2" d="M110.88,-143.7C105.64,-135.56 99.3,-125.69 93.52,-116.7"/>
<polygon fill="grey" stroke="grey" stroke-width="2" points="96.35,-114.62 88,-108.1 90.46,-118.41 96.35,-114.62"/>
</g>
<!-- 5&#45;&gt;4 -->
<g id="edge5" class="edge">
<title>5&#45;&gt;4</title>
<path fill="none" stroke="grey" stroke-width="2" d="M151.36,-215.7C146.87,-207.64 141.44,-197.89 136.48,-188.98"/>
<polygon fill="grey" stroke="grey" stroke-width="2" points="139.45,-187.14 131.53,-180.1 133.34,-190.54 139.45,-187.14"/>
</g>
</g>
</svg>
