<?xml version="1.0" encoding="UTF-8" standalone="no"?>
<!DOCTYPE svg PUBLIC "-//W3C//DTD SVG 1.1//EN"
 "http://www.w3.org/Graphics/SVG/1.1/DTD/svg11.dtd">
<!-- Generated by graphviz version 2.43.0 (0)
 -->
<!-- Title: snakemake_dag Pages: 1 -->
<svg width="232pt" height="404pt"
 viewBox="0.00 0.00 231.50 404.00" xmlns="http://www.w3.org/2000/svg" xmlns:xlink="http://www.w3.org/1999/xlink">
<g id="graph0" class="graph" transform="scale(1 1) rotate(0) translate(4 400)">
<title>snakemake_dag</title>
<polygon fill="white" stroke="transparent" points="-4,4 -4,-400 227.5,-400 227.5,4 -4,4"/>
<!-- 0 -->
<g id="node1" class="node">
<title>0</title>
<path fill="none" stroke="#59d856" stroke-width="2" d="M150.5,-36C150.5,-36 41.5,-36 41.5,-36 35.5,-36 29.5,-30 29.5,-24 29.5,-24 29.5,-12 29.5,-12 29.5,-6 35.5,0 41.5,0 41.5,0 150.5,0 150.5,0 156.5,0 162.5,-6 162.5,-12 162.5,-12 162.5,-24 162.5,-24 162.5,-30 156.5,-36 150.5,-36"/>
<text text-anchor="middle" x="96" y="-15.5" font-family="sans" font-size="10.00">paper_fig_from_number</text>
</g>
<!-- 1 -->
<g id="node2" class="node">
<title>1</title>
<path fill="none" stroke="#56a9d8" stroke-width="2" d="M135.5,-108C135.5,-108 56.5,-108 56.5,-108 50.5,-108 44.5,-102 44.5,-96 44.5,-96 44.5,-84 44.5,-84 44.5,-78 50.5,-72 56.5,-72 56.5,-72 135.5,-72 135.5,-72 141.5,-72 147.5,-78 147.5,-84 147.5,-84 147.5,-96 147.5,-96 147.5,-102 141.5,-108 135.5,-108"/>
<text text-anchor="middle" x="96" y="-87.5" font-family="sans" font-size="10.00">plot_config_paper</text>
</g>
<!-- 1&#45;&gt;0 -->
<g id="edge1" class="edge">
<title>1&#45;&gt;0</title>
<path fill="none" stroke="grey" stroke-width="2" d="M96,-71.7C96,-63.98 96,-54.71 96,-46.11"/>
<polygon fill="grey" stroke="grey" stroke-width="2" points="99.5,-46.1 96,-36.1 92.5,-46.1 99.5,-46.1"/>
</g>
<!-- 2 -->
<g id="node3" class="node">
<title>2</title>
<path fill="none" stroke="#d85656" stroke-width="2" d="M128,-324C128,-324 12,-324 12,-324 6,-324 0,-318 0,-312 0,-312 0,-300 0,-300 0,-294 6,-288 12,-288 12,-288 128,-288 128,-288 134,-288 140,-294 140,-300 140,-300 140,-312 140,-312 140,-318 134,-324 128,-324"/>
<text text-anchor="middle" x="70" y="-303.5" font-family="sans" font-size="10.00">process_with_xnemogcm</text>
</g>
<!-- 2&#45;&gt;1 -->
<g id="edge4" class="edge">
<title>2&#45;&gt;1</title>
<path fill="none" stroke="grey" stroke-width="2" d="M63.78,-287.53C54.03,-257.36 37.94,-193.94 55,-144 58.44,-133.93 64.66,-124.28 71.23,-116.05"/>
<polygon fill="grey" stroke="grey" stroke-width="2" points="74,-118.2 77.83,-108.32 68.68,-113.65 74,-118.2"/>
</g>
<!-- 4 -->
<g id="node5" class="node">
<title>4</title>
<path fill="none" stroke="#56c9d8" stroke-width="2" d="M116,-180C116,-180 76,-180 76,-180 70,-180 64,-174 64,-168 64,-168 64,-156 64,-156 64,-150 70,-144 76,-144 76,-144 116,-144 116,-144 122,-144 128,-150 128,-156 128,-156 128,-168 128,-168 128,-174 122,-180 116,-180"/>
<text text-anchor="middle" x="96" y="-159.5" font-family="sans" font-size="10.00">diag_moc</text>
</g>
<!-- 2&#45;&gt;4 -->
<g id="edge7" class="edge">
<title>2&#45;&gt;4</title>
<path fill="none" stroke="grey" stroke-width="2" d="M73.14,-287.87C77.57,-263.67 85.71,-219.21 90.98,-190.39"/>
<polygon fill="grey" stroke="grey" stroke-width="2" points="94.49,-190.66 92.85,-180.19 87.61,-189.4 94.49,-190.66"/>
</g>
<!-- 5 -->
<g id="node6" class="node">
<title>5</title>
<path fill="none" stroke="#88d856" stroke-width="2" d="M211.5,-252C211.5,-252 110.5,-252 110.5,-252 104.5,-252 98.5,-246 98.5,-240 98.5,-240 98.5,-228 98.5,-228 98.5,-222 104.5,-216 110.5,-216 110.5,-216 211.5,-216 211.5,-216 217.5,-216 223.5,-222 223.5,-228 223.5,-228 223.5,-240 223.5,-240 223.5,-246 217.5,-252 211.5,-252"/>
<text text-anchor="middle" x="161" y="-231.5" font-family="sans" font-size="10.00">diag_thermodynamics</text>
</g>
<!-- 2&#45;&gt;5 -->
<g id="edge8" class="edge">
<title>2&#45;&gt;5</title>
<path fill="none" stroke="grey" stroke-width="2" d="M92.49,-287.7C103.96,-278.88 118.06,-268.03 130.48,-258.47"/>
<polygon fill="grey" stroke="grey" stroke-width="2" points="132.97,-260.98 138.76,-252.1 128.7,-255.43 132.97,-260.98"/>
</g>
<!-- 3 -->
<g id="node4" class="node">
<title>3</title>
<path fill="none" stroke="#56d8a9" stroke-width="2" d="M104.5,-396C104.5,-396 35.5,-396 35.5,-396 29.5,-396 23.5,-390 23.5,-384 23.5,-384 23.5,-372 23.5,-372 23.5,-366 29.5,-360 35.5,-360 35.5,-360 104.5,-360 104.5,-360 110.5,-360 116.5,-366 116.5,-372 116.5,-372 116.5,-384 116.5,-384 116.5,-390 110.5,-396 104.5,-396"/>
<text text-anchor="middle" x="70" y="-375.5" font-family="sans" font-size="10.00">process_delta_t</text>
</g>
<!-- 3&#45;&gt;2 -->
<g id="edge5" class="edge">
<title>3&#45;&gt;2</title>
<path fill="none" stroke="grey" stroke-width="2" d="M70,-359.7C70,-351.98 70,-342.71 70,-334.11"/>
<polygon fill="grey" stroke="grey" stroke-width="2" points="73.5,-334.1 70,-324.1 66.5,-334.1 73.5,-334.1"/>
</g>
<!-- 4&#45;&gt;1 -->
<g id="edge2" class="edge">
<title>4&#45;&gt;1</title>
<path fill="none" stroke="grey" stroke-width="2" d="M96,-143.7C96,-135.98 96,-126.71 96,-118.11"/>
<polygon fill="grey" stroke="grey" stroke-width="2" points="99.5,-118.1 96,-108.1 92.5,-118.1 99.5,-118.1"/>
</g>
<!-- 5&#45;&gt;1 -->
<g id="edge3" class="edge">
<title>5&#45;&gt;1</title>
<path fill="none" stroke="grey" stroke-width="2" d="M158.45,-215.89C155.24,-197.42 148.67,-167.51 137,-144 132.19,-134.31 125.46,-124.67 118.85,-116.31"/>
<polygon fill="grey" stroke="grey" stroke-width="2" points="121.41,-113.92 112.34,-108.44 116.01,-118.38 121.41,-113.92"/>
</g>
<!-- 5&#45;&gt;4 -->
<g id="edge6" class="edge">
<title>5&#45;&gt;4</title>
<path fill="none" stroke="grey" stroke-width="2" d="M144.93,-215.7C137.06,-207.22 127.44,-196.86 118.83,-187.58"/>
<polygon fill="grey" stroke="grey" stroke-width="2" points="121.25,-185.05 111.88,-180.1 116.12,-189.81 121.25,-185.05"/>
</g>
</g>
</svg>
