<?xml version="1.0" encoding="UTF-8" standalone="no"?>
<!DOCTYPE svg PUBLIC "-//W3C//DTD SVG 1.1//EN"
 "http://www.w3.org/Graphics/SVG/1.1/DTD/svg11.dtd">
<!-- Generated by graphviz version 2.43.0 (0)
 -->
<!-- Title: snakemake_dag Pages: 1 -->
<svg width="464pt" height="476pt"
 viewBox="0.00 0.00 463.99 476.00" xmlns="http://www.w3.org/2000/svg" xmlns:xlink="http://www.w3.org/1999/xlink">
<g id="graph0" class="graph" transform="scale(1 1) rotate(0) translate(4 472)">
<title>snakemake_dag</title>
<polygon fill="white" stroke="transparent" points="-4,4 -4,-472 459.99,-472 459.99,4 -4,4"/>
<!-- 0 -->
<g id="node1" class="node">
<title>0</title>
<path fill="none" stroke="#56d8d0" stroke-width="2" d="M396.5,-36C396.5,-36 287.5,-36 287.5,-36 281.5,-36 275.5,-30 275.5,-24 275.5,-24 275.5,-12 275.5,-12 275.5,-6 281.5,0 287.5,0 287.5,0 396.5,0 396.5,0 402.5,0 408.5,-6 408.5,-12 408.5,-12 408.5,-24 408.5,-24 408.5,-30 402.5,-36 396.5,-36"/>
<text text-anchor="middle" x="342" y="-15.5" font-family="sans" font-size="10.00">paper_fig_from_number</text>
</g>
<!-- 1 -->
<g id="node2" class="node">
<title>1</title>
<path fill="none" stroke="#d8ac56" stroke-width="2" d="M392.5,-108C392.5,-108 291.5,-108 291.5,-108 285.5,-108 279.5,-102 279.5,-96 279.5,-96 279.5,-84 279.5,-84 279.5,-78 285.5,-72 291.5,-72 291.5,-72 392.5,-72 392.5,-72 398.5,-72 404.5,-78 404.5,-84 404.5,-84 404.5,-96 404.5,-96 404.5,-102 398.5,-108 392.5,-108"/>
<text text-anchor="middle" x="342" y="-87.5" font-family="sans" font-size="10.00">plot_properties_vs_lat</text>
</g>
<!-- 1&#45;&gt;0 -->
<g id="edge1" class="edge">
<title>1&#45;&gt;0</title>
<path fill="none" stroke="grey" stroke-width="2" d="M342,-71.7C342,-63.98 342,-54.71 342,-46.11"/>
<polygon fill="grey" stroke="grey" stroke-width="2" points="345.5,-46.1 342,-36.1 338.5,-46.1 345.5,-46.1"/>
</g>
<!-- 2 -->
<g id="node3" class="node">
<title>2</title>
<path fill="none" stroke="#d85e56" stroke-width="2" d="M260,-396C260,-396 144,-396 144,-396 138,-396 132,-390 132,-384 132,-384 132,-372 132,-372 132,-366 138,-360 144,-360 144,-360 260,-360 260,-360 266,-360 272,-366 272,-372 272,-372 272,-384 272,-384 272,-390 266,-396 260,-396"/>
<text text-anchor="middle" x="202" y="-375.5" font-family="sans" font-size="10.00">process_with_xnemogcm</text>
</g>
<!-- 2&#45;&gt;1 -->
<g id="edge4" class="edge">
<title>2&#45;&gt;1</title>
<path fill="none" stroke="grey" stroke-width="2" d="M272.32,-364.4C302.88,-356.45 337.83,-343.81 365,-324 396.9,-300.75 397.93,-286.56 417,-252 441.01,-208.48 471.97,-186.38 446,-144 437.75,-130.53 424.88,-120.36 410.98,-112.71"/>
<polygon fill="grey" stroke="grey" stroke-width="2" points="412.23,-109.42 401.73,-108.04 409.08,-115.67 412.23,-109.42"/>
</g>
<!-- 4 -->
<g id="node5" class="node">
<title>4</title>
<path fill="none" stroke="#568ad8" stroke-width="2" d="M220,-180C220,-180 134,-180 134,-180 128,-180 122,-174 122,-168 122,-168 122,-156 122,-156 122,-150 128,-144 134,-144 134,-144 220,-144 220,-144 226,-144 232,-150 232,-156 232,-156 232,-168 232,-168 232,-174 226,-180 220,-180"/>
<text text-anchor="middle" x="177" y="-159.5" font-family="sans" font-size="10.00">diag_front_position</text>
</g>
<!-- 2&#45;&gt;4 -->
<g id="edge9" class="edge">
<title>2&#45;&gt;4</title>
<path fill="none" stroke="grey" stroke-width="2" d="M213.05,-359.61C218.74,-349.62 225.08,-336.58 228,-324 231.62,-308.41 230.26,-303.84 228,-288 223.29,-255 219.96,-246.71 207,-216 203.13,-206.84 198.06,-197.27 193.19,-188.81"/>
<polygon fill="grey" stroke="grey" stroke-width="2" points="196.17,-186.96 188.05,-180.15 190.15,-190.53 196.17,-186.96"/>
</g>
<!-- 5 -->
<g id="node6" class="node">
<title>5</title>
<path fill="none" stroke="#5673d8" stroke-width="2" d="M44,-252C44,-252 12,-252 12,-252 6,-252 0,-246 0,-240 0,-240 0,-228 0,-228 0,-222 6,-216 12,-216 12,-216 44,-216 44,-216 50,-216 56,-222 56,-228 56,-228 56,-240 56,-240 56,-246 50,-252 44,-252"/>
<text text-anchor="middle" x="28" y="-231.5" font-family="sans" font-size="10.00">diag_sci</text>
</g>
<!-- 2&#45;&gt;5 -->
<g id="edge10" class="edge">
<title>2&#45;&gt;5</title>
<path fill="none" stroke="grey" stroke-width="2" d="M138.88,-359.96C117.1,-351.76 93.75,-340.11 76,-324 57.41,-307.12 44.6,-281.31 36.93,-261.82"/>
<polygon fill="grey" stroke="grey" stroke-width="2" points="40.15,-260.44 33.38,-252.29 33.59,-262.88 40.15,-260.44"/>
</g>
<!-- 6 -->
<g id="node7" class="node">
<title>6</title>
<path fill="none" stroke="#56d8a2" stroke-width="2" d="M207.5,-324C207.5,-324 106.5,-324 106.5,-324 100.5,-324 94.5,-318 94.5,-312 94.5,-312 94.5,-300 94.5,-300 94.5,-294 100.5,-288 106.5,-288 106.5,-288 207.5,-288 207.5,-288 213.5,-288 219.5,-294 219.5,-300 219.5,-300 219.5,-312 219.5,-312 219.5,-318 213.5,-324 207.5,-324"/>
<text text-anchor="middle" x="157" y="-303.5" font-family="sans" font-size="10.00">diag_thermodynamics</text>
</g>
<!-- 2&#45;&gt;6 -->
<g id="edge13" class="edge">
<title>2&#45;&gt;6</title>
<path fill="none" stroke="grey" stroke-width="2" d="M190.88,-359.7C185.64,-351.56 179.3,-341.69 173.52,-332.7"/>
<polygon fill="grey" stroke="grey" stroke-width="2" points="176.35,-330.62 168,-324.1 170.46,-334.41 176.35,-330.62"/>
</g>
<!-- 7 -->
<g id="node8" class="node">
<title>7</title>
<path fill="none" stroke="#9fd856" stroke-width="2" d="M186,-252C186,-252 86,-252 86,-252 80,-252 74,-246 74,-240 74,-240 74,-228 74,-228 74,-222 80,-216 86,-216 86,-216 186,-216 186,-216 192,-216 198,-222 198,-228 198,-228 198,-240 198,-240 198,-246 192,-252 186,-252"/>
<text text-anchor="middle" x="136" y="-231.5" font-family="sans" font-size="10.00">diag_buoyancy_fluxes</text>
</g>
<!-- 2&#45;&gt;7 -->
<g id="edge14" class="edge">
<title>2&#45;&gt;7</title>
<path fill="none" stroke="grey" stroke-width="2" d="M131.93,-360.32C113.57,-352.42 95.88,-340.87 85,-324 76.33,-310.55 79.02,-302.84 85,-288 89.35,-277.21 97.06,-267.39 105.19,-259.21"/>
<polygon fill="grey" stroke="grey" stroke-width="2" points="107.79,-261.57 112.7,-252.18 103,-256.46 107.79,-261.57"/>
</g>
<!-- 8 -->
<g id="node9" class="node">
<title>8</title>
<path fill="none" stroke="#b6d856" stroke-width="2" d="M379.5,-252C379.5,-252 266.5,-252 266.5,-252 260.5,-252 254.5,-246 254.5,-240 254.5,-240 254.5,-228 254.5,-228 254.5,-222 260.5,-216 266.5,-216 266.5,-216 379.5,-216 379.5,-216 385.5,-216 391.5,-222 391.5,-228 391.5,-228 391.5,-240 391.5,-240 391.5,-246 385.5,-252 379.5,-252"/>
<text text-anchor="middle" x="323" y="-231.5" font-family="sans" font-size="10.00">diag_average_properties</text>
</g>
<!-- 2&#45;&gt;8 -->
<g id="edge16" class="edge">
<title>2&#45;&gt;8</title>
<path fill="none" stroke="grey" stroke-width="2" d="M224.01,-359.79C235.92,-349.96 250.49,-337.01 262,-324 279.41,-304.31 296.06,-279.47 307.55,-261.04"/>
<polygon fill="grey" stroke="grey" stroke-width="2" points="310.66,-262.66 312.91,-252.3 304.7,-259 310.66,-262.66"/>
</g>
<!-- 9 -->
<g id="node10" class="node">
<title>9</title>
<path fill="none" stroke="#56d8a9" stroke-width="2" d="M425,-180C425,-180 341,-180 341,-180 335,-180 329,-174 329,-168 329,-168 329,-156 329,-156 329,-150 335,-144 341,-144 341,-144 425,-144 425,-144 431,-144 437,-150 437,-156 437,-156 437,-168 437,-168 437,-174 431,-180 425,-180"/>
<text text-anchor="middle" x="383" y="-159.5" font-family="sans" font-size="10.00">diag_forcing_fields</text>
</g>
<!-- 2&#45;&gt;9 -->
<g id="edge18" class="edge">
<title>2&#45;&gt;9</title>
<path fill="none" stroke="grey" stroke-width="2" d="M256.15,-359.87C303.77,-341.56 370.03,-307.43 400,-252 410.46,-232.65 404.42,-207.87 396.78,-189.38"/>
<polygon fill="grey" stroke="grey" stroke-width="2" points="399.89,-187.77 392.6,-180.09 393.51,-190.64 399.89,-187.77"/>
</g>
<!-- 3 -->
<g id="node4" class="node">
<title>3</title>
<path fill="none" stroke="#d6d856" stroke-width="2" d="M107.5,-468C107.5,-468 38.5,-468 38.5,-468 32.5,-468 26.5,-462 26.5,-456 26.5,-456 26.5,-444 26.5,-444 26.5,-438 32.5,-432 38.5,-432 38.5,-432 107.5,-432 107.5,-432 113.5,-432 119.5,-438 119.5,-444 119.5,-444 119.5,-456 119.5,-456 119.5,-462 113.5,-468 107.5,-468"/>
<text text-anchor="middle" x="73" y="-447.5" font-family="sans" font-size="10.00">process_delta_t</text>
</g>
<!-- 3&#45;&gt;2 -->
<g id="edge6" class="edge">
<title>3&#45;&gt;2</title>
<path fill="none" stroke="grey" stroke-width="2" d="M104.56,-431.88C121.66,-422.6 142.98,-411.03 161.32,-401.08"/>
<polygon fill="grey" stroke="grey" stroke-width="2" points="163.2,-404.04 170.32,-396.19 159.86,-397.88 163.2,-404.04"/>
</g>
<!-- 3&#45;&gt;5 -->
<g id="edge11" class="edge">
<title>3&#45;&gt;5</title>
<path fill="none" stroke="grey" stroke-width="2" d="M69.17,-431.62C63.87,-407.5 54.04,-362.47 46,-324 41.67,-303.3 36.94,-279.85 33.41,-262.22"/>
<polygon fill="grey" stroke="grey" stroke-width="2" points="36.77,-261.2 31.38,-252.08 29.91,-262.57 36.77,-261.2"/>
</g>
<!-- 4&#45;&gt;1 -->
<g id="edge3" class="edge">
<title>4&#45;&gt;1</title>
<path fill="none" stroke="grey" stroke-width="2" d="M217.36,-143.88C240.02,-134.26 268.47,-122.19 292.47,-112.01"/>
<polygon fill="grey" stroke="grey" stroke-width="2" points="293.93,-115.2 301.77,-108.07 291.19,-108.75 293.93,-115.2"/>
</g>
<!-- 5&#45;&gt;4 -->
<g id="edge8" class="edge">
<title>5&#45;&gt;4</title>
<path fill="none" stroke="grey" stroke-width="2" d="M56.03,-219.83C77.25,-209.86 106.87,-195.95 131.48,-184.39"/>
<polygon fill="grey" stroke="grey" stroke-width="2" points="133.08,-187.5 140.64,-180.08 130.1,-181.17 133.08,-187.5"/>
</g>
<!-- 6&#45;&gt;5 -->
<g id="edge12" class="edge">
<title>6&#45;&gt;5</title>
<path fill="none" stroke="grey" stroke-width="2" d="M125.44,-287.88C107.24,-278 84.25,-265.52 65.17,-255.17"/>
<polygon fill="grey" stroke="grey" stroke-width="2" points="66.62,-251.97 56.16,-250.28 63.28,-258.13 66.62,-251.97"/>
</g>
<!-- 6&#45;&gt;7 -->
<g id="edge15" class="edge">
<title>6&#45;&gt;7</title>
<path fill="none" stroke="grey" stroke-width="2" d="M151.81,-287.7C149.47,-279.9 146.65,-270.51 144.05,-261.83"/>
<polygon fill="grey" stroke="grey" stroke-width="2" points="147.36,-260.68 141.13,-252.1 140.65,-262.69 147.36,-260.68"/>
</g>
<!-- 6&#45;&gt;8 -->
<g id="edge17" class="edge">
<title>6&#45;&gt;8</title>
<path fill="none" stroke="grey" stroke-width="2" d="M197.61,-287.88C220.4,-278.26 249.03,-266.19 273.17,-256.01"/>
<polygon fill="grey" stroke="grey" stroke-width="2" points="274.67,-259.18 282.52,-252.07 271.95,-252.73 274.67,-259.18"/>
</g>
<!-- 7&#45;&gt;4 -->
<g id="edge7" class="edge">
<title>7&#45;&gt;4</title>
<path fill="none" stroke="grey" stroke-width="2" d="M146.13,-215.7C150.85,-207.64 156.56,-197.89 161.78,-188.98"/>
<polygon fill="grey" stroke="grey" stroke-width="2" points="164.95,-190.5 166.98,-180.1 158.91,-186.96 164.95,-190.5"/>
</g>
<!-- 8&#45;&gt;1 -->
<g id="edge5" class="edge">
<title>8&#45;&gt;1</title>
<path fill="none" stroke="grey" stroke-width="2" d="M320.1,-215.75C317.61,-197.68 315.1,-168.56 320,-144 321.79,-135.01 325.14,-125.64 328.69,-117.32"/>
<polygon fill="grey" stroke="grey" stroke-width="2" points="331.92,-118.67 332.87,-108.12 325.54,-115.77 331.92,-118.67"/>
</g>
<!-- 9&#45;&gt;1 -->
<g id="edge2" class="edge">
<title>9&#45;&gt;1</title>
<path fill="none" stroke="grey" stroke-width="2" d="M372.87,-143.7C368.15,-135.64 362.44,-125.89 357.22,-116.98"/>
<polygon fill="grey" stroke="grey" stroke-width="2" points="360.09,-114.96 352.02,-108.1 354.05,-118.5 360.09,-114.96"/>
</g>
</g>
</svg>
