<?xml version="1.0" encoding="UTF-8" standalone="no"?>
<!DOCTYPE svg PUBLIC "-//W3C//DTD SVG 1.1//EN"
 "http://www.w3.org/Graphics/SVG/1.1/DTD/svg11.dtd">
<!-- Generated by graphviz version 2.43.0 (0)
 -->
<!-- Title: snakemake_dag Pages: 1 -->
<svg width="310pt" height="332pt"
 viewBox="0.00 0.00 310.27 332.00" xmlns="http://www.w3.org/2000/svg" xmlns:xlink="http://www.w3.org/1999/xlink">
<g id="graph0" class="graph" transform="scale(1 1) rotate(0) translate(4 328)">
<title>snakemake_dag</title>
<polygon fill="white" stroke="transparent" points="-4,4 -4,-328 306.27,-328 306.27,4 -4,4"/>
<!-- 0 -->
<g id="node1" class="node">
<title>0</title>
<path fill="none" stroke="#56c9d8" stroke-width="2" d="M143.27,-36C143.27,-36 34.27,-36 34.27,-36 28.27,-36 22.27,-30 22.27,-24 22.27,-24 22.27,-12 22.27,-12 22.27,-6 28.27,0 34.27,0 34.27,0 143.27,0 143.27,0 149.27,0 155.27,-6 155.27,-12 155.27,-12 155.27,-24 155.27,-24 155.27,-30 149.27,-36 143.27,-36"/>
<text text-anchor="middle" x="88.77" y="-15.5" font-family="sans" font-size="10.00">paper_fig_from_number</text>
</g>
<!-- 1 -->
<g id="node2" class="node">
<title>1</title>
<path fill="none" stroke="#56d88a" stroke-width="2" d="M128.27,-108C128.27,-108 49.27,-108 49.27,-108 43.27,-108 37.27,-102 37.27,-96 37.27,-96 37.27,-84 37.27,-84 37.27,-78 43.27,-72 49.27,-72 49.27,-72 128.27,-72 128.27,-72 134.27,-72 140.27,-78 140.27,-84 140.27,-84 140.27,-96 140.27,-96 140.27,-102 134.27,-108 128.27,-108"/>
<text text-anchor="middle" x="88.77" y="-87.5" font-family="sans" font-size="10.00">plot_config_paper</text>
</g>
<!-- 1&#45;&gt;0 -->
<g id="edge1" class="edge">
<title>1&#45;&gt;0</title>
<path fill="none" stroke="grey" stroke-width="2" d="M88.77,-71.7C88.77,-63.98 88.77,-54.71 88.77,-46.11"/>
<polygon fill="grey" stroke="grey" stroke-width="2" points="92.27,-46.1 88.77,-36.1 85.27,-46.1 92.27,-46.1"/>
</g>
<!-- 2 -->
<g id="node3" class="node">
<title>2</title>
<path fill="none" stroke="#97d856" stroke-width="2" d="M146.77,-252C146.77,-252 30.77,-252 30.77,-252 24.77,-252 18.77,-246 18.77,-240 18.77,-240 18.77,-228 18.77,-228 18.77,-222 24.77,-216 30.77,-216 30.77,-216 146.77,-216 146.77,-216 152.77,-216 158.77,-222 158.77,-228 158.77,-228 158.77,-240 158.77,-240 158.77,-246 152.77,-252 146.77,-252"/>
<text text-anchor="middle" x="88.77" y="-231.5" font-family="sans" font-size="10.00">process_with_xnemogcm</text>
</g>
<!-- 2&#45;&gt;1 -->
<g id="edge3" class="edge">
<title>2&#45;&gt;1</title>
<path fill="none" stroke="grey" stroke-width="2" d="M45.2,-215.87C29.91,-207.49 14.39,-195.74 5.77,-180 -1.92,-165.97 -1.92,-158.03 5.77,-144 12.71,-131.33 24.11,-121.25 36.27,-113.43"/>
<polygon fill="grey" stroke="grey" stroke-width="2" points="38.39,-116.24 45.2,-108.13 34.82,-110.22 38.39,-116.24"/>
</g>
<!-- 4 -->
<g id="node5" class="node">
<title>4</title>
<path fill="none" stroke="#56a2d8" stroke-width="2" d="M151.27,-180C151.27,-180 26.27,-180 26.27,-180 20.27,-180 14.27,-174 14.27,-168 14.27,-168 14.27,-156 14.27,-156 14.27,-150 20.27,-144 26.27,-144 26.27,-144 151.27,-144 151.27,-144 157.27,-144 163.27,-150 163.27,-156 163.27,-156 163.27,-168 163.27,-168 163.27,-174 157.27,-180 151.27,-180"/>
<text text-anchor="middle" x="88.77" y="-159.5" font-family="sans" font-size="10.00">diag_barotropic_circulation</text>
</g>
<!-- 2&#45;&gt;4 -->
<g id="edge6" class="edge">
<title>2&#45;&gt;4</title>
<path fill="none" stroke="grey" stroke-width="2" d="M88.77,-215.7C88.77,-207.98 88.77,-198.71 88.77,-190.11"/>
<polygon fill="grey" stroke="grey" stroke-width="2" points="92.27,-190.1 88.77,-180.1 85.27,-190.1 92.27,-190.1"/>
</g>
<!-- 5 -->
<g id="node6" class="node">
<title>5</title>
<path fill="none" stroke="#56d873" stroke-width="2" d="M290.27,-180C290.27,-180 193.27,-180 193.27,-180 187.27,-180 181.27,-174 181.27,-168 181.27,-168 181.27,-156 181.27,-156 181.27,-150 187.27,-144 193.27,-144 193.27,-144 290.27,-144 290.27,-144 296.27,-144 302.27,-150 302.27,-156 302.27,-156 302.27,-168 302.27,-168 302.27,-174 296.27,-180 290.27,-180"/>
<text text-anchor="middle" x="241.77" y="-159.5" font-family="sans" font-size="10.00">diag_ekman_velocity</text>
</g>
<!-- 2&#45;&gt;5 -->
<g id="edge7" class="edge">
<title>2&#45;&gt;5</title>
<path fill="none" stroke="grey" stroke-width="2" d="M126.19,-215.88C147.02,-206.35 173.12,-194.41 195.25,-184.28"/>
<polygon fill="grey" stroke="grey" stroke-width="2" points="196.82,-187.41 204.46,-180.07 193.91,-181.05 196.82,-187.41"/>
</g>
<!-- 3 -->
<g id="node4" class="node">
<title>3</title>
<path fill="none" stroke="#d87d56" stroke-width="2" d="M123.27,-324C123.27,-324 54.27,-324 54.27,-324 48.27,-324 42.27,-318 42.27,-312 42.27,-312 42.27,-300 42.27,-300 42.27,-294 48.27,-288 54.27,-288 54.27,-288 123.27,-288 123.27,-288 129.27,-288 135.27,-294 135.27,-300 135.27,-300 135.27,-312 135.27,-312 135.27,-318 129.27,-324 123.27,-324"/>
<text text-anchor="middle" x="88.77" y="-303.5" font-family="sans" font-size="10.00">process_delta_t</text>
</g>
<!-- 3&#45;&gt;2 -->
<g id="edge5" class="edge">
<title>3&#45;&gt;2</title>
<path fill="none" stroke="grey" stroke-width="2" d="M88.77,-287.7C88.77,-279.98 88.77,-270.71 88.77,-262.11"/>
<polygon fill="grey" stroke="grey" stroke-width="2" points="92.27,-262.1 88.77,-252.1 85.27,-262.1 92.27,-262.1"/>
</g>
<!-- 4&#45;&gt;1 -->
<g id="edge2" class="edge">
<title>4&#45;&gt;1</title>
<path fill="none" stroke="grey" stroke-width="2" d="M88.77,-143.7C88.77,-135.98 88.77,-126.71 88.77,-118.11"/>
<polygon fill="grey" stroke="grey" stroke-width="2" points="92.27,-118.1 88.77,-108.1 85.27,-118.1 92.27,-118.1"/>
</g>
<!-- 5&#45;&gt;1 -->
<g id="edge4" class="edge">
<title>5&#45;&gt;1</title>
<path fill="none" stroke="grey" stroke-width="2" d="M204.34,-143.88C183.52,-134.35 157.41,-122.41 135.29,-112.28"/>
<polygon fill="grey" stroke="grey" stroke-width="2" points="136.62,-109.05 126.07,-108.07 133.71,-115.41 136.62,-109.05"/>
</g>
</g>
</svg>
