<?xml version="1.0" encoding="UTF-8" standalone="no"?>
<!DOCTYPE svg PUBLIC "-//W3C//DTD SVG 1.1//EN"
 "http://www.w3.org/Graphics/SVG/1.1/DTD/svg11.dtd">
<!-- Generated by graphviz version 2.43.0 (0)
 -->
<!-- Title: snakemake_dag Pages: 1 -->
<svg width="281pt" height="476pt"
 viewBox="0.00 0.00 280.95 476.00" xmlns="http://www.w3.org/2000/svg" xmlns:xlink="http://www.w3.org/1999/xlink">
<g id="graph0" class="graph" transform="scale(1 1) rotate(0) translate(4 472)">
<title>snakemake_dag</title>
<polygon fill="white" stroke="transparent" points="-4,4 -4,-472 276.95,-472 276.95,4 -4,4"/>
<!-- 0 -->
<g id="node1" class="node">
<title>0</title>
<path fill="none" stroke="#d89c56" stroke-width="2" d="M121,-36C121,-36 12,-36 12,-36 6,-36 0,-30 0,-24 0,-24 0,-12 0,-12 0,-6 6,0 12,0 12,0 121,0 121,0 127,0 133,-6 133,-12 133,-12 133,-24 133,-24 133,-30 127,-36 121,-36"/>
<text text-anchor="middle" x="66.5" y="-15.5" font-family="sans" font-size="10.00">paper_fig_from_number</text>
</g>
<!-- 1 -->
<g id="node2" class="node">
<title>1</title>
<path fill="none" stroke="#61d856" stroke-width="2" d="M106,-108C106,-108 27,-108 27,-108 21,-108 15,-102 15,-96 15,-96 15,-84 15,-84 15,-78 21,-72 27,-72 27,-72 106,-72 106,-72 112,-72 118,-78 118,-84 118,-84 118,-96 118,-96 118,-102 112,-108 106,-108"/>
<text text-anchor="middle" x="66.5" y="-87.5" font-family="sans" font-size="10.00">plot_config_paper</text>
</g>
<!-- 1&#45;&gt;0 -->
<g id="edge1" class="edge">
<title>1&#45;&gt;0</title>
<path fill="none" stroke="grey" stroke-width="2" d="M66.5,-71.7C66.5,-63.98 66.5,-54.71 66.5,-46.11"/>
<polygon fill="grey" stroke="grey" stroke-width="2" points="70,-46.1 66.5,-36.1 63,-46.1 70,-46.1"/>
</g>
<!-- 2 -->
<g id="node3" class="node">
<title>2</title>
<path fill="none" stroke="#56d8b1" stroke-width="2" d="M93.5,-180C93.5,-180 39.5,-180 39.5,-180 33.5,-180 27.5,-174 27.5,-168 27.5,-168 27.5,-156 27.5,-156 27.5,-150 33.5,-144 39.5,-144 39.5,-144 93.5,-144 93.5,-144 99.5,-144 105.5,-150 105.5,-156 105.5,-156 105.5,-168 105.5,-168 105.5,-174 99.5,-180 93.5,-180"/>
<text text-anchor="middle" x="66.5" y="-159.5" font-family="sans" font-size="10.00">diag_section</text>
</g>
<!-- 2&#45;&gt;1 -->
<g id="edge2" class="edge">
<title>2&#45;&gt;1</title>
<path fill="none" stroke="grey" stroke-width="2" d="M66.5,-143.7C66.5,-135.98 66.5,-126.71 66.5,-118.11"/>
<polygon fill="grey" stroke="grey" stroke-width="2" points="70,-118.1 66.5,-108.1 63,-118.1 70,-118.1"/>
</g>
<!-- 3 -->
<g id="node4" class="node">
<title>3</title>
<path fill="none" stroke="#78d856" stroke-width="2" d="M184.5,-396C184.5,-396 68.5,-396 68.5,-396 62.5,-396 56.5,-390 56.5,-384 56.5,-384 56.5,-372 56.5,-372 56.5,-366 62.5,-360 68.5,-360 68.5,-360 184.5,-360 184.5,-360 190.5,-360 196.5,-366 196.5,-372 196.5,-372 196.5,-384 196.5,-384 196.5,-390 190.5,-396 184.5,-396"/>
<text text-anchor="middle" x="126.5" y="-375.5" font-family="sans" font-size="10.00">process_with_xnemogcm</text>
</g>
<!-- 3&#45;&gt;2 -->
<g id="edge3" class="edge">
<title>3&#45;&gt;2</title>
<path fill="none" stroke="grey" stroke-width="2" d="M121.69,-359.85C111.29,-322.75 86.63,-234.81 74.1,-190.1"/>
<polygon fill="grey" stroke="grey" stroke-width="2" points="77.4,-188.92 71.33,-180.23 70.66,-190.81 77.4,-188.92"/>
</g>
<!-- 5 -->
<g id="node6" class="node">
<title>5</title>
<path fill="none" stroke="#d8b456" stroke-width="2" d="M174.5,-252C174.5,-252 142.5,-252 142.5,-252 136.5,-252 130.5,-246 130.5,-240 130.5,-240 130.5,-228 130.5,-228 130.5,-222 136.5,-216 142.5,-216 142.5,-216 174.5,-216 174.5,-216 180.5,-216 186.5,-222 186.5,-228 186.5,-228 186.5,-240 186.5,-240 186.5,-246 180.5,-252 174.5,-252"/>
<text text-anchor="middle" x="158.5" y="-231.5" font-family="sans" font-size="10.00">diag_sci</text>
</g>
<!-- 3&#45;&gt;5 -->
<g id="edge8" class="edge">
<title>3&#45;&gt;5</title>
<path fill="none" stroke="grey" stroke-width="2" d="M123.09,-359.87C120.16,-341.65 117.41,-312.17 124.5,-288 127.3,-278.45 132.41,-268.98 137.83,-260.76"/>
<polygon fill="grey" stroke="grey" stroke-width="2" points="140.85,-262.56 143.75,-252.37 135.12,-258.52 140.85,-262.56"/>
</g>
<!-- 6 -->
<g id="node7" class="node">
<title>6</title>
<path fill="none" stroke="#d85656" stroke-width="2" d="M246,-324C246,-324 145,-324 145,-324 139,-324 133,-318 133,-312 133,-312 133,-300 133,-300 133,-294 139,-288 145,-288 145,-288 246,-288 246,-288 252,-288 258,-294 258,-300 258,-300 258,-312 258,-312 258,-318 252,-324 246,-324"/>
<text text-anchor="middle" x="195.5" y="-303.5" font-family="sans" font-size="10.00">diag_thermodynamics</text>
</g>
<!-- 3&#45;&gt;6 -->
<g id="edge10" class="edge">
<title>3&#45;&gt;6</title>
<path fill="none" stroke="grey" stroke-width="2" d="M143.56,-359.7C152,-351.14 162.32,-340.66 171.54,-331.3"/>
<polygon fill="grey" stroke="grey" stroke-width="2" points="174.11,-333.68 178.64,-324.1 169.13,-328.77 174.11,-333.68"/>
</g>
<!-- 4 -->
<g id="node5" class="node">
<title>4</title>
<path fill="none" stroke="#56d892" stroke-width="2" d="M161,-468C161,-468 92,-468 92,-468 86,-468 80,-462 80,-456 80,-456 80,-444 80,-444 80,-438 86,-432 92,-432 92,-432 161,-432 161,-432 167,-432 173,-438 173,-444 173,-444 173,-456 173,-456 173,-462 167,-468 161,-468"/>
<text text-anchor="middle" x="126.5" y="-447.5" font-family="sans" font-size="10.00">process_delta_t</text>
</g>
<!-- 4&#45;&gt;2 -->
<g id="edge5" class="edge">
<title>4&#45;&gt;2</title>
<path fill="none" stroke="grey" stroke-width="2" d="M85.82,-431.88C70.98,-423.41 55.82,-411.59 47.5,-396 11.63,-328.75 38.61,-234.78 55.54,-189.48"/>
<polygon fill="grey" stroke="grey" stroke-width="2" points="58.83,-190.66 59.17,-180.07 52.3,-188.14 58.83,-190.66"/>
</g>
<!-- 4&#45;&gt;3 -->
<g id="edge6" class="edge">
<title>4&#45;&gt;3</title>
<path fill="none" stroke="grey" stroke-width="2" d="M126.5,-431.7C126.5,-423.98 126.5,-414.71 126.5,-406.11"/>
<polygon fill="grey" stroke="grey" stroke-width="2" points="130,-406.1 126.5,-396.1 123,-406.1 130,-406.1"/>
</g>
<!-- 4&#45;&gt;5 -->
<g id="edge9" class="edge">
<title>4&#45;&gt;5</title>
<path fill="none" stroke="grey" stroke-width="2" d="M160.48,-431.84C195.89,-411.68 248.77,-374.45 267.5,-324 273.07,-309 275.99,-301.56 267.5,-288 252.1,-263.39 221.63,-249.91 196.82,-242.71"/>
<polygon fill="grey" stroke="grey" stroke-width="2" points="197.5,-239.27 186.93,-240.08 195.7,-246.04 197.5,-239.27"/>
</g>
<!-- 5&#45;&gt;2 -->
<g id="edge4" class="edge">
<title>5&#45;&gt;2</title>
<path fill="none" stroke="grey" stroke-width="2" d="M135.76,-215.7C124.06,-206.8 109.64,-195.82 96.99,-186.2"/>
<polygon fill="grey" stroke="grey" stroke-width="2" points="99.06,-183.37 88.98,-180.1 94.82,-188.94 99.06,-183.37"/>
</g>
<!-- 6&#45;&gt;5 -->
<g id="edge7" class="edge">
<title>6&#45;&gt;5</title>
<path fill="none" stroke="grey" stroke-width="2" d="M186.35,-287.7C182.1,-279.64 176.94,-269.89 172.23,-260.98"/>
<polygon fill="grey" stroke="grey" stroke-width="2" points="175.31,-259.31 167.54,-252.1 169.12,-262.58 175.31,-259.31"/>
</g>
</g>
</svg>
