<?xml version="1.0" encoding="UTF-8" standalone="no"?>
<!DOCTYPE svg PUBLIC "-//W3C//DTD SVG 1.1//EN"
 "http://www.w3.org/Graphics/SVG/1.1/DTD/svg11.dtd">
<!-- Generated by graphviz version 2.43.0 (0)
 -->
<!-- Title: snakemake_dag Pages: 1 -->
<svg width="274pt" height="332pt"
 viewBox="0.00 0.00 274.41 332.00" xmlns="http://www.w3.org/2000/svg" xmlns:xlink="http://www.w3.org/1999/xlink">
<g id="graph0" class="graph" transform="scale(1 1) rotate(0) translate(4 328)">
<title>snakemake_dag</title>
<polygon fill="white" stroke="transparent" points="-4,4 -4,-328 270.41,-328 270.41,4 -4,4"/>
<!-- 0 -->
<g id="node1" class="node">
<title>0</title>
<path fill="none" stroke="#a7d856" stroke-width="2" d="M131.91,-36C131.91,-36 22.91,-36 22.91,-36 16.91,-36 10.91,-30 10.91,-24 10.91,-24 10.91,-12 10.91,-12 10.91,-6 16.91,0 22.91,0 22.91,0 131.91,0 131.91,0 137.91,0 143.91,-6 143.91,-12 143.91,-12 143.91,-24 143.91,-24 143.91,-30 137.91,-36 131.91,-36"/>
<text text-anchor="middle" x="77.41" y="-15.5" font-family="sans" font-size="10.00">paper_fig_from_number</text>
</g>
<!-- 1 -->
<g id="node2" class="node">
<title>1</title>
<path fill="none" stroke="#d8ac56" stroke-width="2" d="M116.91,-108C116.91,-108 37.91,-108 37.91,-108 31.91,-108 25.91,-102 25.91,-96 25.91,-96 25.91,-84 25.91,-84 25.91,-78 31.91,-72 37.91,-72 37.91,-72 116.91,-72 116.91,-72 122.91,-72 128.91,-78 128.91,-84 128.91,-84 128.91,-96 128.91,-96 128.91,-102 122.91,-108 116.91,-108"/>
<text text-anchor="middle" x="77.41" y="-87.5" font-family="sans" font-size="10.00">plot_config_paper</text>
</g>
<!-- 1&#45;&gt;0 -->
<g id="edge1" class="edge">
<title>1&#45;&gt;0</title>
<path fill="none" stroke="grey" stroke-width="2" d="M77.41,-71.7C77.41,-63.98 77.41,-54.71 77.41,-46.11"/>
<polygon fill="grey" stroke="grey" stroke-width="2" points="80.91,-46.1 77.41,-36.1 73.91,-46.1 80.91,-46.1"/>
</g>
<!-- 2 -->
<g id="node3" class="node">
<title>2</title>
<path fill="none" stroke="#568ad8" stroke-width="2" d="M135.41,-252C135.41,-252 19.41,-252 19.41,-252 13.41,-252 7.41,-246 7.41,-240 7.41,-240 7.41,-228 7.41,-228 7.41,-222 13.41,-216 19.41,-216 19.41,-216 135.41,-216 135.41,-216 141.41,-216 147.41,-222 147.41,-228 147.41,-228 147.41,-240 147.41,-240 147.41,-246 141.41,-252 135.41,-252"/>
<text text-anchor="middle" x="77.41" y="-231.5" font-family="sans" font-size="10.00">process_with_xnemogcm</text>
</g>
<!-- 2&#45;&gt;1 -->
<g id="edge4" class="edge">
<title>2&#45;&gt;1</title>
<path fill="none" stroke="grey" stroke-width="2" d="M41.39,-215.81C27.5,-207.16 13.12,-195.24 5.41,-180 -1.8,-165.72 -1.8,-158.28 5.41,-144 11.55,-131.86 21.93,-121.82 32.92,-113.86"/>
<polygon fill="grey" stroke="grey" stroke-width="2" points="35.03,-116.66 41.39,-108.19 31.13,-110.85 35.03,-116.66"/>
</g>
<!-- 4 -->
<g id="node5" class="node">
<title>4</title>
<path fill="none" stroke="#56d8c9" stroke-width="2" d="M127.91,-180C127.91,-180 26.91,-180 26.91,-180 20.91,-180 14.91,-174 14.91,-168 14.91,-168 14.91,-156 14.91,-156 14.91,-150 20.91,-144 26.91,-144 26.91,-144 127.91,-144 127.91,-144 133.91,-144 139.91,-150 139.91,-156 139.91,-156 139.91,-168 139.91,-168 139.91,-174 133.91,-180 127.91,-180"/>
<text text-anchor="middle" x="77.41" y="-159.5" font-family="sans" font-size="10.00">diag_thermodynamics</text>
</g>
<!-- 2&#45;&gt;4 -->
<g id="edge6" class="edge">
<title>2&#45;&gt;4</title>
<path fill="none" stroke="grey" stroke-width="2" d="M77.41,-215.7C77.41,-207.98 77.41,-198.71 77.41,-190.11"/>
<polygon fill="grey" stroke="grey" stroke-width="2" points="80.91,-190.1 77.41,-180.1 73.91,-190.1 80.91,-190.1"/>
</g>
<!-- 5 -->
<g id="node6" class="node">
<title>5</title>
<path fill="none" stroke="#c6d856" stroke-width="2" d="M254.41,-180C254.41,-180 170.41,-180 170.41,-180 164.41,-180 158.41,-174 158.41,-168 158.41,-168 158.41,-156 158.41,-156 158.41,-150 164.41,-144 170.41,-144 170.41,-144 254.41,-144 254.41,-144 260.41,-144 266.41,-150 266.41,-156 266.41,-156 266.41,-168 266.41,-168 266.41,-174 260.41,-180 254.41,-180"/>
<text text-anchor="middle" x="212.41" y="-159.5" font-family="sans" font-size="10.00">diag_forcing_fields</text>
</g>
<!-- 2&#45;&gt;5 -->
<g id="edge7" class="edge">
<title>2&#45;&gt;5</title>
<path fill="none" stroke="grey" stroke-width="2" d="M110.44,-215.88C128.5,-206.51 151.06,-194.81 170.37,-184.8"/>
<polygon fill="grey" stroke="grey" stroke-width="2" points="172,-187.9 179.26,-180.19 168.77,-181.69 172,-187.9"/>
</g>
<!-- 3 -->
<g id="node4" class="node">
<title>3</title>
<path fill="none" stroke="#56a9d8" stroke-width="2" d="M111.91,-324C111.91,-324 42.91,-324 42.91,-324 36.91,-324 30.91,-318 30.91,-312 30.91,-312 30.91,-300 30.91,-300 30.91,-294 36.91,-288 42.91,-288 42.91,-288 111.91,-288 111.91,-288 117.91,-288 123.91,-294 123.91,-300 123.91,-300 123.91,-312 123.91,-312 123.91,-318 117.91,-324 111.91,-324"/>
<text text-anchor="middle" x="77.41" y="-303.5" font-family="sans" font-size="10.00">process_delta_t</text>
</g>
<!-- 3&#45;&gt;2 -->
<g id="edge5" class="edge">
<title>3&#45;&gt;2</title>
<path fill="none" stroke="grey" stroke-width="2" d="M77.41,-287.7C77.41,-279.98 77.41,-270.71 77.41,-262.11"/>
<polygon fill="grey" stroke="grey" stroke-width="2" points="80.91,-262.1 77.41,-252.1 73.91,-262.1 80.91,-262.1"/>
</g>
<!-- 4&#45;&gt;1 -->
<g id="edge3" class="edge">
<title>4&#45;&gt;1</title>
<path fill="none" stroke="grey" stroke-width="2" d="M77.41,-143.7C77.41,-135.98 77.41,-126.71 77.41,-118.11"/>
<polygon fill="grey" stroke="grey" stroke-width="2" points="80.91,-118.1 77.41,-108.1 73.91,-118.1 80.91,-118.1"/>
</g>
<!-- 5&#45;&gt;1 -->
<g id="edge2" class="edge">
<title>5&#45;&gt;1</title>
<path fill="none" stroke="grey" stroke-width="2" d="M179.39,-143.88C161.33,-134.51 138.77,-122.81 119.46,-112.8"/>
<polygon fill="grey" stroke="grey" stroke-width="2" points="121.05,-109.69 110.57,-108.19 117.83,-115.9 121.05,-109.69"/>
</g>
</g>
</svg>
