<?xml version="1.0" encoding="UTF-8" standalone="no"?>
<!DOCTYPE svg PUBLIC "-//W3C//DTD SVG 1.1//EN"
 "http://www.w3.org/Graphics/SVG/1.1/DTD/svg11.dtd">
<!-- Generated by graphviz version 2.43.0 (0)
 -->
<!-- Title: snakemake_dag Pages: 1 -->
<svg width="257pt" height="404pt"
 viewBox="0.00 0.00 256.96 404.00" xmlns="http://www.w3.org/2000/svg" xmlns:xlink="http://www.w3.org/1999/xlink">
<g id="graph0" class="graph" transform="scale(1 1) rotate(0) translate(4 400)">
<title>snakemake_dag</title>
<polygon fill="white" stroke="transparent" points="-4,4 -4,-400 252.96,-400 252.96,4 -4,4"/>
<!-- 0 -->
<g id="node1" class="node">
<title>0</title>
<path fill="none" stroke="#d8d356" stroke-width="2" d="M121,-36C121,-36 12,-36 12,-36 6,-36 0,-30 0,-24 0,-24 0,-12 0,-12 0,-6 6,0 12,0 12,0 121,0 121,0 127,0 133,-6 133,-12 133,-12 133,-24 133,-24 133,-30 127,-36 121,-36"/>
<text text-anchor="middle" x="66.5" y="-15.5" font-family="sans" font-size="10.00">paper_fig_from_number</text>
</g>
<!-- 1 -->
<g id="node2" class="node">
<title>1</title>
<path fill="none" stroke="#56d89a" stroke-width="2" d="M104.5,-108C104.5,-108 28.5,-108 28.5,-108 22.5,-108 16.5,-102 16.5,-96 16.5,-96 16.5,-84 16.5,-84 16.5,-78 22.5,-72 28.5,-72 28.5,-72 104.5,-72 104.5,-72 110.5,-72 116.5,-78 116.5,-84 116.5,-84 116.5,-96 116.5,-96 116.5,-102 110.5,-108 104.5,-108"/>
<text text-anchor="middle" x="66.5" y="-87.5" font-family="sans" font-size="10.00">plot_mld_sci_ssh</text>
</g>
<!-- 1&#45;&gt;0 -->
<g id="edge1" class="edge">
<title>1&#45;&gt;0</title>
<path fill="none" stroke="grey" stroke-width="2" d="M66.5,-71.7C66.5,-63.98 66.5,-54.71 66.5,-46.11"/>
<polygon fill="grey" stroke="grey" stroke-width="2" points="70,-46.1 66.5,-36.1 63,-46.1 70,-46.1"/>
</g>
<!-- 2 -->
<g id="node3" class="node">
<title>2</title>
<path fill="none" stroke="#d8b456" stroke-width="2" d="M176.5,-324C176.5,-324 60.5,-324 60.5,-324 54.5,-324 48.5,-318 48.5,-312 48.5,-312 48.5,-300 48.5,-300 48.5,-294 54.5,-288 60.5,-288 60.5,-288 176.5,-288 176.5,-288 182.5,-288 188.5,-294 188.5,-300 188.5,-300 188.5,-312 188.5,-312 188.5,-318 182.5,-324 176.5,-324"/>
<text text-anchor="middle" x="118.5" y="-303.5" font-family="sans" font-size="10.00">process_with_xnemogcm</text>
</g>
<!-- 2&#45;&gt;1 -->
<g id="edge3" class="edge">
<title>2&#45;&gt;1</title>
<path fill="none" stroke="grey" stroke-width="2" d="M106.89,-287.58C100.76,-277.57 93.67,-264.54 89.5,-252 74.44,-206.75 69.24,-151.12 67.45,-118.51"/>
<polygon fill="grey" stroke="grey" stroke-width="2" points="70.93,-118.2 66.96,-108.38 63.94,-118.54 70.93,-118.2"/>
</g>
<!-- 4 -->
<g id="node5" class="node">
<title>4</title>
<path fill="none" stroke="#70d856" stroke-width="2" d="M146.5,-180C146.5,-180 114.5,-180 114.5,-180 108.5,-180 102.5,-174 102.5,-168 102.5,-168 102.5,-156 102.5,-156 102.5,-150 108.5,-144 114.5,-144 114.5,-144 146.5,-144 146.5,-144 152.5,-144 158.5,-150 158.5,-156 158.5,-156 158.5,-168 158.5,-168 158.5,-174 152.5,-180 146.5,-180"/>
<text text-anchor="middle" x="130.5" y="-159.5" font-family="sans" font-size="10.00">diag_sci</text>
</g>
<!-- 2&#45;&gt;4 -->
<g id="edge7" class="edge">
<title>2&#45;&gt;4</title>
<path fill="none" stroke="grey" stroke-width="2" d="M108.85,-287.82C99.98,-269.81 89.25,-240.74 96.5,-216 99.3,-206.45 104.41,-196.98 109.83,-188.76"/>
<polygon fill="grey" stroke="grey" stroke-width="2" points="112.85,-190.56 115.75,-180.37 107.12,-186.52 112.85,-190.56"/>
</g>
<!-- 5 -->
<g id="node6" class="node">
<title>5</title>
<path fill="none" stroke="#d8ac56" stroke-width="2" d="M218,-252C218,-252 117,-252 117,-252 111,-252 105,-246 105,-240 105,-240 105,-228 105,-228 105,-222 111,-216 117,-216 117,-216 218,-216 218,-216 224,-216 230,-222 230,-228 230,-228 230,-240 230,-240 230,-246 224,-252 218,-252"/>
<text text-anchor="middle" x="167.5" y="-231.5" font-family="sans" font-size="10.00">diag_thermodynamics</text>
</g>
<!-- 2&#45;&gt;5 -->
<g id="edge8" class="edge">
<title>2&#45;&gt;5</title>
<path fill="none" stroke="grey" stroke-width="2" d="M130.61,-287.7C136.37,-279.47 143.36,-269.48 149.71,-260.42"/>
<polygon fill="grey" stroke="grey" stroke-width="2" points="152.66,-262.3 155.53,-252.1 146.92,-258.29 152.66,-262.3"/>
</g>
<!-- 3 -->
<g id="node4" class="node">
<title>3</title>
<path fill="none" stroke="#5692d8" stroke-width="2" d="M202,-396C202,-396 133,-396 133,-396 127,-396 121,-390 121,-384 121,-384 121,-372 121,-372 121,-366 127,-360 133,-360 133,-360 202,-360 202,-360 208,-360 214,-366 214,-372 214,-372 214,-384 214,-384 214,-390 208,-396 202,-396"/>
<text text-anchor="middle" x="167.5" y="-375.5" font-family="sans" font-size="10.00">process_delta_t</text>
</g>
<!-- 3&#45;&gt;2 -->
<g id="edge4" class="edge">
<title>3&#45;&gt;2</title>
<path fill="none" stroke="grey" stroke-width="2" d="M155.39,-359.7C149.63,-351.47 142.64,-341.48 136.29,-332.42"/>
<polygon fill="grey" stroke="grey" stroke-width="2" points="139.08,-330.29 130.47,-324.1 133.34,-334.3 139.08,-330.29"/>
</g>
<!-- 3&#45;&gt;4 -->
<g id="edge6" class="edge">
<title>3&#45;&gt;4</title>
<path fill="none" stroke="grey" stroke-width="2" d="M186.02,-359.77C216.32,-329.43 270.2,-265.06 239.5,-216 224.1,-191.39 193.63,-177.91 168.82,-170.71"/>
<polygon fill="grey" stroke="grey" stroke-width="2" points="169.5,-167.27 158.93,-168.08 167.7,-174.04 169.5,-167.27"/>
</g>
<!-- 4&#45;&gt;1 -->
<g id="edge2" class="edge">
<title>4&#45;&gt;1</title>
<path fill="none" stroke="grey" stroke-width="2" d="M114.68,-143.7C106.93,-135.22 97.46,-124.86 88.98,-115.58"/>
<polygon fill="grey" stroke="grey" stroke-width="2" points="91.47,-113.12 82.14,-108.1 86.3,-117.85 91.47,-113.12"/>
</g>
<!-- 5&#45;&gt;4 -->
<g id="edge5" class="edge">
<title>5&#45;&gt;4</title>
<path fill="none" stroke="grey" stroke-width="2" d="M158.35,-215.7C154.1,-207.64 148.94,-197.89 144.23,-188.98"/>
<polygon fill="grey" stroke="grey" stroke-width="2" points="147.31,-187.31 139.54,-180.1 141.12,-190.58 147.31,-187.31"/>
</g>
</g>
</svg>
