<?xml version="1.0" encoding="UTF-8" standalone="no"?>
<!DOCTYPE svg PUBLIC "-//W3C//DTD SVG 1.1//EN"
 "http://www.w3.org/Graphics/SVG/1.1/DTD/svg11.dtd">
<!-- Generated by graphviz version 2.43.0 (0)
 -->
<!-- Title: snakemake_dag Pages: 1 -->
<svg width="308pt" height="332pt"
 viewBox="0.00 0.00 307.50 332.00" xmlns="http://www.w3.org/2000/svg" xmlns:xlink="http://www.w3.org/1999/xlink">
<g id="graph0" class="graph" transform="scale(1 1) rotate(0) translate(4 328)">
<title>snakemake_dag</title>
<polygon fill="white" stroke="transparent" points="-4,4 -4,-328 303.5,-328 303.5,4 -4,4"/>
<!-- 0 -->
<g id="node1" class="node">
<title>0</title>
<path fill="none" stroke="#d85e56" stroke-width="2" d="M204,-36C204,-36 95,-36 95,-36 89,-36 83,-30 83,-24 83,-24 83,-12 83,-12 83,-6 89,0 95,0 95,0 204,0 204,0 210,0 216,-6 216,-12 216,-12 216,-24 216,-24 216,-30 210,-36 204,-36"/>
<text text-anchor="middle" x="149.5" y="-15.5" font-family="sans" font-size="10.00">paper_fig_from_number</text>
</g>
<!-- 1 -->
<g id="node2" class="node">
<title>1</title>
<path fill="none" stroke="#5682d8" stroke-width="2" d="M195.5,-108C195.5,-108 103.5,-108 103.5,-108 97.5,-108 91.5,-102 91.5,-96 91.5,-96 91.5,-84 91.5,-84 91.5,-78 97.5,-72 103.5,-72 103.5,-72 195.5,-72 195.5,-72 201.5,-72 207.5,-78 207.5,-84 207.5,-84 207.5,-96 207.5,-96 207.5,-102 201.5,-108 195.5,-108"/>
<text text-anchor="middle" x="149.5" y="-87.5" font-family="sans" font-size="10.00">plot_variation_alpha</text>
</g>
<!-- 1&#45;&gt;0 -->
<g id="edge1" class="edge">
<title>1&#45;&gt;0</title>
<path fill="none" stroke="grey" stroke-width="2" d="M149.5,-71.7C149.5,-63.98 149.5,-54.71 149.5,-46.11"/>
<polygon fill="grey" stroke="grey" stroke-width="2" points="153,-46.1 149.5,-36.1 146,-46.1 153,-46.1"/>
</g>
<!-- 2 -->
<g id="node3" class="node">
<title>2</title>
<path fill="none" stroke="#56d8b1" stroke-width="2" d="M129,-180C129,-180 12,-180 12,-180 6,-180 0,-174 0,-168 0,-168 0,-156 0,-156 0,-150 6,-144 12,-144 12,-144 129,-144 129,-144 135,-144 141,-150 141,-156 141,-156 141,-168 141,-168 141,-174 135,-180 129,-180"/>
<text text-anchor="middle" x="70.5" y="-159.5" font-family="sans" font-size="10.00">diag_alpha_function_of_T</text>
</g>
<!-- 2&#45;&gt;1 -->
<g id="edge3" class="edge">
<title>2&#45;&gt;1</title>
<path fill="none" stroke="grey" stroke-width="2" d="M90.03,-143.7C99.88,-134.97 111.99,-124.24 122.7,-114.75"/>
<polygon fill="grey" stroke="grey" stroke-width="2" points="125.03,-117.36 130.2,-108.1 120.39,-112.12 125.03,-117.36"/>
</g>
<!-- 3 -->
<g id="node4" class="node">
<title>3</title>
<path fill="none" stroke="#56d863" stroke-width="2" d="M207.5,-252C207.5,-252 91.5,-252 91.5,-252 85.5,-252 79.5,-246 79.5,-240 79.5,-240 79.5,-228 79.5,-228 79.5,-222 85.5,-216 91.5,-216 91.5,-216 207.5,-216 207.5,-216 213.5,-216 219.5,-222 219.5,-228 219.5,-228 219.5,-240 219.5,-240 219.5,-246 213.5,-252 207.5,-252"/>
<text text-anchor="middle" x="149.5" y="-231.5" font-family="sans" font-size="10.00">process_with_xnemogcm</text>
</g>
<!-- 3&#45;&gt;2 -->
<g id="edge4" class="edge">
<title>3&#45;&gt;2</title>
<path fill="none" stroke="grey" stroke-width="2" d="M129.97,-215.7C120.12,-206.97 108.01,-196.24 97.3,-186.75"/>
<polygon fill="grey" stroke="grey" stroke-width="2" points="99.61,-184.12 89.8,-180.1 94.97,-189.36 99.61,-184.12"/>
</g>
<!-- 5 -->
<g id="node6" class="node">
<title>5</title>
<path fill="none" stroke="#68d856" stroke-width="2" d="M287.5,-180C287.5,-180 171.5,-180 171.5,-180 165.5,-180 159.5,-174 159.5,-168 159.5,-168 159.5,-156 159.5,-156 159.5,-150 165.5,-144 171.5,-144 171.5,-144 287.5,-144 287.5,-144 293.5,-144 299.5,-150 299.5,-156 299.5,-156 299.5,-168 299.5,-168 299.5,-174 293.5,-180 287.5,-180"/>
<text text-anchor="middle" x="229.5" y="-159.5" font-family="sans" font-size="10.00">process_exp_short_name</text>
</g>
<!-- 3&#45;&gt;5 -->
<g id="edge6" class="edge">
<title>3&#45;&gt;5</title>
<path fill="none" stroke="grey" stroke-width="2" d="M169.28,-215.7C179.25,-206.97 191.51,-196.24 202.36,-186.75"/>
<polygon fill="grey" stroke="grey" stroke-width="2" points="204.73,-189.32 209.95,-180.1 200.12,-184.06 204.73,-189.32"/>
</g>
<!-- 4 -->
<g id="node5" class="node">
<title>4</title>
<path fill="none" stroke="#ced856" stroke-width="2" d="M184,-324C184,-324 115,-324 115,-324 109,-324 103,-318 103,-312 103,-312 103,-300 103,-300 103,-294 109,-288 115,-288 115,-288 184,-288 184,-288 190,-288 196,-294 196,-300 196,-300 196,-312 196,-312 196,-318 190,-324 184,-324"/>
<text text-anchor="middle" x="149.5" y="-303.5" font-family="sans" font-size="10.00">process_delta_t</text>
</g>
<!-- 4&#45;&gt;3 -->
<g id="edge5" class="edge">
<title>4&#45;&gt;3</title>
<path fill="none" stroke="grey" stroke-width="2" d="M149.5,-287.7C149.5,-279.98 149.5,-270.71 149.5,-262.11"/>
<polygon fill="grey" stroke="grey" stroke-width="2" points="153,-262.1 149.5,-252.1 146,-262.1 153,-262.1"/>
</g>
<!-- 5&#45;&gt;1 -->
<g id="edge2" class="edge">
<title>5&#45;&gt;1</title>
<path fill="none" stroke="grey" stroke-width="2" d="M209.72,-143.7C199.75,-134.97 187.49,-124.24 176.64,-114.75"/>
<polygon fill="grey" stroke="grey" stroke-width="2" points="178.88,-112.06 169.05,-108.1 174.27,-117.32 178.88,-112.06"/>
</g>
</g>
</svg>
