<?xml version="1.0" encoding="UTF-8" standalone="no"?>
<!DOCTYPE svg PUBLIC "-//W3C//DTD SVG 1.1//EN"
 "http://www.w3.org/Graphics/SVG/1.1/DTD/svg11.dtd">
<!-- Generated by graphviz version 2.43.0 (0)
 -->
<!-- Title: snakemake_dag Pages: 1 -->
<svg width="3068pt" height="409pt"
 viewBox="0.00 0.00 3068.00 409.00" xmlns="http://www.w3.org/2000/svg" xmlns:xlink="http://www.w3.org/1999/xlink">
<g id="graph0" class="graph" transform="scale(1 1) rotate(0) translate(4 405)">
<title>snakemake_dag</title>
<polygon fill="white" stroke="transparent" points="-4,4 -4,-405 3064,-405 3064,4 -4,4"/>
<!-- 0 -->
<g id="node1" class="node">
<title>0</title>
<path fill="none" stroke="#56d8c1" stroke-width="2" d="M1549.5,-36C1549.5,-36 1440.5,-36 1440.5,-36 1434.5,-36 1428.5,-30 1428.5,-24 1428.5,-24 1428.5,-12 1428.5,-12 1428.5,-6 1434.5,0 1440.5,0 1440.5,0 1549.5,0 1549.5,0 1555.5,0 1561.5,-6 1561.5,-12 1561.5,-12 1561.5,-24 1561.5,-24 1561.5,-30 1555.5,-36 1549.5,-36"/>
<text text-anchor="middle" x="1495" y="-21" font-family="sans" font-size="10.00">paper_fig_from_number</text>
<text text-anchor="middle" x="1495" y="-10" font-family="sans" font-size="10.00">n: 9</text>
</g>
<!-- 1 -->
<g id="node2" class="node">
<title>1</title>
<path fill="none" stroke="#d8cb56" stroke-width="2" stroke-dasharray="5,2" d="M1524.5,-108C1524.5,-108 1465.5,-108 1465.5,-108 1459.5,-108 1453.5,-102 1453.5,-96 1453.5,-96 1453.5,-84 1453.5,-84 1453.5,-78 1459.5,-72 1465.5,-72 1465.5,-72 1524.5,-72 1524.5,-72 1530.5,-72 1536.5,-78 1536.5,-84 1536.5,-84 1536.5,-96 1536.5,-96 1536.5,-102 1530.5,-108 1524.5,-108"/>
<text text-anchor="middle" x="1495" y="-87.5" font-family="sans" font-size="10.00">plot_fb_comp</text>
</g>
<!-- 1&#45;&gt;0 -->
<g id="edge1" class="edge">
<title>1&#45;&gt;0</title>
<path fill="none" stroke="grey" stroke-width="2" d="M1495,-71.7C1495,-63.98 1495,-54.71 1495,-46.11"/>
<polygon fill="grey" stroke="grey" stroke-width="2" points="1498.5,-46.1 1495,-36.1 1491.5,-46.1 1498.5,-46.1"/>
</g>
<!-- 2 -->
<g id="node3" class="node">
<title>2</title>
<path fill="none" stroke="#d85e56" stroke-width="2" stroke-dasharray="5,2" d="M409,-324C409,-324 293,-324 293,-324 287,-324 281,-318 281,-312 281,-312 281,-300 281,-300 281,-294 287,-288 293,-288 293,-288 409,-288 409,-288 415,-288 421,-294 421,-300 421,-300 421,-312 421,-312 421,-318 415,-324 409,-324"/>
<text text-anchor="middle" x="351" y="-303.5" font-family="sans" font-size="10.00">process_with_xnemogcm</text>
</g>
<!-- 2&#45;&gt;1 -->
<g id="edge2" class="edge">
<title>2&#45;&gt;1</title>
<path fill="none" stroke="grey" stroke-width="2" d="M280.89,-300.9C246.73,-294.94 208.48,-281.52 187,-252 155.06,-208.12 195.65,-168.67 244,-144 351.93,-88.94 1220.79,-89.58 1443.26,-90.67"/>
<polygon fill="grey" stroke="grey" stroke-width="2" points="1443.34,-94.17 1453.36,-90.72 1443.38,-87.17 1443.34,-94.17"/>
</g>
<!-- 12 -->
<g id="node13" class="node">
<title>12</title>
<path fill="none" stroke="#56c9d8" stroke-width="2" stroke-dasharray="5,2" d="M292,-252C292,-252 208,-252 208,-252 202,-252 196,-246 196,-240 196,-240 196,-228 196,-228 196,-222 202,-216 208,-216 208,-216 292,-216 292,-216 298,-216 304,-222 304,-228 304,-228 304,-240 304,-240 304,-246 298,-252 292,-252"/>
<text text-anchor="middle" x="250" y="-231.5" font-family="sans" font-size="10.00">diag_forcing_fields</text>
</g>
<!-- 2&#45;&gt;12 -->
<g id="edge37" class="edge">
<title>2&#45;&gt;12</title>
<path fill="none" stroke="grey" stroke-width="2" d="M326.29,-287.88C313.33,-278.89 297.27,-267.76 283.23,-258.03"/>
<polygon fill="grey" stroke="grey" stroke-width="2" points="285.02,-255.01 274.8,-252.19 281.03,-260.76 285.02,-255.01"/>
</g>
<!-- 17 -->
<g id="node18" class="node">
<title>17</title>
<path fill="none" stroke="#56d863" stroke-width="2" stroke-dasharray="5,2" d="M616,-180C616,-180 584,-180 584,-180 578,-180 572,-174 572,-168 572,-168 572,-156 572,-156 572,-150 578,-144 584,-144 584,-144 616,-144 616,-144 622,-144 628,-150 628,-156 628,-156 628,-168 628,-168 628,-174 622,-180 616,-180"/>
<text text-anchor="middle" x="600" y="-159.5" font-family="sans" font-size="10.00">diag_sci</text>
</g>
<!-- 2&#45;&gt;17 -->
<g id="edge42" class="edge">
<title>2&#45;&gt;17</title>
<path fill="none" stroke="grey" stroke-width="2" d="M421.23,-295.13C456.77,-287.6 499.2,-274.52 532,-252 555.53,-235.85 574.43,-208.97 586.27,-188.96"/>
<polygon fill="grey" stroke="grey" stroke-width="2" points="589.44,-190.47 591.36,-180.05 583.36,-187 589.44,-190.47"/>
</g>
<!-- 18 -->
<g id="node19" class="node">
<title>18</title>
<path fill="none" stroke="#d86e56" stroke-width="2" stroke-dasharray="5,2" d="M511.5,-252C511.5,-252 410.5,-252 410.5,-252 404.5,-252 398.5,-246 398.5,-240 398.5,-240 398.5,-228 398.5,-228 398.5,-222 404.5,-216 410.5,-216 410.5,-216 511.5,-216 511.5,-216 517.5,-216 523.5,-222 523.5,-228 523.5,-228 523.5,-240 523.5,-240 523.5,-246 517.5,-252 511.5,-252"/>
<text text-anchor="middle" x="461" y="-231.5" font-family="sans" font-size="10.00">diag_thermodynamics</text>
</g>
<!-- 2&#45;&gt;18 -->
<g id="edge45" class="edge">
<title>2&#45;&gt;18</title>
<path fill="none" stroke="grey" stroke-width="2" d="M377.91,-287.88C392.16,-278.81 409.85,-267.55 425.24,-257.76"/>
<polygon fill="grey" stroke="grey" stroke-width="2" points="427.43,-260.51 433.99,-252.19 423.67,-254.61 427.43,-260.51"/>
</g>
<!-- 27 -->
<g id="node28" class="node">
<title>27</title>
<path fill="none" stroke="#d8b456" stroke-width="2" stroke-dasharray="5,2" d="M541.5,-180C541.5,-180 428.5,-180 428.5,-180 422.5,-180 416.5,-174 416.5,-168 416.5,-168 416.5,-156 416.5,-156 416.5,-150 422.5,-144 428.5,-144 428.5,-144 541.5,-144 541.5,-144 547.5,-144 553.5,-150 553.5,-156 553.5,-156 553.5,-168 553.5,-168 553.5,-174 547.5,-180 541.5,-180"/>
<text text-anchor="middle" x="485" y="-159.5" font-family="sans" font-size="10.00">diag_average_properties</text>
</g>
<!-- 2&#45;&gt;27 -->
<g id="edge62" class="edge">
<title>2&#45;&gt;27</title>
<path fill="none" stroke="grey" stroke-width="2" d="M354.76,-287.76C359.75,-268.35 370.19,-236.81 389,-216 400.52,-203.25 415.86,-192.9 430.88,-184.85"/>
<polygon fill="grey" stroke="grey" stroke-width="2" points="432.83,-187.78 440.16,-180.13 429.66,-181.54 432.83,-187.78"/>
</g>
<!-- 32 -->
<g id="node33" class="node">
<title>32</title>
<path fill="none" stroke="#d8ac56" stroke-width="2" stroke-dasharray="5,2" d="M386,-180C386,-180 286,-180 286,-180 280,-180 274,-174 274,-168 274,-168 274,-156 274,-156 274,-150 280,-144 286,-144 286,-144 386,-144 386,-144 392,-144 398,-150 398,-156 398,-156 398,-168 398,-168 398,-174 392,-180 386,-180"/>
<text text-anchor="middle" x="336" y="-159.5" font-family="sans" font-size="10.00">diag_buoyancy_fluxes</text>
</g>
<!-- 2&#45;&gt;32 -->
<g id="edge72" class="edge">
<title>2&#45;&gt;32</title>
<path fill="none" stroke="grey" stroke-width="2" d="M349.19,-287.87C346.63,-263.67 341.94,-219.21 338.89,-190.39"/>
<polygon fill="grey" stroke="grey" stroke-width="2" points="342.35,-189.77 337.82,-180.19 335.39,-190.5 342.35,-189.77"/>
</g>
<!-- 37 -->
<g id="node38" class="node">
<title>37</title>
<path fill="none" stroke="#80d856" stroke-width="2" stroke-dasharray="5,2" d="M128,-252C128,-252 12,-252 12,-252 6,-252 0,-246 0,-240 0,-240 0,-228 0,-228 0,-222 6,-216 12,-216 12,-216 128,-216 128,-216 134,-216 140,-222 140,-228 140,-228 140,-240 140,-240 140,-246 134,-252 128,-252"/>
<text text-anchor="middle" x="70" y="-231.5" font-family="sans" font-size="10.00">process_exp_short_name</text>
</g>
<!-- 2&#45;&gt;37 -->
<g id="edge82" class="edge">
<title>2&#45;&gt;37</title>
<path fill="none" stroke="grey" stroke-width="2" d="M282.62,-287.97C242.16,-277.89 190.76,-265.08 148.63,-254.59"/>
<polygon fill="grey" stroke="grey" stroke-width="2" points="149.24,-251.13 138.69,-252.11 147.55,-257.92 149.24,-251.13"/>
</g>
<!-- 3 -->
<g id="node4" class="node">
<title>3</title>
<path fill="none" stroke="#56d8d0" stroke-width="2" stroke-dasharray="5,2" d="M571,-401C571,-401 371,-401 371,-401 365,-401 359,-395 359,-389 359,-389 359,-372 359,-372 359,-366 365,-360 371,-360 371,-360 571,-360 571,-360 577,-360 583,-366 583,-372 583,-372 583,-389 583,-389 583,-395 577,-401 571,-401"/>
<text text-anchor="middle" x="471" y="-389" font-family="sans" font-size="10.00">process_delta_t</text>
<text text-anchor="middle" x="471" y="-378" font-family="sans" font-size="10.00">config: EXP_rn_lambda1_0.06_rn_a0_0.165</text>
<text text-anchor="middle" x="471" y="-367" font-family="sans" font-size="10.00">exp: EXP_main</text>
</g>
<!-- 3&#45;&gt;2 -->
<g id="edge32" class="edge">
<title>3&#45;&gt;2</title>
<path fill="none" stroke="grey" stroke-width="2" d="M438.53,-359.88C422.95,-350.47 404.21,-339.15 388.07,-329.4"/>
<polygon fill="grey" stroke="grey" stroke-width="2" points="389.78,-326.34 379.41,-324.17 386.16,-332.33 389.78,-326.34"/>
</g>
<!-- 3&#45;&gt;17 -->
<g id="edge44" class="edge">
<title>3&#45;&gt;17</title>
<path fill="none" stroke="grey" stroke-width="2" d="M487.77,-359.78C507.79,-335.58 541.37,-292.71 564,-252 575.08,-232.06 584.61,-207.99 591.07,-189.92"/>
<polygon fill="grey" stroke="grey" stroke-width="2" points="594.44,-190.9 594.42,-180.3 587.83,-188.59 594.44,-190.9"/>
</g>
<!-- 4 -->
<g id="node5" class="node">
<title>4</title>
<path fill="none" stroke="#d85e56" stroke-width="2" stroke-dasharray="5,2" d="M1027,-324C1027,-324 911,-324 911,-324 905,-324 899,-318 899,-312 899,-312 899,-300 899,-300 899,-294 905,-288 911,-288 911,-288 1027,-288 1027,-288 1033,-288 1039,-294 1039,-300 1039,-300 1039,-312 1039,-312 1039,-318 1033,-324 1027,-324"/>
<text text-anchor="middle" x="969" y="-303.5" font-family="sans" font-size="10.00">process_with_xnemogcm</text>
</g>
<!-- 4&#45;&gt;1 -->
<g id="edge3" class="edge">
<title>4&#45;&gt;1</title>
<path fill="none" stroke="grey" stroke-width="2" d="M898.89,-300.9C864.73,-294.94 826.48,-281.52 805,-252 773.06,-208.12 814.17,-169.66 862,-144 912.66,-116.82 1300.81,-98.75 1443.01,-92.99"/>
<polygon fill="grey" stroke="grey" stroke-width="2" points="1443.36,-96.48 1453.21,-92.58 1443.08,-89.48 1443.36,-96.48"/>
</g>
<!-- 13 -->
<g id="node14" class="node">
<title>13</title>
<path fill="none" stroke="#56c9d8" stroke-width="2" stroke-dasharray="5,2" d="M910,-252C910,-252 826,-252 826,-252 820,-252 814,-246 814,-240 814,-240 814,-228 814,-228 814,-222 820,-216 826,-216 826,-216 910,-216 910,-216 916,-216 922,-222 922,-228 922,-228 922,-240 922,-240 922,-246 916,-252 910,-252"/>
<text text-anchor="middle" x="868" y="-231.5" font-family="sans" font-size="10.00">diag_forcing_fields</text>
</g>
<!-- 4&#45;&gt;13 -->
<g id="edge38" class="edge">
<title>4&#45;&gt;13</title>
<path fill="none" stroke="grey" stroke-width="2" d="M944.29,-287.88C931.33,-278.89 915.27,-267.76 901.23,-258.03"/>
<polygon fill="grey" stroke="grey" stroke-width="2" points="903.02,-255.01 892.8,-252.19 899.03,-260.76 903.02,-255.01"/>
</g>
<!-- 19 -->
<g id="node20" class="node">
<title>19</title>
<path fill="none" stroke="#56d863" stroke-width="2" stroke-dasharray="5,2" d="M1234,-180C1234,-180 1202,-180 1202,-180 1196,-180 1190,-174 1190,-168 1190,-168 1190,-156 1190,-156 1190,-150 1196,-144 1202,-144 1202,-144 1234,-144 1234,-144 1240,-144 1246,-150 1246,-156 1246,-156 1246,-168 1246,-168 1246,-174 1240,-180 1234,-180"/>
<text text-anchor="middle" x="1218" y="-159.5" font-family="sans" font-size="10.00">diag_sci</text>
</g>
<!-- 4&#45;&gt;19 -->
<g id="edge46" class="edge">
<title>4&#45;&gt;19</title>
<path fill="none" stroke="grey" stroke-width="2" d="M1039.23,-295.13C1074.77,-287.6 1117.2,-274.52 1150,-252 1173.53,-235.85 1192.43,-208.97 1204.27,-188.96"/>
<polygon fill="grey" stroke="grey" stroke-width="2" points="1207.44,-190.47 1209.36,-180.05 1201.36,-187 1207.44,-190.47"/>
</g>
<!-- 20 -->
<g id="node21" class="node">
<title>20</title>
<path fill="none" stroke="#d86e56" stroke-width="2" stroke-dasharray="5,2" d="M1129.5,-252C1129.5,-252 1028.5,-252 1028.5,-252 1022.5,-252 1016.5,-246 1016.5,-240 1016.5,-240 1016.5,-228 1016.5,-228 1016.5,-222 1022.5,-216 1028.5,-216 1028.5,-216 1129.5,-216 1129.5,-216 1135.5,-216 1141.5,-222 1141.5,-228 1141.5,-228 1141.5,-240 1141.5,-240 1141.5,-246 1135.5,-252 1129.5,-252"/>
<text text-anchor="middle" x="1079" y="-231.5" font-family="sans" font-size="10.00">diag_thermodynamics</text>
</g>
<!-- 4&#45;&gt;20 -->
<g id="edge49" class="edge">
<title>4&#45;&gt;20</title>
<path fill="none" stroke="grey" stroke-width="2" d="M995.91,-287.88C1010.16,-278.81 1027.85,-267.55 1043.24,-257.76"/>
<polygon fill="grey" stroke="grey" stroke-width="2" points="1045.43,-260.51 1051.99,-252.19 1041.67,-254.61 1045.43,-260.51"/>
</g>
<!-- 28 -->
<g id="node29" class="node">
<title>28</title>
<path fill="none" stroke="#d8b456" stroke-width="2" stroke-dasharray="5,2" d="M1159.5,-180C1159.5,-180 1046.5,-180 1046.5,-180 1040.5,-180 1034.5,-174 1034.5,-168 1034.5,-168 1034.5,-156 1034.5,-156 1034.5,-150 1040.5,-144 1046.5,-144 1046.5,-144 1159.5,-144 1159.5,-144 1165.5,-144 1171.5,-150 1171.5,-156 1171.5,-156 1171.5,-168 1171.5,-168 1171.5,-174 1165.5,-180 1159.5,-180"/>
<text text-anchor="middle" x="1103" y="-159.5" font-family="sans" font-size="10.00">diag_average_properties</text>
</g>
<!-- 4&#45;&gt;28 -->
<g id="edge64" class="edge">
<title>4&#45;&gt;28</title>
<path fill="none" stroke="grey" stroke-width="2" d="M972.76,-287.76C977.75,-268.35 988.19,-236.81 1007,-216 1018.52,-203.25 1033.86,-192.9 1048.88,-184.85"/>
<polygon fill="grey" stroke="grey" stroke-width="2" points="1050.83,-187.78 1058.16,-180.13 1047.66,-181.54 1050.83,-187.78"/>
</g>
<!-- 33 -->
<g id="node34" class="node">
<title>33</title>
<path fill="none" stroke="#d8ac56" stroke-width="2" stroke-dasharray="5,2" d="M1004,-180C1004,-180 904,-180 904,-180 898,-180 892,-174 892,-168 892,-168 892,-156 892,-156 892,-150 898,-144 904,-144 904,-144 1004,-144 1004,-144 1010,-144 1016,-150 1016,-156 1016,-156 1016,-168 1016,-168 1016,-174 1010,-180 1004,-180"/>
<text text-anchor="middle" x="954" y="-159.5" font-family="sans" font-size="10.00">diag_buoyancy_fluxes</text>
</g>
<!-- 4&#45;&gt;33 -->
<g id="edge74" class="edge">
<title>4&#45;&gt;33</title>
<path fill="none" stroke="grey" stroke-width="2" d="M967.19,-287.87C964.63,-263.67 959.94,-219.21 956.89,-190.39"/>
<polygon fill="grey" stroke="grey" stroke-width="2" points="960.35,-189.77 955.82,-180.19 953.39,-190.5 960.35,-189.77"/>
</g>
<!-- 38 -->
<g id="node39" class="node">
<title>38</title>
<path fill="none" stroke="#80d856" stroke-width="2" stroke-dasharray="5,2" d="M746,-252C746,-252 630,-252 630,-252 624,-252 618,-246 618,-240 618,-240 618,-228 618,-228 618,-222 624,-216 630,-216 630,-216 746,-216 746,-216 752,-216 758,-222 758,-228 758,-228 758,-240 758,-240 758,-246 752,-252 746,-252"/>
<text text-anchor="middle" x="688" y="-231.5" font-family="sans" font-size="10.00">process_exp_short_name</text>
</g>
<!-- 4&#45;&gt;38 -->
<g id="edge83" class="edge">
<title>4&#45;&gt;38</title>
<path fill="none" stroke="grey" stroke-width="2" d="M900.62,-287.97C860.16,-277.89 808.76,-265.08 766.63,-254.59"/>
<polygon fill="grey" stroke="grey" stroke-width="2" points="767.24,-251.13 756.69,-252.11 765.55,-257.92 767.24,-251.13"/>
</g>
<!-- 5 -->
<g id="node6" class="node">
<title>5</title>
<path fill="none" stroke="#56d8d0" stroke-width="2" stroke-dasharray="5,2" d="M1179,-401C1179,-401 979,-401 979,-401 973,-401 967,-395 967,-389 967,-389 967,-372 967,-372 967,-366 973,-360 979,-360 979,-360 1179,-360 1179,-360 1185,-360 1191,-366 1191,-372 1191,-372 1191,-389 1191,-389 1191,-395 1185,-401 1179,-401"/>
<text text-anchor="middle" x="1079" y="-389" font-family="sans" font-size="10.00">process_delta_t</text>
<text text-anchor="middle" x="1079" y="-378" font-family="sans" font-size="10.00">config: EXP_rn_lambda1_0.08_rn_a0_0.165</text>
<text text-anchor="middle" x="1079" y="-367" font-family="sans" font-size="10.00">exp: EXP_main</text>
</g>
<!-- 5&#45;&gt;4 -->
<g id="edge33" class="edge">
<title>5&#45;&gt;4</title>
<path fill="none" stroke="grey" stroke-width="2" d="M1049.23,-359.88C1035.22,-350.64 1018.41,-339.57 1003.81,-329.94"/>
<polygon fill="grey" stroke="grey" stroke-width="2" points="1005.32,-326.75 995.05,-324.17 1001.47,-332.59 1005.32,-326.75"/>
</g>
<!-- 5&#45;&gt;19 -->
<g id="edge48" class="edge">
<title>5&#45;&gt;19</title>
<path fill="none" stroke="grey" stroke-width="2" d="M1098.15,-359.69C1120.53,-335.74 1157.61,-293.45 1182,-252 1193.64,-232.22 1203.18,-207.96 1209.5,-189.77"/>
<polygon fill="grey" stroke="grey" stroke-width="2" points="1212.89,-190.69 1212.77,-180.09 1206.25,-188.45 1212.89,-190.69"/>
</g>
<!-- 6 -->
<g id="node7" class="node">
<title>6</title>
<path fill="none" stroke="#d85e56" stroke-width="2" stroke-dasharray="5,2" d="M1645,-324C1645,-324 1529,-324 1529,-324 1523,-324 1517,-318 1517,-312 1517,-312 1517,-300 1517,-300 1517,-294 1523,-288 1529,-288 1529,-288 1645,-288 1645,-288 1651,-288 1657,-294 1657,-300 1657,-300 1657,-312 1657,-312 1657,-318 1651,-324 1645,-324"/>
<text text-anchor="middle" x="1587" y="-303.5" font-family="sans" font-size="10.00">process_with_xnemogcm</text>
</g>
<!-- 6&#45;&gt;1 -->
<g id="edge4" class="edge">
<title>6&#45;&gt;1</title>
<path fill="none" stroke="grey" stroke-width="2" d="M1516.89,-300.9C1482.73,-294.94 1444.48,-281.52 1423,-252 1391.31,-208.45 1437.16,-148.74 1468.96,-115.63"/>
<polygon fill="grey" stroke="grey" stroke-width="2" points="1471.75,-117.78 1476.28,-108.21 1466.77,-112.87 1471.75,-117.78"/>
</g>
<!-- 14 -->
<g id="node15" class="node">
<title>14</title>
<path fill="none" stroke="#56c9d8" stroke-width="2" stroke-dasharray="5,2" d="M1528,-252C1528,-252 1444,-252 1444,-252 1438,-252 1432,-246 1432,-240 1432,-240 1432,-228 1432,-228 1432,-222 1438,-216 1444,-216 1444,-216 1528,-216 1528,-216 1534,-216 1540,-222 1540,-228 1540,-228 1540,-240 1540,-240 1540,-246 1534,-252 1528,-252"/>
<text text-anchor="middle" x="1486" y="-231.5" font-family="sans" font-size="10.00">diag_forcing_fields</text>
</g>
<!-- 6&#45;&gt;14 -->
<g id="edge39" class="edge">
<title>6&#45;&gt;14</title>
<path fill="none" stroke="grey" stroke-width="2" d="M1562.29,-287.88C1549.33,-278.89 1533.27,-267.76 1519.23,-258.03"/>
<polygon fill="grey" stroke="grey" stroke-width="2" points="1521.02,-255.01 1510.8,-252.19 1517.03,-260.76 1521.02,-255.01"/>
</g>
<!-- 21 -->
<g id="node22" class="node">
<title>21</title>
<path fill="none" stroke="#56d863" stroke-width="2" stroke-dasharray="5,2" d="M1820,-180C1820,-180 1788,-180 1788,-180 1782,-180 1776,-174 1776,-168 1776,-168 1776,-156 1776,-156 1776,-150 1782,-144 1788,-144 1788,-144 1820,-144 1820,-144 1826,-144 1832,-150 1832,-156 1832,-156 1832,-168 1832,-168 1832,-174 1826,-180 1820,-180"/>
<text text-anchor="middle" x="1804" y="-159.5" font-family="sans" font-size="10.00">diag_sci</text>
</g>
<!-- 6&#45;&gt;21 -->
<g id="edge50" class="edge">
<title>6&#45;&gt;21</title>
<path fill="none" stroke="grey" stroke-width="2" d="M1657.29,-299.07C1694.14,-292.64 1737.78,-279.36 1768,-252 1785.7,-235.98 1794.87,-210.02 1799.5,-190.26"/>
<polygon fill="grey" stroke="grey" stroke-width="2" points="1802.96,-190.81 1801.59,-180.3 1796.11,-189.37 1802.96,-190.81"/>
</g>
<!-- 22 -->
<g id="node23" class="node">
<title>22</title>
<path fill="none" stroke="#d86e56" stroke-width="2" stroke-dasharray="5,2" d="M1747.5,-252C1747.5,-252 1646.5,-252 1646.5,-252 1640.5,-252 1634.5,-246 1634.5,-240 1634.5,-240 1634.5,-228 1634.5,-228 1634.5,-222 1640.5,-216 1646.5,-216 1646.5,-216 1747.5,-216 1747.5,-216 1753.5,-216 1759.5,-222 1759.5,-228 1759.5,-228 1759.5,-240 1759.5,-240 1759.5,-246 1753.5,-252 1747.5,-252"/>
<text text-anchor="middle" x="1697" y="-231.5" font-family="sans" font-size="10.00">diag_thermodynamics</text>
</g>
<!-- 6&#45;&gt;22 -->
<g id="edge53" class="edge">
<title>6&#45;&gt;22</title>
<path fill="none" stroke="grey" stroke-width="2" d="M1613.91,-287.88C1628.16,-278.81 1645.85,-267.55 1661.24,-257.76"/>
<polygon fill="grey" stroke="grey" stroke-width="2" points="1663.43,-260.51 1669.99,-252.19 1659.67,-254.61 1663.43,-260.51"/>
</g>
<!-- 29 -->
<g id="node30" class="node">
<title>29</title>
<path fill="none" stroke="#d8b456" stroke-width="2" stroke-dasharray="5,2" d="M1745.5,-180C1745.5,-180 1632.5,-180 1632.5,-180 1626.5,-180 1620.5,-174 1620.5,-168 1620.5,-168 1620.5,-156 1620.5,-156 1620.5,-150 1626.5,-144 1632.5,-144 1632.5,-144 1745.5,-144 1745.5,-144 1751.5,-144 1757.5,-150 1757.5,-156 1757.5,-156 1757.5,-168 1757.5,-168 1757.5,-174 1751.5,-180 1745.5,-180"/>
<text text-anchor="middle" x="1689" y="-159.5" font-family="sans" font-size="10.00">diag_average_properties</text>
</g>
<!-- 6&#45;&gt;29 -->
<g id="edge66" class="edge">
<title>6&#45;&gt;29</title>
<path fill="none" stroke="grey" stroke-width="2" d="M1591.7,-287.68C1597.42,-268.76 1608.42,-238.21 1625,-216 1633.32,-204.85 1644.45,-194.59 1655.1,-186.11"/>
<polygon fill="grey" stroke="grey" stroke-width="2" points="1657.27,-188.86 1663.09,-180 1653.02,-183.3 1657.27,-188.86"/>
</g>
<!-- 34 -->
<g id="node35" class="node">
<title>34</title>
<path fill="none" stroke="#d8ac56" stroke-width="2" stroke-dasharray="5,2" d="M1590,-180C1590,-180 1490,-180 1490,-180 1484,-180 1478,-174 1478,-168 1478,-168 1478,-156 1478,-156 1478,-150 1484,-144 1490,-144 1490,-144 1590,-144 1590,-144 1596,-144 1602,-150 1602,-156 1602,-156 1602,-168 1602,-168 1602,-174 1596,-180 1590,-180"/>
<text text-anchor="middle" x="1540" y="-159.5" font-family="sans" font-size="10.00">diag_buoyancy_fluxes</text>
</g>
<!-- 6&#45;&gt;34 -->
<g id="edge76" class="edge">
<title>6&#45;&gt;34</title>
<path fill="none" stroke="grey" stroke-width="2" d="M1581.33,-287.87C1573.29,-263.56 1558.48,-218.82 1548.94,-190.01"/>
<polygon fill="grey" stroke="grey" stroke-width="2" points="1552.15,-188.58 1545.69,-180.19 1545.51,-190.78 1552.15,-188.58"/>
</g>
<!-- 39 -->
<g id="node40" class="node">
<title>39</title>
<path fill="none" stroke="#80d856" stroke-width="2" stroke-dasharray="5,2" d="M1364,-252C1364,-252 1248,-252 1248,-252 1242,-252 1236,-246 1236,-240 1236,-240 1236,-228 1236,-228 1236,-222 1242,-216 1248,-216 1248,-216 1364,-216 1364,-216 1370,-216 1376,-222 1376,-228 1376,-228 1376,-240 1376,-240 1376,-246 1370,-252 1364,-252"/>
<text text-anchor="middle" x="1306" y="-231.5" font-family="sans" font-size="10.00">process_exp_short_name</text>
</g>
<!-- 6&#45;&gt;39 -->
<g id="edge84" class="edge">
<title>6&#45;&gt;39</title>
<path fill="none" stroke="grey" stroke-width="2" d="M1518.62,-287.97C1478.16,-277.89 1426.76,-265.08 1384.63,-254.59"/>
<polygon fill="grey" stroke="grey" stroke-width="2" points="1385.24,-251.13 1374.69,-252.11 1383.55,-257.92 1385.24,-251.13"/>
</g>
<!-- 7 -->
<g id="node8" class="node">
<title>7</title>
<path fill="none" stroke="#56d8d0" stroke-width="2" stroke-dasharray="5,2" d="M1816,-401C1816,-401 1616,-401 1616,-401 1610,-401 1604,-395 1604,-389 1604,-389 1604,-372 1604,-372 1604,-366 1610,-360 1616,-360 1616,-360 1816,-360 1816,-360 1822,-360 1828,-366 1828,-372 1828,-372 1828,-389 1828,-389 1828,-395 1822,-401 1816,-401"/>
<text text-anchor="middle" x="1716" y="-389" font-family="sans" font-size="10.00">process_delta_t</text>
<text text-anchor="middle" x="1716" y="-378" font-family="sans" font-size="10.00">config: EXP_rn_lambda1_0.06_rn_a0_0.145</text>
<text text-anchor="middle" x="1716" y="-367" font-family="sans" font-size="10.00">exp: EXP_main</text>
</g>
<!-- 7&#45;&gt;6 -->
<g id="edge34" class="edge">
<title>7&#45;&gt;6</title>
<path fill="none" stroke="grey" stroke-width="2" d="M1681.09,-359.88C1664.19,-350.38 1643.83,-338.94 1626.37,-329.13"/>
<polygon fill="grey" stroke="grey" stroke-width="2" points="1627.98,-326.01 1617.54,-324.17 1624.55,-332.12 1627.98,-326.01"/>
</g>
<!-- 7&#45;&gt;21 -->
<g id="edge52" class="edge">
<title>7&#45;&gt;21</title>
<path fill="none" stroke="grey" stroke-width="2" d="M1731.97,-359.7C1750.34,-335.76 1779.77,-293.48 1794,-252 1800.84,-232.05 1803.24,-208.26 1803.98,-190.3"/>
<polygon fill="grey" stroke="grey" stroke-width="2" points="1807.49,-190.3 1804.26,-180.21 1800.49,-190.11 1807.49,-190.3"/>
</g>
<!-- 8 -->
<g id="node9" class="node">
<title>8</title>
<path fill="none" stroke="#d85e56" stroke-width="2" stroke-dasharray="5,2" d="M2263,-324C2263,-324 2147,-324 2147,-324 2141,-324 2135,-318 2135,-312 2135,-312 2135,-300 2135,-300 2135,-294 2141,-288 2147,-288 2147,-288 2263,-288 2263,-288 2269,-288 2275,-294 2275,-300 2275,-300 2275,-312 2275,-312 2275,-318 2269,-324 2263,-324"/>
<text text-anchor="middle" x="2205" y="-303.5" font-family="sans" font-size="10.00">process_with_xnemogcm</text>
</g>
<!-- 8&#45;&gt;1 -->
<g id="edge5" class="edge">
<title>8&#45;&gt;1</title>
<path fill="none" stroke="grey" stroke-width="2" d="M2134.66,-289.68C2104.5,-281.27 2069.69,-269.02 2041,-252 2020.99,-240.13 2021.68,-229.87 2003,-216 1951.22,-177.55 1938.05,-164.81 1877,-144 1763.36,-105.27 1621.5,-94.79 1546.7,-91.99"/>
<polygon fill="grey" stroke="grey" stroke-width="2" points="1546.72,-88.49 1536.61,-91.64 1546.48,-95.49 1546.72,-88.49"/>
</g>
<!-- 15 -->
<g id="node16" class="node">
<title>15</title>
<path fill="none" stroke="#56c9d8" stroke-width="2" stroke-dasharray="5,2" d="M2146,-252C2146,-252 2062,-252 2062,-252 2056,-252 2050,-246 2050,-240 2050,-240 2050,-228 2050,-228 2050,-222 2056,-216 2062,-216 2062,-216 2146,-216 2146,-216 2152,-216 2158,-222 2158,-228 2158,-228 2158,-240 2158,-240 2158,-246 2152,-252 2146,-252"/>
<text text-anchor="middle" x="2104" y="-231.5" font-family="sans" font-size="10.00">diag_forcing_fields</text>
</g>
<!-- 8&#45;&gt;15 -->
<g id="edge40" class="edge">
<title>8&#45;&gt;15</title>
<path fill="none" stroke="grey" stroke-width="2" d="M2180.29,-287.88C2167.33,-278.89 2151.27,-267.76 2137.23,-258.03"/>
<polygon fill="grey" stroke="grey" stroke-width="2" points="2139.02,-255.01 2128.8,-252.19 2135.03,-260.76 2139.02,-255.01"/>
</g>
<!-- 23 -->
<g id="node24" class="node">
<title>23</title>
<path fill="none" stroke="#56d863" stroke-width="2" stroke-dasharray="5,2" d="M2430,-180C2430,-180 2398,-180 2398,-180 2392,-180 2386,-174 2386,-168 2386,-168 2386,-156 2386,-156 2386,-150 2392,-144 2398,-144 2398,-144 2430,-144 2430,-144 2436,-144 2442,-150 2442,-156 2442,-156 2442,-168 2442,-168 2442,-174 2436,-180 2430,-180"/>
<text text-anchor="middle" x="2414" y="-159.5" font-family="sans" font-size="10.00">diag_sci</text>
</g>
<!-- 8&#45;&gt;23 -->
<g id="edge54" class="edge">
<title>8&#45;&gt;23</title>
<path fill="none" stroke="grey" stroke-width="2" d="M2275.27,-300.15C2312.58,-294.06 2356.65,-280.77 2386,-252 2402.49,-235.83 2409.3,-210.06 2412.09,-190.4"/>
<polygon fill="grey" stroke="grey" stroke-width="2" points="2415.6,-190.55 2413.27,-180.21 2408.65,-189.74 2415.6,-190.55"/>
</g>
<!-- 24 -->
<g id="node25" class="node">
<title>24</title>
<path fill="none" stroke="#d86e56" stroke-width="2" stroke-dasharray="5,2" d="M2365.5,-252C2365.5,-252 2264.5,-252 2264.5,-252 2258.5,-252 2252.5,-246 2252.5,-240 2252.5,-240 2252.5,-228 2252.5,-228 2252.5,-222 2258.5,-216 2264.5,-216 2264.5,-216 2365.5,-216 2365.5,-216 2371.5,-216 2377.5,-222 2377.5,-228 2377.5,-228 2377.5,-240 2377.5,-240 2377.5,-246 2371.5,-252 2365.5,-252"/>
<text text-anchor="middle" x="2315" y="-231.5" font-family="sans" font-size="10.00">diag_thermodynamics</text>
</g>
<!-- 8&#45;&gt;24 -->
<g id="edge57" class="edge">
<title>8&#45;&gt;24</title>
<path fill="none" stroke="grey" stroke-width="2" d="M2231.91,-287.88C2246.16,-278.81 2263.85,-267.55 2279.24,-257.76"/>
<polygon fill="grey" stroke="grey" stroke-width="2" points="2281.43,-260.51 2287.99,-252.19 2277.67,-254.61 2281.43,-260.51"/>
</g>
<!-- 30 -->
<g id="node31" class="node">
<title>30</title>
<path fill="none" stroke="#d8b456" stroke-width="2" stroke-dasharray="5,2" d="M2355.5,-180C2355.5,-180 2242.5,-180 2242.5,-180 2236.5,-180 2230.5,-174 2230.5,-168 2230.5,-168 2230.5,-156 2230.5,-156 2230.5,-150 2236.5,-144 2242.5,-144 2242.5,-144 2355.5,-144 2355.5,-144 2361.5,-144 2367.5,-150 2367.5,-156 2367.5,-156 2367.5,-168 2367.5,-168 2367.5,-174 2361.5,-180 2355.5,-180"/>
<text text-anchor="middle" x="2299" y="-159.5" font-family="sans" font-size="10.00">diag_average_properties</text>
</g>
<!-- 8&#45;&gt;30 -->
<g id="edge68" class="edge">
<title>8&#45;&gt;30</title>
<path fill="none" stroke="grey" stroke-width="2" d="M2209.99,-287.88C2215.95,-269.15 2227.16,-238.75 2243,-216 2250.35,-205.44 2260.07,-195.34 2269.35,-186.85"/>
<polygon fill="grey" stroke="grey" stroke-width="2" points="2271.8,-189.35 2276.98,-180.11 2267.17,-184.11 2271.8,-189.35"/>
</g>
<!-- 35 -->
<g id="node36" class="node">
<title>35</title>
<path fill="none" stroke="#d8ac56" stroke-width="2" stroke-dasharray="5,2" d="M2200,-180C2200,-180 2100,-180 2100,-180 2094,-180 2088,-174 2088,-168 2088,-168 2088,-156 2088,-156 2088,-150 2094,-144 2100,-144 2100,-144 2200,-144 2200,-144 2206,-144 2212,-150 2212,-156 2212,-156 2212,-168 2212,-168 2212,-174 2206,-180 2200,-180"/>
<text text-anchor="middle" x="2150" y="-159.5" font-family="sans" font-size="10.00">diag_buoyancy_fluxes</text>
</g>
<!-- 8&#45;&gt;35 -->
<g id="edge78" class="edge">
<title>8&#45;&gt;35</title>
<path fill="none" stroke="grey" stroke-width="2" d="M2198.37,-287.87C2188.91,-263.46 2171.47,-218.43 2160.32,-189.64"/>
<polygon fill="grey" stroke="grey" stroke-width="2" points="2163.53,-188.25 2156.66,-180.19 2157.01,-190.78 2163.53,-188.25"/>
</g>
<!-- 40 -->
<g id="node41" class="node">
<title>40</title>
<path fill="none" stroke="#80d856" stroke-width="2" stroke-dasharray="5,2" d="M1982,-252C1982,-252 1866,-252 1866,-252 1860,-252 1854,-246 1854,-240 1854,-240 1854,-228 1854,-228 1854,-222 1860,-216 1866,-216 1866,-216 1982,-216 1982,-216 1988,-216 1994,-222 1994,-228 1994,-228 1994,-240 1994,-240 1994,-246 1988,-252 1982,-252"/>
<text text-anchor="middle" x="1924" y="-231.5" font-family="sans" font-size="10.00">process_exp_short_name</text>
</g>
<!-- 8&#45;&gt;40 -->
<g id="edge85" class="edge">
<title>8&#45;&gt;40</title>
<path fill="none" stroke="grey" stroke-width="2" d="M2136.62,-287.97C2096.16,-277.89 2044.76,-265.08 2002.63,-254.59"/>
<polygon fill="grey" stroke="grey" stroke-width="2" points="2003.24,-251.13 1992.69,-252.11 2001.55,-257.92 2003.24,-251.13"/>
</g>
<!-- 9 -->
<g id="node10" class="node">
<title>9</title>
<path fill="none" stroke="#56d8d0" stroke-width="2" stroke-dasharray="5,2" d="M2425,-401C2425,-401 2225,-401 2225,-401 2219,-401 2213,-395 2213,-389 2213,-389 2213,-372 2213,-372 2213,-366 2219,-360 2225,-360 2225,-360 2425,-360 2425,-360 2431,-360 2437,-366 2437,-372 2437,-372 2437,-389 2437,-389 2437,-395 2431,-401 2425,-401"/>
<text text-anchor="middle" x="2325" y="-389" font-family="sans" font-size="10.00">process_delta_t</text>
<text text-anchor="middle" x="2325" y="-378" font-family="sans" font-size="10.00">config: EXP_rn_lambda1_0.06_rn_a0_0.185</text>
<text text-anchor="middle" x="2325" y="-367" font-family="sans" font-size="10.00">exp: EXP_main</text>
</g>
<!-- 9&#45;&gt;8 -->
<g id="edge35" class="edge">
<title>9&#45;&gt;8</title>
<path fill="none" stroke="grey" stroke-width="2" d="M2292.53,-359.88C2276.95,-350.47 2258.21,-339.15 2242.07,-329.4"/>
<polygon fill="grey" stroke="grey" stroke-width="2" points="2243.78,-326.34 2233.41,-324.17 2240.16,-332.33 2243.78,-326.34"/>
</g>
<!-- 9&#45;&gt;23 -->
<g id="edge56" class="edge">
<title>9&#45;&gt;23</title>
<path fill="none" stroke="grey" stroke-width="2" d="M2343.3,-359.72C2363.83,-336.11 2396.09,-294.47 2410,-252 2416.53,-232.07 2417.26,-208.27 2416.51,-190.31"/>
<polygon fill="grey" stroke="grey" stroke-width="2" points="2420,-189.99 2415.91,-180.22 2413.01,-190.41 2420,-189.99"/>
</g>
<!-- 10 -->
<g id="node11" class="node">
<title>10</title>
<path fill="none" stroke="#d85e56" stroke-width="2" stroke-dasharray="5,2" d="M2881,-324C2881,-324 2765,-324 2765,-324 2759,-324 2753,-318 2753,-312 2753,-312 2753,-300 2753,-300 2753,-294 2759,-288 2765,-288 2765,-288 2881,-288 2881,-288 2887,-288 2893,-294 2893,-300 2893,-300 2893,-312 2893,-312 2893,-318 2887,-324 2881,-324"/>
<text text-anchor="middle" x="2823" y="-303.5" font-family="sans" font-size="10.00">process_with_xnemogcm</text>
</g>
<!-- 10&#45;&gt;1 -->
<g id="edge6" class="edge">
<title>10&#45;&gt;1</title>
<path fill="none" stroke="grey" stroke-width="2" d="M2752.66,-289.68C2722.5,-281.27 2687.69,-269.02 2659,-252 2638.99,-240.13 2639.81,-229.68 2621,-216 2566.96,-176.69 2553.29,-162.23 2489,-144 2309.38,-93.07 1724.86,-90.36 1546.89,-90.75"/>
<polygon fill="grey" stroke="grey" stroke-width="2" points="1546.74,-87.25 1536.75,-90.78 1546.76,-94.25 1546.74,-87.25"/>
</g>
<!-- 16 -->
<g id="node17" class="node">
<title>16</title>
<path fill="none" stroke="#56c9d8" stroke-width="2" stroke-dasharray="5,2" d="M2764,-252C2764,-252 2680,-252 2680,-252 2674,-252 2668,-246 2668,-240 2668,-240 2668,-228 2668,-228 2668,-222 2674,-216 2680,-216 2680,-216 2764,-216 2764,-216 2770,-216 2776,-222 2776,-228 2776,-228 2776,-240 2776,-240 2776,-246 2770,-252 2764,-252"/>
<text text-anchor="middle" x="2722" y="-231.5" font-family="sans" font-size="10.00">diag_forcing_fields</text>
</g>
<!-- 10&#45;&gt;16 -->
<g id="edge41" class="edge">
<title>10&#45;&gt;16</title>
<path fill="none" stroke="grey" stroke-width="2" d="M2798.29,-287.88C2785.33,-278.89 2769.27,-267.76 2755.23,-258.03"/>
<polygon fill="grey" stroke="grey" stroke-width="2" points="2757.02,-255.01 2746.8,-252.19 2753.03,-260.76 2757.02,-255.01"/>
</g>
<!-- 25 -->
<g id="node26" class="node">
<title>25</title>
<path fill="none" stroke="#56d863" stroke-width="2" stroke-dasharray="5,2" d="M3048,-180C3048,-180 3016,-180 3016,-180 3010,-180 3004,-174 3004,-168 3004,-168 3004,-156 3004,-156 3004,-150 3010,-144 3016,-144 3016,-144 3048,-144 3048,-144 3054,-144 3060,-150 3060,-156 3060,-156 3060,-168 3060,-168 3060,-174 3054,-180 3048,-180"/>
<text text-anchor="middle" x="3032" y="-159.5" font-family="sans" font-size="10.00">diag_sci</text>
</g>
<!-- 10&#45;&gt;25 -->
<g id="edge58" class="edge">
<title>10&#45;&gt;25</title>
<path fill="none" stroke="grey" stroke-width="2" d="M2893.27,-300.15C2930.58,-294.06 2974.65,-280.77 3004,-252 3020.49,-235.83 3027.3,-210.06 3030.09,-190.4"/>
<polygon fill="grey" stroke="grey" stroke-width="2" points="3033.6,-190.55 3031.27,-180.21 3026.65,-189.74 3033.6,-190.55"/>
</g>
<!-- 26 -->
<g id="node27" class="node">
<title>26</title>
<path fill="none" stroke="#d86e56" stroke-width="2" stroke-dasharray="5,2" d="M2983.5,-252C2983.5,-252 2882.5,-252 2882.5,-252 2876.5,-252 2870.5,-246 2870.5,-240 2870.5,-240 2870.5,-228 2870.5,-228 2870.5,-222 2876.5,-216 2882.5,-216 2882.5,-216 2983.5,-216 2983.5,-216 2989.5,-216 2995.5,-222 2995.5,-228 2995.5,-228 2995.5,-240 2995.5,-240 2995.5,-246 2989.5,-252 2983.5,-252"/>
<text text-anchor="middle" x="2933" y="-231.5" font-family="sans" font-size="10.00">diag_thermodynamics</text>
</g>
<!-- 10&#45;&gt;26 -->
<g id="edge61" class="edge">
<title>10&#45;&gt;26</title>
<path fill="none" stroke="grey" stroke-width="2" d="M2849.91,-287.88C2864.16,-278.81 2881.85,-267.55 2897.24,-257.76"/>
<polygon fill="grey" stroke="grey" stroke-width="2" points="2899.43,-260.51 2905.99,-252.19 2895.67,-254.61 2899.43,-260.51"/>
</g>
<!-- 31 -->
<g id="node32" class="node">
<title>31</title>
<path fill="none" stroke="#d8b456" stroke-width="2" stroke-dasharray="5,2" d="M2973.5,-180C2973.5,-180 2860.5,-180 2860.5,-180 2854.5,-180 2848.5,-174 2848.5,-168 2848.5,-168 2848.5,-156 2848.5,-156 2848.5,-150 2854.5,-144 2860.5,-144 2860.5,-144 2973.5,-144 2973.5,-144 2979.5,-144 2985.5,-150 2985.5,-156 2985.5,-156 2985.5,-168 2985.5,-168 2985.5,-174 2979.5,-180 2973.5,-180"/>
<text text-anchor="middle" x="2917" y="-159.5" font-family="sans" font-size="10.00">diag_average_properties</text>
</g>
<!-- 10&#45;&gt;31 -->
<g id="edge70" class="edge">
<title>10&#45;&gt;31</title>
<path fill="none" stroke="grey" stroke-width="2" d="M2827.99,-287.88C2833.95,-269.15 2845.16,-238.75 2861,-216 2868.35,-205.44 2878.07,-195.34 2887.35,-186.85"/>
<polygon fill="grey" stroke="grey" stroke-width="2" points="2889.8,-189.35 2894.98,-180.11 2885.17,-184.11 2889.8,-189.35"/>
</g>
<!-- 36 -->
<g id="node37" class="node">
<title>36</title>
<path fill="none" stroke="#d8ac56" stroke-width="2" stroke-dasharray="5,2" d="M2818,-180C2818,-180 2718,-180 2718,-180 2712,-180 2706,-174 2706,-168 2706,-168 2706,-156 2706,-156 2706,-150 2712,-144 2718,-144 2718,-144 2818,-144 2818,-144 2824,-144 2830,-150 2830,-156 2830,-156 2830,-168 2830,-168 2830,-174 2824,-180 2818,-180"/>
<text text-anchor="middle" x="2768" y="-159.5" font-family="sans" font-size="10.00">diag_buoyancy_fluxes</text>
</g>
<!-- 10&#45;&gt;36 -->
<g id="edge80" class="edge">
<title>10&#45;&gt;36</title>
<path fill="none" stroke="grey" stroke-width="2" d="M2816.37,-287.87C2806.91,-263.46 2789.47,-218.43 2778.32,-189.64"/>
<polygon fill="grey" stroke="grey" stroke-width="2" points="2781.53,-188.25 2774.66,-180.19 2775.01,-190.78 2781.53,-188.25"/>
</g>
<!-- 41 -->
<g id="node42" class="node">
<title>41</title>
<path fill="none" stroke="#80d856" stroke-width="2" stroke-dasharray="5,2" d="M2600,-252C2600,-252 2484,-252 2484,-252 2478,-252 2472,-246 2472,-240 2472,-240 2472,-228 2472,-228 2472,-222 2478,-216 2484,-216 2484,-216 2600,-216 2600,-216 2606,-216 2612,-222 2612,-228 2612,-228 2612,-240 2612,-240 2612,-246 2606,-252 2600,-252"/>
<text text-anchor="middle" x="2542" y="-231.5" font-family="sans" font-size="10.00">process_exp_short_name</text>
</g>
<!-- 10&#45;&gt;41 -->
<g id="edge86" class="edge">
<title>10&#45;&gt;41</title>
<path fill="none" stroke="grey" stroke-width="2" d="M2754.62,-287.97C2714.16,-277.89 2662.76,-265.08 2620.63,-254.59"/>
<polygon fill="grey" stroke="grey" stroke-width="2" points="2621.24,-251.13 2610.69,-252.11 2619.55,-257.92 2621.24,-251.13"/>
</g>
<!-- 11 -->
<g id="node12" class="node">
<title>11</title>
<path fill="none" stroke="#56d8d0" stroke-width="2" stroke-dasharray="5,2" d="M3033,-401C3033,-401 2833,-401 2833,-401 2827,-401 2821,-395 2821,-389 2821,-389 2821,-372 2821,-372 2821,-366 2827,-360 2833,-360 2833,-360 3033,-360 3033,-360 3039,-360 3045,-366 3045,-372 3045,-372 3045,-389 3045,-389 3045,-395 3039,-401 3033,-401"/>
<text text-anchor="middle" x="2933" y="-389" font-family="sans" font-size="10.00">process_delta_t</text>
<text text-anchor="middle" x="2933" y="-378" font-family="sans" font-size="10.00">config: EXP_rn_lambda1_0.04_rn_a0_0.165</text>
<text text-anchor="middle" x="2933" y="-367" font-family="sans" font-size="10.00">exp: EXP_main</text>
</g>
<!-- 11&#45;&gt;10 -->
<g id="edge36" class="edge">
<title>11&#45;&gt;10</title>
<path fill="none" stroke="grey" stroke-width="2" d="M2903.23,-359.88C2889.22,-350.64 2872.41,-339.57 2857.81,-329.94"/>
<polygon fill="grey" stroke="grey" stroke-width="2" points="2859.32,-326.75 2849.05,-324.17 2855.47,-332.59 2859.32,-326.75"/>
</g>
<!-- 11&#45;&gt;25 -->
<g id="edge60" class="edge">
<title>11&#45;&gt;25</title>
<path fill="none" stroke="grey" stroke-width="2" d="M2953.85,-359.73C2976.8,-336.45 3012.51,-295.42 3028,-252 3035.05,-232.24 3035.75,-208.44 3034.85,-190.42"/>
<polygon fill="grey" stroke="grey" stroke-width="2" points="3038.33,-190.04 3034.15,-180.3 3031.35,-190.52 3038.33,-190.04"/>
</g>
<!-- 12&#45;&gt;1 -->
<g id="edge7" class="edge">
<title>12&#45;&gt;1</title>
<path fill="none" stroke="grey" stroke-width="2" d="M247.22,-215.95C244.97,-195.49 244.92,-161.74 265,-144 309.79,-104.44 1215.4,-93.55 1443.3,-91.43"/>
<polygon fill="grey" stroke="grey" stroke-width="2" points="1443.35,-94.93 1453.32,-91.34 1443.29,-87.93 1443.35,-94.93"/>
</g>
<!-- 13&#45;&gt;1 -->
<g id="edge8" class="edge">
<title>13&#45;&gt;1</title>
<path fill="none" stroke="grey" stroke-width="2" d="M865.31,-215.73C863.23,-195.38 863.42,-162.06 883,-144 923.82,-106.35 1303.35,-94.88 1443.4,-91.91"/>
<polygon fill="grey" stroke="grey" stroke-width="2" points="1443.53,-95.41 1453.46,-91.71 1443.39,-88.41 1443.53,-95.41"/>
</g>
<!-- 14&#45;&gt;1 -->
<g id="edge9" class="edge">
<title>14&#45;&gt;1</title>
<path fill="none" stroke="grey" stroke-width="2" d="M1478.48,-215.85C1471.58,-197.87 1463.24,-168.82 1469,-144 1471.1,-134.96 1474.97,-125.68 1479.09,-117.47"/>
<polygon fill="grey" stroke="grey" stroke-width="2" points="1482.31,-118.86 1483.95,-108.39 1476.14,-115.55 1482.31,-118.86"/>
</g>
<!-- 15&#45;&gt;1 -->
<g id="edge10" class="edge">
<title>15&#45;&gt;1</title>
<path fill="none" stroke="grey" stroke-width="2" d="M2096.28,-215.8C2085.87,-194.85 2065.22,-160.27 2036,-144 1952.96,-97.77 1665.68,-91.48 1546.96,-90.9"/>
<polygon fill="grey" stroke="grey" stroke-width="2" points="1546.7,-87.39 1536.68,-90.86 1546.67,-94.39 1546.7,-87.39"/>
</g>
<!-- 16&#45;&gt;1 -->
<g id="edge11" class="edge">
<title>16&#45;&gt;1</title>
<path fill="none" stroke="grey" stroke-width="2" d="M2714.59,-215.92C2704.38,-194.76 2683.81,-159.59 2654,-144 2555.17,-92.29 1759.62,-90.39 1547.06,-90.81"/>
<polygon fill="grey" stroke="grey" stroke-width="2" points="1546.79,-87.31 1536.8,-90.83 1546.81,-94.31 1546.79,-87.31"/>
</g>
<!-- 17&#45;&gt;1 -->
<g id="edge12" class="edge">
<title>17&#45;&gt;1</title>
<path fill="none" stroke="grey" stroke-width="2" d="M628.15,-155.65C649.02,-151.87 678.19,-146.97 704,-144 981.63,-112.08 1316.45,-97.45 1443.1,-92.77"/>
<polygon fill="grey" stroke="grey" stroke-width="2" points="1443.41,-96.26 1453.28,-92.4 1443.16,-89.26 1443.41,-96.26"/>
</g>
<!-- 18&#45;&gt;17 -->
<g id="edge43" class="edge">
<title>18&#45;&gt;17</title>
<path fill="none" stroke="grey" stroke-width="2" d="M495,-215.88C515.59,-205.51 541.85,-192.28 562.96,-181.65"/>
<polygon fill="grey" stroke="grey" stroke-width="2" points="564.6,-184.75 571.96,-177.12 561.45,-178.49 564.6,-184.75"/>
</g>
<!-- 18&#45;&gt;27 -->
<g id="edge63" class="edge">
<title>18&#45;&gt;27</title>
<path fill="none" stroke="grey" stroke-width="2" d="M466.93,-215.7C469.61,-207.9 472.83,-198.51 475.8,-189.83"/>
<polygon fill="grey" stroke="grey" stroke-width="2" points="479.2,-190.7 479.14,-180.1 472.58,-188.43 479.2,-190.7"/>
</g>
<!-- 18&#45;&gt;32 -->
<g id="edge73" class="edge">
<title>18&#45;&gt;32</title>
<path fill="none" stroke="grey" stroke-width="2" d="M430.42,-215.88C413.93,-206.64 393.38,-195.13 375.66,-185.21"/>
<polygon fill="grey" stroke="grey" stroke-width="2" points="377.13,-182.02 366.7,-180.19 373.71,-188.13 377.13,-182.02"/>
</g>
<!-- 19&#45;&gt;1 -->
<g id="edge13" class="edge">
<title>19&#45;&gt;1</title>
<path fill="none" stroke="grey" stroke-width="2" d="M1246.08,-153.9C1292.37,-142.21 1385.35,-118.71 1443.64,-103.98"/>
<polygon fill="grey" stroke="grey" stroke-width="2" points="1444.56,-107.36 1453.39,-101.51 1442.84,-100.57 1444.56,-107.36"/>
</g>
<!-- 20&#45;&gt;19 -->
<g id="edge47" class="edge">
<title>20&#45;&gt;19</title>
<path fill="none" stroke="grey" stroke-width="2" d="M1113,-215.88C1133.59,-205.51 1159.85,-192.28 1180.96,-181.65"/>
<polygon fill="grey" stroke="grey" stroke-width="2" points="1182.6,-184.75 1189.96,-177.12 1179.45,-178.49 1182.6,-184.75"/>
</g>
<!-- 20&#45;&gt;28 -->
<g id="edge65" class="edge">
<title>20&#45;&gt;28</title>
<path fill="none" stroke="grey" stroke-width="2" d="M1084.93,-215.7C1087.61,-207.9 1090.83,-198.51 1093.8,-189.83"/>
<polygon fill="grey" stroke="grey" stroke-width="2" points="1097.2,-190.7 1097.14,-180.1 1090.58,-188.43 1097.2,-190.7"/>
</g>
<!-- 20&#45;&gt;33 -->
<g id="edge75" class="edge">
<title>20&#45;&gt;33</title>
<path fill="none" stroke="grey" stroke-width="2" d="M1048.42,-215.88C1031.93,-206.64 1011.38,-195.13 993.66,-185.21"/>
<polygon fill="grey" stroke="grey" stroke-width="2" points="995.13,-182.02 984.7,-180.19 991.71,-188.13 995.13,-182.02"/>
</g>
<!-- 21&#45;&gt;1 -->
<g id="edge14" class="edge">
<title>21&#45;&gt;1</title>
<path fill="none" stroke="grey" stroke-width="2" d="M1775.64,-147.48C1772.43,-146.2 1769.17,-145 1766,-144 1691.51,-120.39 1602.02,-105.36 1546.82,-97.56"/>
<polygon fill="grey" stroke="grey" stroke-width="2" points="1546.98,-94.04 1536.59,-96.14 1546.01,-100.98 1546.98,-94.04"/>
</g>
<!-- 22&#45;&gt;21 -->
<g id="edge51" class="edge">
<title>22&#45;&gt;21</title>
<path fill="none" stroke="grey" stroke-width="2" d="M1723.18,-215.88C1737.04,-206.81 1754.24,-195.55 1769.21,-185.76"/>
<polygon fill="grey" stroke="grey" stroke-width="2" points="1771.27,-188.59 1777.72,-180.19 1767.44,-182.74 1771.27,-188.59"/>
</g>
<!-- 22&#45;&gt;29 -->
<g id="edge67" class="edge">
<title>22&#45;&gt;29</title>
<path fill="none" stroke="grey" stroke-width="2" d="M1695.02,-215.7C1694.14,-207.98 1693.08,-198.71 1692.1,-190.11"/>
<polygon fill="grey" stroke="grey" stroke-width="2" points="1695.57,-189.64 1690.95,-180.1 1688.61,-190.44 1695.57,-189.64"/>
</g>
<!-- 22&#45;&gt;34 -->
<g id="edge77" class="edge">
<title>22&#45;&gt;34</title>
<path fill="none" stroke="grey" stroke-width="2" d="M1658.59,-215.88C1637.13,-206.31 1610.2,-194.3 1587.43,-184.15"/>
<polygon fill="grey" stroke="grey" stroke-width="2" points="1588.84,-180.94 1578.28,-180.07 1585.99,-187.34 1588.84,-180.94"/>
</g>
<!-- 23&#45;&gt;1 -->
<g id="edge15" class="edge">
<title>23&#45;&gt;1</title>
<path fill="none" stroke="grey" stroke-width="2" d="M2385.76,-147.05C2382.52,-145.85 2379.23,-144.79 2376,-144 2217.27,-105.09 1711.36,-94.23 1547.07,-91.68"/>
<polygon fill="grey" stroke="grey" stroke-width="2" points="1546.8,-88.18 1536.75,-91.53 1546.7,-95.18 1546.8,-88.18"/>
</g>
<!-- 24&#45;&gt;23 -->
<g id="edge55" class="edge">
<title>24&#45;&gt;23</title>
<path fill="none" stroke="grey" stroke-width="2" d="M2339.22,-215.88C2351.92,-206.89 2367.66,-195.76 2381.42,-186.03"/>
<polygon fill="grey" stroke="grey" stroke-width="2" points="2383.54,-188.82 2389.69,-180.19 2379.5,-183.11 2383.54,-188.82"/>
</g>
<!-- 24&#45;&gt;30 -->
<g id="edge69" class="edge">
<title>24&#45;&gt;30</title>
<path fill="none" stroke="grey" stroke-width="2" d="M2311.04,-215.7C2309.28,-207.98 2307.16,-198.71 2305.2,-190.11"/>
<polygon fill="grey" stroke="grey" stroke-width="2" points="2308.55,-189.07 2302.91,-180.1 2301.73,-190.63 2308.55,-189.07"/>
</g>
<!-- 24&#45;&gt;35 -->
<g id="edge79" class="edge">
<title>24&#45;&gt;35</title>
<path fill="none" stroke="grey" stroke-width="2" d="M2274.64,-215.88C2251.98,-206.26 2223.53,-194.19 2199.53,-184.01"/>
<polygon fill="grey" stroke="grey" stroke-width="2" points="2200.81,-180.75 2190.23,-180.07 2198.07,-187.2 2200.81,-180.75"/>
</g>
<!-- 25&#45;&gt;1 -->
<g id="edge16" class="edge">
<title>25&#45;&gt;1</title>
<path fill="none" stroke="grey" stroke-width="2" d="M3003.78,-146.97C3000.54,-145.78 2997.24,-144.75 2994,-144 2850.83,-110.78 1794.42,-94.93 1546.82,-91.65"/>
<polygon fill="grey" stroke="grey" stroke-width="2" points="1546.7,-88.15 1536.66,-91.52 1546.61,-95.15 1546.7,-88.15"/>
</g>
<!-- 26&#45;&gt;25 -->
<g id="edge59" class="edge">
<title>26&#45;&gt;25</title>
<path fill="none" stroke="grey" stroke-width="2" d="M2957.22,-215.88C2969.92,-206.89 2985.66,-195.76 2999.42,-186.03"/>
<polygon fill="grey" stroke="grey" stroke-width="2" points="3001.54,-188.82 3007.69,-180.19 2997.5,-183.11 3001.54,-188.82"/>
</g>
<!-- 26&#45;&gt;31 -->
<g id="edge71" class="edge">
<title>26&#45;&gt;31</title>
<path fill="none" stroke="grey" stroke-width="2" d="M2929.04,-215.7C2927.28,-207.98 2925.16,-198.71 2923.2,-190.11"/>
<polygon fill="grey" stroke="grey" stroke-width="2" points="2926.55,-189.07 2920.91,-180.1 2919.73,-190.63 2926.55,-189.07"/>
</g>
<!-- 26&#45;&gt;36 -->
<g id="edge81" class="edge">
<title>26&#45;&gt;36</title>
<path fill="none" stroke="grey" stroke-width="2" d="M2892.64,-215.88C2869.98,-206.26 2841.53,-194.19 2817.53,-184.01"/>
<polygon fill="grey" stroke="grey" stroke-width="2" points="2818.81,-180.75 2808.23,-180.07 2816.07,-187.2 2818.81,-180.75"/>
</g>
<!-- 27&#45;&gt;1 -->
<g id="edge17" class="edge">
<title>27&#45;&gt;1</title>
<path fill="none" stroke="grey" stroke-width="2" d="M553.8,-145.39C556.9,-144.88 559.98,-144.41 563,-144 896.29,-98.49 1301.78,-91.94 1443.31,-91.09"/>
<polygon fill="grey" stroke="grey" stroke-width="2" points="1443.46,-94.59 1453.44,-91.03 1443.42,-87.59 1443.46,-94.59"/>
</g>
<!-- 28&#45;&gt;1 -->
<g id="edge18" class="edge">
<title>28&#45;&gt;1</title>
<path fill="none" stroke="grey" stroke-width="2" d="M1171.87,-145.81C1174.95,-145.18 1178.01,-144.58 1181,-144 1273.17,-126.19 1381.21,-108.69 1443.52,-98.92"/>
<polygon fill="grey" stroke="grey" stroke-width="2" points="1444.15,-102.37 1453.49,-97.36 1443.07,-95.45 1444.15,-102.37"/>
</g>
<!-- 29&#45;&gt;1 -->
<g id="edge19" class="edge">
<title>29&#45;&gt;1</title>
<path fill="none" stroke="grey" stroke-width="2" d="M1641.54,-143.88C1612.72,-133.48 1575.92,-120.2 1546.4,-109.55"/>
<polygon fill="grey" stroke="grey" stroke-width="2" points="1547.29,-106.15 1536.7,-106.05 1544.92,-112.73 1547.29,-106.15"/>
</g>
<!-- 30&#45;&gt;1 -->
<g id="edge20" class="edge">
<title>30&#45;&gt;1</title>
<path fill="none" stroke="grey" stroke-width="2" d="M2230.19,-145.45C2227.09,-144.92 2224.02,-144.44 2221,-144 1969.99,-107.67 1666.35,-95.73 1546.87,-92.27"/>
<polygon fill="grey" stroke="grey" stroke-width="2" points="1546.65,-88.76 1536.56,-91.97 1546.46,-95.76 1546.65,-88.76"/>
</g>
<!-- 31&#45;&gt;1 -->
<g id="edge21" class="edge">
<title>31&#45;&gt;1</title>
<path fill="none" stroke="grey" stroke-width="2" d="M2848.21,-145.32C2845.11,-144.83 2842.02,-144.39 2839,-144 2582.04,-111.19 1760.99,-95.44 1546.6,-91.83"/>
<polygon fill="grey" stroke="grey" stroke-width="2" points="1546.62,-88.33 1536.56,-91.66 1546.51,-95.32 1546.62,-88.33"/>
</g>
<!-- 32&#45;&gt;1 -->
<g id="edge22" class="edge">
<title>32&#45;&gt;1</title>
<path fill="none" stroke="grey" stroke-width="2" d="M398.21,-145.41C401.17,-144.89 404.11,-144.41 407,-144 610.84,-114.89 1255.12,-96.96 1443.06,-92.25"/>
<polygon fill="grey" stroke="grey" stroke-width="2" points="1443.32,-95.74 1453.23,-91.99 1443.14,-88.74 1443.32,-95.74"/>
</g>
<!-- 33&#45;&gt;1 -->
<g id="edge23" class="edge">
<title>33&#45;&gt;1</title>
<path fill="none" stroke="grey" stroke-width="2" d="M1016.25,-145.64C1019.2,-145.05 1022.13,-144.5 1025,-144 1175.78,-117.55 1356.2,-101.52 1443.13,-94.76"/>
<polygon fill="grey" stroke="grey" stroke-width="2" points="1443.56,-98.23 1453.26,-93.98 1443.02,-91.25 1443.56,-98.23"/>
</g>
<!-- 34&#45;&gt;1 -->
<g id="edge24" class="edge">
<title>34&#45;&gt;1</title>
<path fill="none" stroke="grey" stroke-width="2" d="M1528.88,-143.7C1523.64,-135.56 1517.3,-125.69 1511.52,-116.7"/>
<polygon fill="grey" stroke="grey" stroke-width="2" points="1514.35,-114.62 1506,-108.1 1508.46,-118.41 1514.35,-114.62"/>
</g>
<!-- 35&#45;&gt;1 -->
<g id="edge25" class="edge">
<title>35&#45;&gt;1</title>
<path fill="none" stroke="grey" stroke-width="2" d="M2087.91,-146.43C2083.22,-145.54 2078.54,-144.71 2074,-144 1880.7,-113.66 1648.16,-98.88 1546.64,-93.49"/>
<polygon fill="grey" stroke="grey" stroke-width="2" points="1546.82,-90 1536.65,-92.97 1546.45,-96.99 1546.82,-90"/>
</g>
<!-- 36&#45;&gt;1 -->
<g id="edge26" class="edge">
<title>36&#45;&gt;1</title>
<path fill="none" stroke="grey" stroke-width="2" d="M2705.95,-146.19C2701.24,-145.35 2696.56,-144.61 2692,-144 2465.49,-113.89 1746.2,-96.43 1546.73,-92.08"/>
<polygon fill="grey" stroke="grey" stroke-width="2" points="1546.6,-88.58 1536.53,-91.86 1546.45,-95.57 1546.6,-88.58"/>
</g>
<!-- 37&#45;&gt;1 -->
<g id="edge27" class="edge">
<title>37&#45;&gt;1</title>
<path fill="none" stroke="grey" stroke-width="2" d="M80.21,-215.8C93.94,-194.51 120.54,-159.22 154,-144 272.8,-89.96 1210.87,-89.92 1443.12,-90.75"/>
<polygon fill="grey" stroke="grey" stroke-width="2" points="1443.31,-94.25 1453.32,-90.78 1443.34,-87.25 1443.31,-94.25"/>
</g>
<!-- 38&#45;&gt;1 -->
<g id="edge28" class="edge">
<title>38&#45;&gt;1</title>
<path fill="none" stroke="grey" stroke-width="2" d="M698.3,-215.98C712.11,-194.88 738.8,-159.78 772,-144 832.18,-115.4 1287.5,-97.85 1443.08,-92.64"/>
<polygon fill="grey" stroke="grey" stroke-width="2" points="1443.44,-96.13 1453.32,-92.3 1443.21,-89.13 1443.44,-96.13"/>
</g>
<!-- 39&#45;&gt;1 -->
<g id="edge29" class="edge">
<title>39&#45;&gt;1</title>
<path fill="none" stroke="grey" stroke-width="2" d="M1319.09,-215.9C1334.48,-196.62 1361.56,-165.21 1390,-144 1406.52,-131.68 1426.33,-120.84 1444.27,-112.22"/>
<polygon fill="grey" stroke="grey" stroke-width="2" points="1445.88,-115.33 1453.45,-107.92 1442.91,-108.99 1445.88,-115.33"/>
</g>
<!-- 40&#45;&gt;1 -->
<g id="edge30" class="edge">
<title>40&#45;&gt;1</title>
<path fill="none" stroke="grey" stroke-width="2" d="M1913.19,-215.66C1899.25,-194.92 1872.94,-160.88 1841,-144 1790.9,-117.53 1630.21,-101.5 1546.62,-94.75"/>
<polygon fill="grey" stroke="grey" stroke-width="2" points="1546.82,-91.25 1536.57,-93.95 1546.27,-98.23 1546.82,-91.25"/>
</g>
<!-- 41&#45;&gt;1 -->
<g id="edge31" class="edge">
<title>41&#45;&gt;1</title>
<path fill="none" stroke="grey" stroke-width="2" d="M2530.54,-215.86C2515.25,-194.64 2485.99,-159.41 2451,-144 2368.14,-107.51 1733.83,-94.74 1546.77,-91.75"/>
<polygon fill="grey" stroke="grey" stroke-width="2" points="1546.7,-88.25 1536.64,-91.59 1546.59,-95.25 1546.7,-88.25"/>
</g>
</g>
</svg>
