<?xml version="1.0" encoding="UTF-8" standalone="no"?>
<!DOCTYPE svg PUBLIC "-//W3C//DTD SVG 1.1//EN"
 "http://www.w3.org/Graphics/SVG/1.1/DTD/svg11.dtd">
<!-- Generated by graphviz version 2.43.0 (0)
 -->
<!-- Title: snakemake_dag Pages: 1 -->
<svg width="309pt" height="337pt"
 viewBox="0.00 0.00 309.00 337.00" xmlns="http://www.w3.org/2000/svg" xmlns:xlink="http://www.w3.org/1999/xlink">
<g id="graph0" class="graph" transform="scale(1 1) rotate(0) translate(4 333)">
<title>snakemake_dag</title>
<polygon fill="white" stroke="transparent" points="-4,4 -4,-333 305,-333 305,4 -4,4"/>
<!-- 0 -->
<g id="node1" class="node">
<title>0</title>
<path fill="none" stroke="#56d88a" stroke-width="2" d="M166.5,-36C166.5,-36 57.5,-36 57.5,-36 51.5,-36 45.5,-30 45.5,-24 45.5,-24 45.5,-12 45.5,-12 45.5,-6 51.5,0 57.5,0 57.5,0 166.5,0 166.5,0 172.5,0 178.5,-6 178.5,-12 178.5,-12 178.5,-24 178.5,-24 178.5,-30 172.5,-36 166.5,-36"/>
<text text-anchor="middle" x="112" y="-21" font-family="sans" font-size="10.00">paper_fig_from_number</text>
<text text-anchor="middle" x="112" y="-10" font-family="sans" font-size="10.00">n: 4</text>
</g>
<!-- 1 -->
<g id="node2" class="node">
<title>1</title>
<path fill="none" stroke="#97d856" stroke-width="2" stroke-dasharray="5,2" d="M155.5,-108C155.5,-108 68.5,-108 68.5,-108 62.5,-108 56.5,-102 56.5,-96 56.5,-96 56.5,-84 56.5,-84 56.5,-78 62.5,-72 68.5,-72 68.5,-72 155.5,-72 155.5,-72 161.5,-72 167.5,-78 167.5,-84 167.5,-84 167.5,-96 167.5,-96 167.5,-102 161.5,-108 155.5,-108"/>
<text text-anchor="middle" x="112" y="-93" font-family="sans" font-size="10.00">plot_config_paper</text>
<text text-anchor="middle" x="112" y="-82" font-family="sans" font-size="10.00">fig: sst_sss_sigma0</text>
</g>
<!-- 1&#45;&gt;0 -->
<g id="edge1" class="edge">
<title>1&#45;&gt;0</title>
<path fill="none" stroke="grey" stroke-width="2" d="M112,-71.7C112,-63.98 112,-54.71 112,-46.11"/>
<polygon fill="grey" stroke="grey" stroke-width="2" points="115.5,-46.1 112,-36.1 108.5,-46.1 115.5,-46.1"/>
</g>
<!-- 2 -->
<g id="node3" class="node">
<title>2</title>
<path fill="none" stroke="#56d863" stroke-width="2" stroke-dasharray="5,2" d="M170,-252C170,-252 54,-252 54,-252 48,-252 42,-246 42,-240 42,-240 42,-228 42,-228 42,-222 48,-216 54,-216 54,-216 170,-216 170,-216 176,-216 182,-222 182,-228 182,-228 182,-240 182,-240 182,-246 176,-252 170,-252"/>
<text text-anchor="middle" x="112" y="-231.5" font-family="sans" font-size="10.00">process_with_xnemogcm</text>
</g>
<!-- 2&#45;&gt;1 -->
<g id="edge2" class="edge">
<title>2&#45;&gt;1</title>
<path fill="none" stroke="grey" stroke-width="2" d="M75.97,-215.81C62.08,-207.16 47.7,-195.24 40,-180 32.78,-165.72 32.78,-158.28 40,-144 46.14,-131.86 56.52,-121.82 67.51,-113.86"/>
<polygon fill="grey" stroke="grey" stroke-width="2" points="69.62,-116.66 75.97,-108.19 65.72,-110.85 69.62,-116.66"/>
</g>
<!-- 4 -->
<g id="node5" class="node">
<title>4</title>
<path fill="none" stroke="#56d8b1" stroke-width="2" stroke-dasharray="5,2" d="M162.5,-180C162.5,-180 61.5,-180 61.5,-180 55.5,-180 49.5,-174 49.5,-168 49.5,-168 49.5,-156 49.5,-156 49.5,-150 55.5,-144 61.5,-144 61.5,-144 162.5,-144 162.5,-144 168.5,-144 174.5,-150 174.5,-156 174.5,-156 174.5,-168 174.5,-168 174.5,-174 168.5,-180 162.5,-180"/>
<text text-anchor="middle" x="112" y="-159.5" font-family="sans" font-size="10.00">diag_thermodynamics</text>
</g>
<!-- 2&#45;&gt;4 -->
<g id="edge6" class="edge">
<title>2&#45;&gt;4</title>
<path fill="none" stroke="grey" stroke-width="2" d="M112,-215.7C112,-207.98 112,-198.71 112,-190.11"/>
<polygon fill="grey" stroke="grey" stroke-width="2" points="115.5,-190.1 112,-180.1 108.5,-190.1 115.5,-190.1"/>
</g>
<!-- 5 -->
<g id="node6" class="node">
<title>5</title>
<path fill="none" stroke="#566bd8" stroke-width="2" stroke-dasharray="5,2" d="M289,-180C289,-180 205,-180 205,-180 199,-180 193,-174 193,-168 193,-168 193,-156 193,-156 193,-150 199,-144 205,-144 205,-144 289,-144 289,-144 295,-144 301,-150 301,-156 301,-156 301,-168 301,-168 301,-174 295,-180 289,-180"/>
<text text-anchor="middle" x="247" y="-159.5" font-family="sans" font-size="10.00">diag_forcing_fields</text>
</g>
<!-- 2&#45;&gt;5 -->
<g id="edge7" class="edge">
<title>2&#45;&gt;5</title>
<path fill="none" stroke="grey" stroke-width="2" d="M145.02,-215.88C163.08,-206.51 185.65,-194.81 204.95,-184.8"/>
<polygon fill="grey" stroke="grey" stroke-width="2" points="206.58,-187.9 213.85,-180.19 203.36,-181.69 206.58,-187.9"/>
</g>
<!-- 3 -->
<g id="node4" class="node">
<title>3</title>
<path fill="none" stroke="#56d86b" stroke-width="2" stroke-dasharray="5,2" d="M212,-329C212,-329 12,-329 12,-329 6,-329 0,-323 0,-317 0,-317 0,-300 0,-300 0,-294 6,-288 12,-288 12,-288 212,-288 212,-288 218,-288 224,-294 224,-300 224,-300 224,-317 224,-317 224,-323 218,-329 212,-329"/>
<text text-anchor="middle" x="112" y="-317" font-family="sans" font-size="10.00">process_delta_t</text>
<text text-anchor="middle" x="112" y="-306" font-family="sans" font-size="10.00">config: EXP_rn_lambda1_0.06_rn_a0_0.165</text>
<text text-anchor="middle" x="112" y="-295" font-family="sans" font-size="10.00">exp: EXP_main</text>
</g>
<!-- 3&#45;&gt;2 -->
<g id="edge5" class="edge">
<title>3&#45;&gt;2</title>
<path fill="none" stroke="grey" stroke-width="2" d="M112,-287.69C112,-279.91 112,-270.84 112,-262.45"/>
<polygon fill="grey" stroke="grey" stroke-width="2" points="115.5,-262.32 112,-252.32 108.5,-262.32 115.5,-262.32"/>
</g>
<!-- 4&#45;&gt;1 -->
<g id="edge3" class="edge">
<title>4&#45;&gt;1</title>
<path fill="none" stroke="grey" stroke-width="2" d="M112,-143.7C112,-135.98 112,-126.71 112,-118.11"/>
<polygon fill="grey" stroke="grey" stroke-width="2" points="115.5,-118.1 112,-108.1 108.5,-118.1 115.5,-118.1"/>
</g>
<!-- 5&#45;&gt;1 -->
<g id="edge4" class="edge">
<title>5&#45;&gt;1</title>
<path fill="none" stroke="grey" stroke-width="2" d="M213.98,-143.88C195.92,-134.51 173.35,-122.81 154.05,-112.8"/>
<polygon fill="grey" stroke="grey" stroke-width="2" points="155.64,-109.69 145.15,-108.19 152.42,-115.9 155.64,-109.69"/>
</g>
</g>
</svg>
