<?xml version="1.0" encoding="UTF-8" standalone="no"?>
<!DOCTYPE svg PUBLIC "-//W3C//DTD SVG 1.1//EN"
 "http://www.w3.org/Graphics/SVG/1.1/DTD/svg11.dtd">
<!-- Generated by graphviz version 2.43.0 (0)
 -->
<!-- Title: snakemake_dag Pages: 1 -->
<svg width="2406pt" height="481pt"
 viewBox="0.00 0.00 2406.01 481.00" xmlns="http://www.w3.org/2000/svg" xmlns:xlink="http://www.w3.org/1999/xlink">
<g id="graph0" class="graph" transform="scale(1 1) rotate(0) translate(4 477)">
<title>snakemake_dag</title>
<polygon fill="white" stroke="transparent" points="-4,4 -4,-477 2402.01,-477 2402.01,4 -4,4"/>
<!-- 0 -->
<g id="node1" class="node">
<title>0</title>
<path fill="none" stroke="#d8bc56" stroke-width="2" d="M1138.51,-36C1138.51,-36 1029.51,-36 1029.51,-36 1023.51,-36 1017.51,-30 1017.51,-24 1017.51,-24 1017.51,-12 1017.51,-12 1017.51,-6 1023.51,0 1029.51,0 1029.51,0 1138.51,0 1138.51,0 1144.51,0 1150.51,-6 1150.51,-12 1150.51,-12 1150.51,-24 1150.51,-24 1150.51,-30 1144.51,-36 1138.51,-36"/>
<text text-anchor="middle" x="1084.01" y="-21" font-family="sans" font-size="10.00">paper_fig_from_number</text>
<text text-anchor="middle" x="1084.01" y="-10" font-family="sans" font-size="10.00">n: 10</text>
</g>
<!-- 1 -->
<g id="node2" class="node">
<title>1</title>
<path fill="none" stroke="#56d8c9" stroke-width="2" stroke-dasharray="5,2" d="M1134.51,-108C1134.51,-108 1033.51,-108 1033.51,-108 1027.51,-108 1021.51,-102 1021.51,-96 1021.51,-96 1021.51,-84 1021.51,-84 1021.51,-78 1027.51,-72 1033.51,-72 1033.51,-72 1134.51,-72 1134.51,-72 1140.51,-72 1146.51,-78 1146.51,-84 1146.51,-84 1146.51,-96 1146.51,-96 1146.51,-102 1140.51,-108 1134.51,-108"/>
<text text-anchor="middle" x="1084.01" y="-87.5" font-family="sans" font-size="10.00">plot_properties_vs_lat</text>
</g>
<!-- 1&#45;&gt;0 -->
<g id="edge1" class="edge">
<title>1&#45;&gt;0</title>
<path fill="none" stroke="grey" stroke-width="2" d="M1084.01,-71.7C1084.01,-63.98 1084.01,-54.71 1084.01,-46.11"/>
<polygon fill="grey" stroke="grey" stroke-width="2" points="1087.51,-46.1 1084.01,-36.1 1080.51,-46.1 1087.51,-46.1"/>
</g>
<!-- 2 -->
<g id="node3" class="node">
<title>2</title>
<path fill="none" stroke="#d89c56" stroke-width="2" stroke-dasharray="5,2" d="M256.01,-396C256.01,-396 140.01,-396 140.01,-396 134.01,-396 128.01,-390 128.01,-384 128.01,-384 128.01,-372 128.01,-372 128.01,-366 134.01,-360 140.01,-360 140.01,-360 256.01,-360 256.01,-360 262.01,-360 268.01,-366 268.01,-372 268.01,-372 268.01,-384 268.01,-384 268.01,-390 262.01,-396 256.01,-396"/>
<text text-anchor="middle" x="198.01" y="-375.5" font-family="sans" font-size="10.00">process_with_xnemogcm</text>
</g>
<!-- 2&#45;&gt;1 -->
<g id="edge2" class="edge">
<title>2&#45;&gt;1</title>
<path fill="none" stroke="grey" stroke-width="2" d="M128.27,-359.96C106.82,-351.93 84.53,-340.4 68.01,-324 9.84,-266.27 -28.47,-203.38 28.01,-144 61.88,-108.39 778.31,-95.27 1011.42,-91.93"/>
<polygon fill="grey" stroke="grey" stroke-width="2" points="1011.54,-95.43 1021.49,-91.79 1011.45,-88.43 1011.54,-95.43"/>
</g>
<!-- 12 -->
<g id="node13" class="node">
<title>12</title>
<path fill="none" stroke="#d85e56" stroke-width="2" stroke-dasharray="5,2" d="M416.01,-180C416.01,-180 330.01,-180 330.01,-180 324.01,-180 318.01,-174 318.01,-168 318.01,-168 318.01,-156 318.01,-156 318.01,-150 324.01,-144 330.01,-144 330.01,-144 416.01,-144 416.01,-144 422.01,-144 428.01,-150 428.01,-156 428.01,-156 428.01,-168 428.01,-168 428.01,-174 422.01,-180 416.01,-180"/>
<text text-anchor="middle" x="373.01" y="-159.5" font-family="sans" font-size="10.00">diag_front_position</text>
</g>
<!-- 2&#45;&gt;12 -->
<g id="edge27" class="edge">
<title>2&#45;&gt;12</title>
<path fill="none" stroke="grey" stroke-width="2" d="M197.26,-359.99C196.8,-327.36 200.65,-255.69 240.01,-216 258.39,-197.46 284.08,-185.22 307.98,-177.22"/>
<polygon fill="grey" stroke="grey" stroke-width="2" points="309.25,-180.49 317.74,-174.15 307.15,-173.81 309.25,-180.49"/>
</g>
<!-- 13 -->
<g id="node14" class="node">
<title>13</title>
<path fill="none" stroke="#61d856" stroke-width="2" stroke-dasharray="5,2" d="M435.01,-252C435.01,-252 403.01,-252 403.01,-252 397.01,-252 391.01,-246 391.01,-240 391.01,-240 391.01,-228 391.01,-228 391.01,-222 397.01,-216 403.01,-216 403.01,-216 435.01,-216 435.01,-216 441.01,-216 447.01,-222 447.01,-228 447.01,-228 447.01,-240 447.01,-240 447.01,-246 441.01,-252 435.01,-252"/>
<text text-anchor="middle" x="419.01" y="-231.5" font-family="sans" font-size="10.00">diag_sci</text>
</g>
<!-- 2&#45;&gt;13 -->
<g id="edge30" class="edge">
<title>2&#45;&gt;13</title>
<path fill="none" stroke="grey" stroke-width="2" d="M268.33,-370.53C304.97,-363.94 348.4,-350.67 379.01,-324 397.39,-307.99 407.75,-281.85 413.29,-262.03"/>
<polygon fill="grey" stroke="grey" stroke-width="2" points="416.69,-262.89 415.77,-252.33 409.9,-261.16 416.69,-262.89"/>
</g>
<!-- 14 -->
<g id="node15" class="node">
<title>14</title>
<path fill="none" stroke="#5673d8" stroke-width="2" stroke-dasharray="5,2" d="M358.51,-324C358.51,-324 257.51,-324 257.51,-324 251.51,-324 245.51,-318 245.51,-312 245.51,-312 245.51,-300 245.51,-300 245.51,-294 251.51,-288 257.51,-288 257.51,-288 358.51,-288 358.51,-288 364.51,-288 370.51,-294 370.51,-300 370.51,-300 370.51,-312 370.51,-312 370.51,-318 364.51,-324 358.51,-324"/>
<text text-anchor="middle" x="308.01" y="-303.5" font-family="sans" font-size="10.00">diag_thermodynamics</text>
</g>
<!-- 2&#45;&gt;14 -->
<g id="edge33" class="edge">
<title>2&#45;&gt;14</title>
<path fill="none" stroke="grey" stroke-width="2" d="M224.92,-359.88C239.17,-350.81 256.86,-339.55 272.25,-329.76"/>
<polygon fill="grey" stroke="grey" stroke-width="2" points="274.44,-332.51 281,-324.19 270.68,-326.61 274.44,-332.51"/>
</g>
<!-- 15 -->
<g id="node16" class="node">
<title>15</title>
<path fill="none" stroke="#56b1d8" stroke-width="2" stroke-dasharray="5,2" d="M361.01,-252C361.01,-252 261.01,-252 261.01,-252 255.01,-252 249.01,-246 249.01,-240 249.01,-240 249.01,-228 249.01,-228 249.01,-222 255.01,-216 261.01,-216 261.01,-216 361.01,-216 361.01,-216 367.01,-216 373.01,-222 373.01,-228 373.01,-228 373.01,-240 373.01,-240 373.01,-246 367.01,-252 361.01,-252"/>
<text text-anchor="middle" x="311.01" y="-231.5" font-family="sans" font-size="10.00">diag_buoyancy_fluxes</text>
</g>
<!-- 2&#45;&gt;15 -->
<g id="edge34" class="edge">
<title>2&#45;&gt;15</title>
<path fill="none" stroke="grey" stroke-width="2" d="M202.3,-359.78C207.71,-340.68 218.48,-309.69 236.01,-288 245.54,-276.21 258.33,-265.87 270.65,-257.52"/>
<polygon fill="grey" stroke="grey" stroke-width="2" points="272.57,-260.45 279.06,-252.07 268.76,-254.58 272.57,-260.45"/>
</g>
<!-- 32 -->
<g id="node33" class="node">
<title>32</title>
<path fill="none" stroke="#5663d8" stroke-width="2" stroke-dasharray="5,2" d="M180.51,-252C180.51,-252 67.51,-252 67.51,-252 61.51,-252 55.51,-246 55.51,-240 55.51,-240 55.51,-228 55.51,-228 55.51,-222 61.51,-216 67.51,-216 67.51,-216 180.51,-216 180.51,-216 186.51,-216 192.51,-222 192.51,-228 192.51,-228 192.51,-240 192.51,-240 192.51,-246 186.51,-252 180.51,-252"/>
<text text-anchor="middle" x="124.01" y="-231.5" font-family="sans" font-size="10.00">diag_average_properties</text>
</g>
<!-- 2&#45;&gt;32 -->
<g id="edge72" class="edge">
<title>2&#45;&gt;32</title>
<path fill="none" stroke="grey" stroke-width="2" d="M186.45,-359.66C179.84,-349.46 171.59,-336.21 165.01,-324 153.91,-303.4 142.9,-279.25 135.09,-261.31"/>
<polygon fill="grey" stroke="grey" stroke-width="2" points="138.27,-259.84 131.1,-252.04 131.84,-262.61 138.27,-259.84"/>
</g>
<!-- 37 -->
<g id="node38" class="node">
<title>37</title>
<path fill="none" stroke="#59d856" stroke-width="2" stroke-dasharray="5,2" d="M133.01,-180C133.01,-180 49.01,-180 49.01,-180 43.01,-180 37.01,-174 37.01,-168 37.01,-168 37.01,-156 37.01,-156 37.01,-150 43.01,-144 49.01,-144 49.01,-144 133.01,-144 133.01,-144 139.01,-144 145.01,-150 145.01,-156 145.01,-156 145.01,-168 145.01,-168 145.01,-174 139.01,-180 133.01,-180"/>
<text text-anchor="middle" x="91.01" y="-159.5" font-family="sans" font-size="10.00">diag_forcing_fields</text>
</g>
<!-- 2&#45;&gt;37 -->
<g id="edge82" class="edge">
<title>2&#45;&gt;37</title>
<path fill="none" stroke="grey" stroke-width="2" d="M162.84,-359.99C125.93,-339.94 70.01,-302.82 46.01,-252 39.18,-237.53 40.49,-231.02 46.01,-216 49.79,-205.7 56.57,-196.02 63.73,-187.84"/>
<polygon fill="grey" stroke="grey" stroke-width="2" points="66.35,-190.16 70.63,-180.47 61.24,-185.38 66.35,-190.16"/>
</g>
<!-- 3 -->
<g id="node4" class="node">
<title>3</title>
<path fill="none" stroke="#56d873" stroke-width="2" stroke-dasharray="5,2" d="M488.01,-473C488.01,-473 288.01,-473 288.01,-473 282.01,-473 276.01,-467 276.01,-461 276.01,-461 276.01,-444 276.01,-444 276.01,-438 282.01,-432 288.01,-432 288.01,-432 488.01,-432 488.01,-432 494.01,-432 500.01,-438 500.01,-444 500.01,-444 500.01,-461 500.01,-461 500.01,-467 494.01,-473 488.01,-473"/>
<text text-anchor="middle" x="388.01" y="-461" font-family="sans" font-size="10.00">process_delta_t</text>
<text text-anchor="middle" x="388.01" y="-450" font-family="sans" font-size="10.00">config: EXP_rn_lambda1_0.06_rn_a0_0.165</text>
<text text-anchor="middle" x="388.01" y="-439" font-family="sans" font-size="10.00">exp: EXP_main</text>
</g>
<!-- 3&#45;&gt;2 -->
<g id="edge22" class="edge">
<title>3&#45;&gt;2</title>
<path fill="none" stroke="grey" stroke-width="2" d="M336.84,-431.98C310.71,-422 278.9,-409.87 252.33,-399.73"/>
<polygon fill="grey" stroke="grey" stroke-width="2" points="253.39,-396.38 242.8,-396.09 250.89,-402.92 253.39,-396.38"/>
</g>
<!-- 3&#45;&gt;13 -->
<g id="edge32" class="edge">
<title>3&#45;&gt;13</title>
<path fill="none" stroke="grey" stroke-width="2" d="M390.82,-431.91C396.36,-393.15 408.75,-306.64 415.1,-262.32"/>
<polygon fill="grey" stroke="grey" stroke-width="2" points="418.58,-262.66 416.54,-252.27 411.66,-261.67 418.58,-262.66"/>
</g>
<!-- 4 -->
<g id="node5" class="node">
<title>4</title>
<path fill="none" stroke="#d89c56" stroke-width="2" stroke-dasharray="5,2" d="M742.01,-396C742.01,-396 626.01,-396 626.01,-396 620.01,-396 614.01,-390 614.01,-384 614.01,-384 614.01,-372 614.01,-372 614.01,-366 620.01,-360 626.01,-360 626.01,-360 742.01,-360 742.01,-360 748.01,-360 754.01,-366 754.01,-372 754.01,-372 754.01,-384 754.01,-384 754.01,-390 748.01,-396 742.01,-396"/>
<text text-anchor="middle" x="684.01" y="-375.5" font-family="sans" font-size="10.00">process_with_xnemogcm</text>
</g>
<!-- 4&#45;&gt;1 -->
<g id="edge3" class="edge">
<title>4&#45;&gt;1</title>
<path fill="none" stroke="grey" stroke-width="2" d="M614.72,-359.97C593.17,-351.93 570.72,-340.38 554.01,-324 496.89,-267.98 488.73,-191.63 553.01,-144 589.05,-117.3 874.42,-100.66 1011.28,-94.15"/>
<polygon fill="grey" stroke="grey" stroke-width="2" points="1011.44,-97.64 1021.27,-93.68 1011.12,-90.65 1011.44,-97.64"/>
</g>
<!-- 16 -->
<g id="node17" class="node">
<title>16</title>
<path fill="none" stroke="#d85e56" stroke-width="2" stroke-dasharray="5,2" d="M880.01,-180C880.01,-180 794.01,-180 794.01,-180 788.01,-180 782.01,-174 782.01,-168 782.01,-168 782.01,-156 782.01,-156 782.01,-150 788.01,-144 794.01,-144 794.01,-144 880.01,-144 880.01,-144 886.01,-144 892.01,-150 892.01,-156 892.01,-156 892.01,-168 892.01,-168 892.01,-174 886.01,-180 880.01,-180"/>
<text text-anchor="middle" x="837.01" y="-159.5" font-family="sans" font-size="10.00">diag_front_position</text>
</g>
<!-- 4&#45;&gt;16 -->
<g id="edge36" class="edge">
<title>4&#45;&gt;16</title>
<path fill="none" stroke="grey" stroke-width="2" d="M683.5,-359.97C683.47,-327.62 688.08,-256.86 726.01,-216 738.7,-202.33 755.64,-191.82 772.47,-183.9"/>
<polygon fill="grey" stroke="grey" stroke-width="2" points="774.06,-187.03 781.78,-179.77 771.22,-180.63 774.06,-187.03"/>
</g>
<!-- 17 -->
<g id="node18" class="node">
<title>17</title>
<path fill="none" stroke="#61d856" stroke-width="2" stroke-dasharray="5,2" d="M921.01,-252C921.01,-252 889.01,-252 889.01,-252 883.01,-252 877.01,-246 877.01,-240 877.01,-240 877.01,-228 877.01,-228 877.01,-222 883.01,-216 889.01,-216 889.01,-216 921.01,-216 921.01,-216 927.01,-216 933.01,-222 933.01,-228 933.01,-228 933.01,-240 933.01,-240 933.01,-246 927.01,-252 921.01,-252"/>
<text text-anchor="middle" x="905.01" y="-231.5" font-family="sans" font-size="10.00">diag_sci</text>
</g>
<!-- 4&#45;&gt;17 -->
<g id="edge39" class="edge">
<title>4&#45;&gt;17</title>
<path fill="none" stroke="grey" stroke-width="2" d="M754.33,-370.53C790.97,-363.94 834.4,-350.67 865.01,-324 883.39,-307.99 893.75,-281.85 899.29,-262.03"/>
<polygon fill="grey" stroke="grey" stroke-width="2" points="902.69,-262.89 901.77,-252.33 895.9,-261.16 902.69,-262.89"/>
</g>
<!-- 18 -->
<g id="node19" class="node">
<title>18</title>
<path fill="none" stroke="#5673d8" stroke-width="2" stroke-dasharray="5,2" d="M844.51,-324C844.51,-324 743.51,-324 743.51,-324 737.51,-324 731.51,-318 731.51,-312 731.51,-312 731.51,-300 731.51,-300 731.51,-294 737.51,-288 743.51,-288 743.51,-288 844.51,-288 844.51,-288 850.51,-288 856.51,-294 856.51,-300 856.51,-300 856.51,-312 856.51,-312 856.51,-318 850.51,-324 844.51,-324"/>
<text text-anchor="middle" x="794.01" y="-303.5" font-family="sans" font-size="10.00">diag_thermodynamics</text>
</g>
<!-- 4&#45;&gt;18 -->
<g id="edge42" class="edge">
<title>4&#45;&gt;18</title>
<path fill="none" stroke="grey" stroke-width="2" d="M710.92,-359.88C725.17,-350.81 742.86,-339.55 758.25,-329.76"/>
<polygon fill="grey" stroke="grey" stroke-width="2" points="760.44,-332.51 767,-324.19 756.68,-326.61 760.44,-332.51"/>
</g>
<!-- 19 -->
<g id="node20" class="node">
<title>19</title>
<path fill="none" stroke="#56b1d8" stroke-width="2" stroke-dasharray="5,2" d="M847.01,-252C847.01,-252 747.01,-252 747.01,-252 741.01,-252 735.01,-246 735.01,-240 735.01,-240 735.01,-228 735.01,-228 735.01,-222 741.01,-216 747.01,-216 747.01,-216 847.01,-216 847.01,-216 853.01,-216 859.01,-222 859.01,-228 859.01,-228 859.01,-240 859.01,-240 859.01,-246 853.01,-252 847.01,-252"/>
<text text-anchor="middle" x="797.01" y="-231.5" font-family="sans" font-size="10.00">diag_buoyancy_fluxes</text>
</g>
<!-- 4&#45;&gt;19 -->
<g id="edge43" class="edge">
<title>4&#45;&gt;19</title>
<path fill="none" stroke="grey" stroke-width="2" d="M688.3,-359.78C693.71,-340.68 704.48,-309.69 722.01,-288 731.54,-276.21 744.33,-265.87 756.65,-257.52"/>
<polygon fill="grey" stroke="grey" stroke-width="2" points="758.57,-260.45 765.06,-252.07 754.76,-254.58 758.57,-260.45"/>
</g>
<!-- 33 -->
<g id="node34" class="node">
<title>33</title>
<path fill="none" stroke="#5663d8" stroke-width="2" stroke-dasharray="5,2" d="M666.51,-252C666.51,-252 553.51,-252 553.51,-252 547.51,-252 541.51,-246 541.51,-240 541.51,-240 541.51,-228 541.51,-228 541.51,-222 547.51,-216 553.51,-216 553.51,-216 666.51,-216 666.51,-216 672.51,-216 678.51,-222 678.51,-228 678.51,-228 678.51,-240 678.51,-240 678.51,-246 672.51,-252 666.51,-252"/>
<text text-anchor="middle" x="610.01" y="-231.5" font-family="sans" font-size="10.00">diag_average_properties</text>
</g>
<!-- 4&#45;&gt;33 -->
<g id="edge74" class="edge">
<title>4&#45;&gt;33</title>
<path fill="none" stroke="grey" stroke-width="2" d="M672.45,-359.66C665.84,-349.46 657.59,-336.21 651.01,-324 639.91,-303.4 628.9,-279.25 621.09,-261.31"/>
<polygon fill="grey" stroke="grey" stroke-width="2" points="624.27,-259.84 617.1,-252.04 617.84,-262.61 624.27,-259.84"/>
</g>
<!-- 38 -->
<g id="node39" class="node">
<title>38</title>
<path fill="none" stroke="#59d856" stroke-width="2" stroke-dasharray="5,2" d="M658.01,-180C658.01,-180 574.01,-180 574.01,-180 568.01,-180 562.01,-174 562.01,-168 562.01,-168 562.01,-156 562.01,-156 562.01,-150 568.01,-144 574.01,-144 574.01,-144 658.01,-144 658.01,-144 664.01,-144 670.01,-150 670.01,-156 670.01,-156 670.01,-168 670.01,-168 670.01,-174 664.01,-180 658.01,-180"/>
<text text-anchor="middle" x="616.01" y="-159.5" font-family="sans" font-size="10.00">diag_forcing_fields</text>
</g>
<!-- 4&#45;&gt;38 -->
<g id="edge83" class="edge">
<title>4&#45;&gt;38</title>
<path fill="none" stroke="grey" stroke-width="2" d="M648.84,-359.99C611.93,-339.94 556.01,-302.82 532.01,-252 525.18,-237.53 524.28,-230.01 532.01,-216 539.11,-203.12 550.81,-192.94 563.25,-185.08"/>
<polygon fill="grey" stroke="grey" stroke-width="2" points="565.06,-188.08 571.94,-180.02 561.54,-182.03 565.06,-188.08"/>
</g>
<!-- 5 -->
<g id="node6" class="node">
<title>5</title>
<path fill="none" stroke="#56d873" stroke-width="2" stroke-dasharray="5,2" d="M833.01,-473C833.01,-473 633.01,-473 633.01,-473 627.01,-473 621.01,-467 621.01,-461 621.01,-461 621.01,-444 621.01,-444 621.01,-438 627.01,-432 633.01,-432 633.01,-432 833.01,-432 833.01,-432 839.01,-432 845.01,-438 845.01,-444 845.01,-444 845.01,-461 845.01,-461 845.01,-467 839.01,-473 833.01,-473"/>
<text text-anchor="middle" x="733.01" y="-461" font-family="sans" font-size="10.00">process_delta_t</text>
<text text-anchor="middle" x="733.01" y="-450" font-family="sans" font-size="10.00">config: EXP_rn_lambda1_0.08_rn_a0_0.165</text>
<text text-anchor="middle" x="733.01" y="-439" font-family="sans" font-size="10.00">exp: EXP_main</text>
</g>
<!-- 5&#45;&gt;4 -->
<g id="edge23" class="edge">
<title>5&#45;&gt;4</title>
<path fill="none" stroke="grey" stroke-width="2" d="M719.62,-431.69C714.01,-423.39 707.41,-413.63 701.43,-404.78"/>
<polygon fill="grey" stroke="grey" stroke-width="2" points="704.22,-402.64 695.72,-396.32 698.42,-406.56 704.22,-402.64"/>
</g>
<!-- 5&#45;&gt;17 -->
<g id="edge41" class="edge">
<title>5&#45;&gt;17</title>
<path fill="none" stroke="grey" stroke-width="2" d="M771.45,-431.89C808.8,-410.65 863.88,-373.13 892.01,-324 902.71,-305.31 905.66,-280.92 906.09,-262.4"/>
<polygon fill="grey" stroke="grey" stroke-width="2" points="909.59,-262.27 906.1,-252.27 902.59,-262.26 909.59,-262.27"/>
</g>
<!-- 6 -->
<g id="node7" class="node">
<title>6</title>
<path fill="none" stroke="#d89c56" stroke-width="2" stroke-dasharray="5,2" d="M1228.01,-396C1228.01,-396 1112.01,-396 1112.01,-396 1106.01,-396 1100.01,-390 1100.01,-384 1100.01,-384 1100.01,-372 1100.01,-372 1100.01,-366 1106.01,-360 1112.01,-360 1112.01,-360 1228.01,-360 1228.01,-360 1234.01,-360 1240.01,-366 1240.01,-372 1240.01,-372 1240.01,-384 1240.01,-384 1240.01,-390 1234.01,-396 1228.01,-396"/>
<text text-anchor="middle" x="1170.01" y="-375.5" font-family="sans" font-size="10.00">process_with_xnemogcm</text>
</g>
<!-- 6&#45;&gt;1 -->
<g id="edge4" class="edge">
<title>6&#45;&gt;1</title>
<path fill="none" stroke="grey" stroke-width="2" d="M1100.27,-359.96C1078.82,-351.93 1056.53,-340.4 1040.01,-324 990.8,-275.16 993.61,-247.99 980.01,-180 976.87,-164.31 971.65,-157.64 980.01,-144 988.26,-130.53 1001.13,-120.36 1015.03,-112.71"/>
<polygon fill="grey" stroke="grey" stroke-width="2" points="1016.93,-115.67 1024.28,-108.04 1013.78,-109.42 1016.93,-115.67"/>
</g>
<!-- 20 -->
<g id="node21" class="node">
<title>20</title>
<path fill="none" stroke="#d85e56" stroke-width="2" stroke-dasharray="5,2" d="M1289.01,-180C1289.01,-180 1203.01,-180 1203.01,-180 1197.01,-180 1191.01,-174 1191.01,-168 1191.01,-168 1191.01,-156 1191.01,-156 1191.01,-150 1197.01,-144 1203.01,-144 1203.01,-144 1289.01,-144 1289.01,-144 1295.01,-144 1301.01,-150 1301.01,-156 1301.01,-156 1301.01,-168 1301.01,-168 1301.01,-174 1295.01,-180 1289.01,-180"/>
<text text-anchor="middle" x="1246.01" y="-159.5" font-family="sans" font-size="10.00">diag_front_position</text>
</g>
<!-- 6&#45;&gt;20 -->
<g id="edge45" class="edge">
<title>6&#45;&gt;20</title>
<path fill="none" stroke="grey" stroke-width="2" d="M1171.62,-359.71C1173.56,-341.61 1177.41,-312.46 1184.01,-288 1192.95,-254.85 1196.44,-246.6 1212.01,-216 1216.72,-206.74 1222.62,-197.06 1228.17,-188.54"/>
<polygon fill="grey" stroke="grey" stroke-width="2" points="1231.13,-190.41 1233.77,-180.15 1225.31,-186.52 1231.13,-190.41"/>
</g>
<!-- 21 -->
<g id="node22" class="node">
<title>21</title>
<path fill="none" stroke="#61d856" stroke-width="2" stroke-dasharray="5,2" d="M1407.01,-252C1407.01,-252 1375.01,-252 1375.01,-252 1369.01,-252 1363.01,-246 1363.01,-240 1363.01,-240 1363.01,-228 1363.01,-228 1363.01,-222 1369.01,-216 1375.01,-216 1375.01,-216 1407.01,-216 1407.01,-216 1413.01,-216 1419.01,-222 1419.01,-228 1419.01,-228 1419.01,-240 1419.01,-240 1419.01,-246 1413.01,-252 1407.01,-252"/>
<text text-anchor="middle" x="1391.01" y="-231.5" font-family="sans" font-size="10.00">diag_sci</text>
</g>
<!-- 6&#45;&gt;21 -->
<g id="edge48" class="edge">
<title>6&#45;&gt;21</title>
<path fill="none" stroke="grey" stroke-width="2" d="M1240.33,-370.53C1276.97,-363.94 1320.4,-350.67 1351.01,-324 1369.39,-307.99 1379.75,-281.85 1385.29,-262.03"/>
<polygon fill="grey" stroke="grey" stroke-width="2" points="1388.69,-262.89 1387.77,-252.33 1381.9,-261.16 1388.69,-262.89"/>
</g>
<!-- 22 -->
<g id="node23" class="node">
<title>22</title>
<path fill="none" stroke="#5673d8" stroke-width="2" stroke-dasharray="5,2" d="M1330.51,-324C1330.51,-324 1229.51,-324 1229.51,-324 1223.51,-324 1217.51,-318 1217.51,-312 1217.51,-312 1217.51,-300 1217.51,-300 1217.51,-294 1223.51,-288 1229.51,-288 1229.51,-288 1330.51,-288 1330.51,-288 1336.51,-288 1342.51,-294 1342.51,-300 1342.51,-300 1342.51,-312 1342.51,-312 1342.51,-318 1336.51,-324 1330.51,-324"/>
<text text-anchor="middle" x="1280.01" y="-303.5" font-family="sans" font-size="10.00">diag_thermodynamics</text>
</g>
<!-- 6&#45;&gt;22 -->
<g id="edge51" class="edge">
<title>6&#45;&gt;22</title>
<path fill="none" stroke="grey" stroke-width="2" d="M1196.92,-359.88C1211.17,-350.81 1228.86,-339.55 1244.25,-329.76"/>
<polygon fill="grey" stroke="grey" stroke-width="2" points="1246.44,-332.51 1253,-324.19 1242.68,-326.61 1246.44,-332.51"/>
</g>
<!-- 23 -->
<g id="node24" class="node">
<title>23</title>
<path fill="none" stroke="#56b1d8" stroke-width="2" stroke-dasharray="5,2" d="M1333.01,-252C1333.01,-252 1233.01,-252 1233.01,-252 1227.01,-252 1221.01,-246 1221.01,-240 1221.01,-240 1221.01,-228 1221.01,-228 1221.01,-222 1227.01,-216 1233.01,-216 1233.01,-216 1333.01,-216 1333.01,-216 1339.01,-216 1345.01,-222 1345.01,-228 1345.01,-228 1345.01,-240 1345.01,-240 1345.01,-246 1339.01,-252 1333.01,-252"/>
<text text-anchor="middle" x="1283.01" y="-231.5" font-family="sans" font-size="10.00">diag_buoyancy_fluxes</text>
</g>
<!-- 6&#45;&gt;23 -->
<g id="edge52" class="edge">
<title>6&#45;&gt;23</title>
<path fill="none" stroke="grey" stroke-width="2" d="M1174.3,-359.78C1179.71,-340.68 1190.48,-309.69 1208.01,-288 1217.54,-276.21 1230.33,-265.87 1242.65,-257.52"/>
<polygon fill="grey" stroke="grey" stroke-width="2" points="1244.57,-260.45 1251.06,-252.07 1240.76,-254.58 1244.57,-260.45"/>
</g>
<!-- 34 -->
<g id="node35" class="node">
<title>34</title>
<path fill="none" stroke="#5663d8" stroke-width="2" stroke-dasharray="5,2" d="M1152.51,-252C1152.51,-252 1039.51,-252 1039.51,-252 1033.51,-252 1027.51,-246 1027.51,-240 1027.51,-240 1027.51,-228 1027.51,-228 1027.51,-222 1033.51,-216 1039.51,-216 1039.51,-216 1152.51,-216 1152.51,-216 1158.51,-216 1164.51,-222 1164.51,-228 1164.51,-228 1164.51,-240 1164.51,-240 1164.51,-246 1158.51,-252 1152.51,-252"/>
<text text-anchor="middle" x="1096.01" y="-231.5" font-family="sans" font-size="10.00">diag_average_properties</text>
</g>
<!-- 6&#45;&gt;34 -->
<g id="edge76" class="edge">
<title>6&#45;&gt;34</title>
<path fill="none" stroke="grey" stroke-width="2" d="M1158.45,-359.66C1151.84,-349.46 1143.59,-336.21 1137.01,-324 1125.91,-303.4 1114.9,-279.25 1107.09,-261.31"/>
<polygon fill="grey" stroke="grey" stroke-width="2" points="1110.27,-259.84 1103.1,-252.04 1103.84,-262.61 1110.27,-259.84"/>
</g>
<!-- 39 -->
<g id="node40" class="node">
<title>39</title>
<path fill="none" stroke="#59d856" stroke-width="2" stroke-dasharray="5,2" d="M1085.01,-180C1085.01,-180 1001.01,-180 1001.01,-180 995.01,-180 989.01,-174 989.01,-168 989.01,-168 989.01,-156 989.01,-156 989.01,-150 995.01,-144 1001.01,-144 1001.01,-144 1085.01,-144 1085.01,-144 1091.01,-144 1097.01,-150 1097.01,-156 1097.01,-156 1097.01,-168 1097.01,-168 1097.01,-174 1091.01,-180 1085.01,-180"/>
<text text-anchor="middle" x="1043.01" y="-159.5" font-family="sans" font-size="10.00">diag_forcing_fields</text>
</g>
<!-- 6&#45;&gt;39 -->
<g id="edge84" class="edge">
<title>6&#45;&gt;39</title>
<path fill="none" stroke="grey" stroke-width="2" d="M1134.84,-359.99C1097.93,-339.94 1042.01,-302.82 1018.01,-252 1008.44,-231.73 1016.75,-207.09 1026.28,-188.88"/>
<polygon fill="grey" stroke="grey" stroke-width="2" points="1029.43,-190.43 1031.29,-180 1023.33,-186.99 1029.43,-190.43"/>
</g>
<!-- 7 -->
<g id="node8" class="node">
<title>7</title>
<path fill="none" stroke="#56d873" stroke-width="2" stroke-dasharray="5,2" d="M1390.01,-473C1390.01,-473 1190.01,-473 1190.01,-473 1184.01,-473 1178.01,-467 1178.01,-461 1178.01,-461 1178.01,-444 1178.01,-444 1178.01,-438 1184.01,-432 1190.01,-432 1190.01,-432 1390.01,-432 1390.01,-432 1396.01,-432 1402.01,-438 1402.01,-444 1402.01,-444 1402.01,-461 1402.01,-461 1402.01,-467 1396.01,-473 1390.01,-473"/>
<text text-anchor="middle" x="1290.01" y="-461" font-family="sans" font-size="10.00">process_delta_t</text>
<text text-anchor="middle" x="1290.01" y="-450" font-family="sans" font-size="10.00">config: EXP_rn_lambda1_0.06_rn_a0_0.145</text>
<text text-anchor="middle" x="1290.01" y="-439" font-family="sans" font-size="10.00">exp: EXP_main</text>
</g>
<!-- 7&#45;&gt;6 -->
<g id="edge24" class="edge">
<title>7&#45;&gt;6</title>
<path fill="none" stroke="grey" stroke-width="2" d="M1257.54,-431.88C1241.96,-422.47 1223.22,-411.15 1207.08,-401.4"/>
<polygon fill="grey" stroke="grey" stroke-width="2" points="1208.79,-398.34 1198.42,-396.17 1205.17,-404.33 1208.79,-398.34"/>
</g>
<!-- 7&#45;&gt;21 -->
<g id="edge50" class="edge">
<title>7&#45;&gt;21</title>
<path fill="none" stroke="grey" stroke-width="2" d="M1307.83,-431.99C1328.36,-408.32 1361.38,-366.3 1378.01,-324 1385.76,-304.29 1388.95,-280.49 1390.23,-262.46"/>
<polygon fill="grey" stroke="grey" stroke-width="2" points="1393.73,-262.5 1390.8,-252.32 1386.74,-262.11 1393.73,-262.5"/>
</g>
<!-- 8 -->
<g id="node9" class="node">
<title>8</title>
<path fill="none" stroke="#d89c56" stroke-width="2" stroke-dasharray="5,2" d="M1726.01,-396C1726.01,-396 1610.01,-396 1610.01,-396 1604.01,-396 1598.01,-390 1598.01,-384 1598.01,-384 1598.01,-372 1598.01,-372 1598.01,-366 1604.01,-360 1610.01,-360 1610.01,-360 1726.01,-360 1726.01,-360 1732.01,-360 1738.01,-366 1738.01,-372 1738.01,-372 1738.01,-384 1738.01,-384 1738.01,-390 1732.01,-396 1726.01,-396"/>
<text text-anchor="middle" x="1668.01" y="-375.5" font-family="sans" font-size="10.00">process_with_xnemogcm</text>
</g>
<!-- 8&#45;&gt;1 -->
<g id="edge5" class="edge">
<title>8&#45;&gt;1</title>
<path fill="none" stroke="grey" stroke-width="2" d="M1597.97,-374.74C1555.01,-369.8 1501.61,-356.8 1466.01,-324 1428.59,-289.52 1460.03,-255.55 1428.01,-216 1389.35,-168.25 1366.85,-167.31 1310.01,-144 1260.61,-123.75 1201.82,-110.26 1156.58,-101.96"/>
<polygon fill="grey" stroke="grey" stroke-width="2" points="1157.02,-98.49 1146.56,-100.17 1155.78,-105.38 1157.02,-98.49"/>
</g>
<!-- 24 -->
<g id="node25" class="node">
<title>24</title>
<path fill="none" stroke="#d85e56" stroke-width="2" stroke-dasharray="5,2" d="M1767.01,-180C1767.01,-180 1681.01,-180 1681.01,-180 1675.01,-180 1669.01,-174 1669.01,-168 1669.01,-168 1669.01,-156 1669.01,-156 1669.01,-150 1675.01,-144 1681.01,-144 1681.01,-144 1767.01,-144 1767.01,-144 1773.01,-144 1779.01,-150 1779.01,-156 1779.01,-156 1779.01,-168 1779.01,-168 1779.01,-174 1773.01,-180 1767.01,-180"/>
<text text-anchor="middle" x="1724.01" y="-159.5" font-family="sans" font-size="10.00">diag_front_position</text>
</g>
<!-- 8&#45;&gt;24 -->
<g id="edge54" class="edge">
<title>8&#45;&gt;24</title>
<path fill="none" stroke="grey" stroke-width="2" d="M1669.56,-359.66C1672.61,-329.69 1680.65,-266.56 1698.01,-216 1701.11,-206.99 1705.38,-197.53 1709.58,-189.13"/>
<polygon fill="grey" stroke="grey" stroke-width="2" points="1712.71,-190.68 1714.21,-180.19 1706.5,-187.46 1712.71,-190.68"/>
</g>
<!-- 25 -->
<g id="node26" class="node">
<title>25</title>
<path fill="none" stroke="#61d856" stroke-width="2" stroke-dasharray="5,2" d="M1893.01,-252C1893.01,-252 1861.01,-252 1861.01,-252 1855.01,-252 1849.01,-246 1849.01,-240 1849.01,-240 1849.01,-228 1849.01,-228 1849.01,-222 1855.01,-216 1861.01,-216 1861.01,-216 1893.01,-216 1893.01,-216 1899.01,-216 1905.01,-222 1905.01,-228 1905.01,-228 1905.01,-240 1905.01,-240 1905.01,-246 1899.01,-252 1893.01,-252"/>
<text text-anchor="middle" x="1877.01" y="-231.5" font-family="sans" font-size="10.00">diag_sci</text>
</g>
<!-- 8&#45;&gt;25 -->
<g id="edge57" class="edge">
<title>8&#45;&gt;25</title>
<path fill="none" stroke="grey" stroke-width="2" d="M1738.28,-372.15C1775.59,-366.06 1819.67,-352.77 1849.01,-324 1865.5,-307.83 1872.31,-282.06 1875.1,-262.4"/>
<polygon fill="grey" stroke="grey" stroke-width="2" points="1878.61,-262.55 1876.28,-252.21 1871.66,-261.74 1878.61,-262.55"/>
</g>
<!-- 26 -->
<g id="node27" class="node">
<title>26</title>
<path fill="none" stroke="#5673d8" stroke-width="2" stroke-dasharray="5,2" d="M1828.51,-324C1828.51,-324 1727.51,-324 1727.51,-324 1721.51,-324 1715.51,-318 1715.51,-312 1715.51,-312 1715.51,-300 1715.51,-300 1715.51,-294 1721.51,-288 1727.51,-288 1727.51,-288 1828.51,-288 1828.51,-288 1834.51,-288 1840.51,-294 1840.51,-300 1840.51,-300 1840.51,-312 1840.51,-312 1840.51,-318 1834.51,-324 1828.51,-324"/>
<text text-anchor="middle" x="1778.01" y="-303.5" font-family="sans" font-size="10.00">diag_thermodynamics</text>
</g>
<!-- 8&#45;&gt;26 -->
<g id="edge60" class="edge">
<title>8&#45;&gt;26</title>
<path fill="none" stroke="grey" stroke-width="2" d="M1694.92,-359.88C1709.17,-350.81 1726.86,-339.55 1742.25,-329.76"/>
<polygon fill="grey" stroke="grey" stroke-width="2" points="1744.44,-332.51 1751,-324.19 1740.68,-326.61 1744.44,-332.51"/>
</g>
<!-- 27 -->
<g id="node28" class="node">
<title>27</title>
<path fill="none" stroke="#56b1d8" stroke-width="2" stroke-dasharray="5,2" d="M1819.01,-252C1819.01,-252 1719.01,-252 1719.01,-252 1713.01,-252 1707.01,-246 1707.01,-240 1707.01,-240 1707.01,-228 1707.01,-228 1707.01,-222 1713.01,-216 1719.01,-216 1719.01,-216 1819.01,-216 1819.01,-216 1825.01,-216 1831.01,-222 1831.01,-228 1831.01,-228 1831.01,-240 1831.01,-240 1831.01,-246 1825.01,-252 1819.01,-252"/>
<text text-anchor="middle" x="1769.01" y="-231.5" font-family="sans" font-size="10.00">diag_buoyancy_fluxes</text>
</g>
<!-- 8&#45;&gt;27 -->
<g id="edge61" class="edge">
<title>8&#45;&gt;27</title>
<path fill="none" stroke="grey" stroke-width="2" d="M1672.75,-359.7C1678.49,-340.81 1689.51,-310.28 1706.01,-288 1714.13,-277.03 1724.96,-266.87 1735.34,-258.45"/>
<polygon fill="grey" stroke="grey" stroke-width="2" points="1737.78,-260.98 1743.52,-252.08 1733.48,-255.46 1737.78,-260.98"/>
</g>
<!-- 35 -->
<g id="node36" class="node">
<title>35</title>
<path fill="none" stroke="#5663d8" stroke-width="2" stroke-dasharray="5,2" d="M1638.51,-252C1638.51,-252 1525.51,-252 1525.51,-252 1519.51,-252 1513.51,-246 1513.51,-240 1513.51,-240 1513.51,-228 1513.51,-228 1513.51,-222 1519.51,-216 1525.51,-216 1525.51,-216 1638.51,-216 1638.51,-216 1644.51,-216 1650.51,-222 1650.51,-228 1650.51,-228 1650.51,-240 1650.51,-240 1650.51,-246 1644.51,-252 1638.51,-252"/>
<text text-anchor="middle" x="1582.01" y="-231.5" font-family="sans" font-size="10.00">diag_average_properties</text>
</g>
<!-- 8&#45;&gt;35 -->
<g id="edge78" class="edge">
<title>8&#45;&gt;35</title>
<path fill="none" stroke="grey" stroke-width="2" d="M1657.22,-359.87C1650.73,-349.51 1642.34,-336.03 1635.01,-324 1622.11,-302.81 1607.72,-278.61 1597.19,-260.8"/>
<polygon fill="grey" stroke="grey" stroke-width="2" points="1600.17,-258.96 1592.07,-252.12 1594.14,-262.51 1600.17,-258.96"/>
</g>
<!-- 40 -->
<g id="node41" class="node">
<title>40</title>
<path fill="none" stroke="#59d856" stroke-width="2" stroke-dasharray="5,2" d="M1571.01,-324C1571.01,-324 1487.01,-324 1487.01,-324 1481.01,-324 1475.01,-318 1475.01,-312 1475.01,-312 1475.01,-300 1475.01,-300 1475.01,-294 1481.01,-288 1487.01,-288 1487.01,-288 1571.01,-288 1571.01,-288 1577.01,-288 1583.01,-294 1583.01,-300 1583.01,-300 1583.01,-312 1583.01,-312 1583.01,-318 1577.01,-324 1571.01,-324"/>
<text text-anchor="middle" x="1529.01" y="-303.5" font-family="sans" font-size="10.00">diag_forcing_fields</text>
</g>
<!-- 8&#45;&gt;40 -->
<g id="edge85" class="edge">
<title>8&#45;&gt;40</title>
<path fill="none" stroke="grey" stroke-width="2" d="M1634.01,-359.88C1615.41,-350.51 1592.18,-338.81 1572.3,-328.8"/>
<polygon fill="grey" stroke="grey" stroke-width="2" points="1573.65,-325.56 1563.14,-324.19 1570.5,-331.81 1573.65,-325.56"/>
</g>
<!-- 9 -->
<g id="node10" class="node">
<title>9</title>
<path fill="none" stroke="#56d873" stroke-width="2" stroke-dasharray="5,2" d="M1888.01,-473C1888.01,-473 1688.01,-473 1688.01,-473 1682.01,-473 1676.01,-467 1676.01,-461 1676.01,-461 1676.01,-444 1676.01,-444 1676.01,-438 1682.01,-432 1688.01,-432 1688.01,-432 1888.01,-432 1888.01,-432 1894.01,-432 1900.01,-438 1900.01,-444 1900.01,-444 1900.01,-461 1900.01,-461 1900.01,-467 1894.01,-473 1888.01,-473"/>
<text text-anchor="middle" x="1788.01" y="-461" font-family="sans" font-size="10.00">process_delta_t</text>
<text text-anchor="middle" x="1788.01" y="-450" font-family="sans" font-size="10.00">config: EXP_rn_lambda1_0.06_rn_a0_0.185</text>
<text text-anchor="middle" x="1788.01" y="-439" font-family="sans" font-size="10.00">exp: EXP_main</text>
</g>
<!-- 9&#45;&gt;8 -->
<g id="edge25" class="edge">
<title>9&#45;&gt;8</title>
<path fill="none" stroke="grey" stroke-width="2" d="M1755.54,-431.88C1739.96,-422.47 1721.22,-411.15 1705.08,-401.4"/>
<polygon fill="grey" stroke="grey" stroke-width="2" points="1706.79,-398.34 1696.42,-396.17 1703.17,-404.33 1706.79,-398.34"/>
</g>
<!-- 9&#45;&gt;25 -->
<g id="edge59" class="edge">
<title>9&#45;&gt;25</title>
<path fill="none" stroke="grey" stroke-width="2" d="M1806.31,-431.72C1826.84,-408.11 1859.1,-366.47 1873.01,-324 1879.54,-304.07 1880.27,-280.27 1879.52,-262.31"/>
<polygon fill="grey" stroke="grey" stroke-width="2" points="1883.01,-261.99 1878.92,-252.22 1876.02,-262.41 1883.01,-261.99"/>
</g>
<!-- 10 -->
<g id="node11" class="node">
<title>10</title>
<path fill="none" stroke="#d89c56" stroke-width="2" stroke-dasharray="5,2" d="M2225.01,-396C2225.01,-396 2109.01,-396 2109.01,-396 2103.01,-396 2097.01,-390 2097.01,-384 2097.01,-384 2097.01,-372 2097.01,-372 2097.01,-366 2103.01,-360 2109.01,-360 2109.01,-360 2225.01,-360 2225.01,-360 2231.01,-360 2237.01,-366 2237.01,-372 2237.01,-372 2237.01,-384 2237.01,-384 2237.01,-390 2231.01,-396 2225.01,-396"/>
<text text-anchor="middle" x="2167.01" y="-375.5" font-family="sans" font-size="10.00">process_with_xnemogcm</text>
</g>
<!-- 10&#45;&gt;1 -->
<g id="edge6" class="edge">
<title>10&#45;&gt;1</title>
<path fill="none" stroke="grey" stroke-width="2" d="M2096.71,-373.51C2054.12,-368.06 2001.04,-354.95 1964.01,-324 1923.43,-290.07 1949.78,-254.97 1914.01,-216 1870.4,-168.48 1849.68,-162.88 1788.01,-144 1671.73,-108.39 1312.71,-96.14 1157.14,-92.43"/>
<polygon fill="grey" stroke="grey" stroke-width="2" points="1156.82,-88.92 1146.74,-92.19 1156.66,-95.92 1156.82,-88.92"/>
</g>
<!-- 28 -->
<g id="node29" class="node">
<title>28</title>
<path fill="none" stroke="#d85e56" stroke-width="2" stroke-dasharray="5,2" d="M2255.01,-180C2255.01,-180 2169.01,-180 2169.01,-180 2163.01,-180 2157.01,-174 2157.01,-168 2157.01,-168 2157.01,-156 2157.01,-156 2157.01,-150 2163.01,-144 2169.01,-144 2169.01,-144 2255.01,-144 2255.01,-144 2261.01,-144 2267.01,-150 2267.01,-156 2267.01,-156 2267.01,-168 2267.01,-168 2267.01,-174 2261.01,-180 2255.01,-180"/>
<text text-anchor="middle" x="2212.01" y="-159.5" font-family="sans" font-size="10.00">diag_front_position</text>
</g>
<!-- 10&#45;&gt;28 -->
<g id="edge63" class="edge">
<title>10&#45;&gt;28</title>
<path fill="none" stroke="grey" stroke-width="2" d="M2167.15,-359.7C2167.81,-329.79 2171.04,-266.75 2186.01,-216 2188.71,-206.86 2192.87,-197.36 2197.09,-188.98"/>
<polygon fill="grey" stroke="grey" stroke-width="2" points="2200.22,-190.54 2201.79,-180.06 2194.03,-187.27 2200.22,-190.54"/>
</g>
<!-- 29 -->
<g id="node30" class="node">
<title>29</title>
<path fill="none" stroke="#61d856" stroke-width="2" stroke-dasharray="5,2" d="M2382.01,-252C2382.01,-252 2350.01,-252 2350.01,-252 2344.01,-252 2338.01,-246 2338.01,-240 2338.01,-240 2338.01,-228 2338.01,-228 2338.01,-222 2344.01,-216 2350.01,-216 2350.01,-216 2382.01,-216 2382.01,-216 2388.01,-216 2394.01,-222 2394.01,-228 2394.01,-228 2394.01,-240 2394.01,-240 2394.01,-246 2388.01,-252 2382.01,-252"/>
<text text-anchor="middle" x="2366.01" y="-231.5" font-family="sans" font-size="10.00">diag_sci</text>
</g>
<!-- 10&#45;&gt;29 -->
<g id="edge66" class="edge">
<title>10&#45;&gt;29</title>
<path fill="none" stroke="grey" stroke-width="2" d="M2237.09,-373.24C2274.72,-367.52 2319,-354.23 2347.01,-324 2362.32,-307.48 2366.47,-281.75 2367.14,-262.19"/>
<polygon fill="grey" stroke="grey" stroke-width="2" points="2370.64,-262.09 2367.21,-252.06 2363.64,-262.04 2370.64,-262.09"/>
</g>
<!-- 30 -->
<g id="node31" class="node">
<title>30</title>
<path fill="none" stroke="#5673d8" stroke-width="2" stroke-dasharray="5,2" d="M2326.51,-324C2326.51,-324 2225.51,-324 2225.51,-324 2219.51,-324 2213.51,-318 2213.51,-312 2213.51,-312 2213.51,-300 2213.51,-300 2213.51,-294 2219.51,-288 2225.51,-288 2225.51,-288 2326.51,-288 2326.51,-288 2332.51,-288 2338.51,-294 2338.51,-300 2338.51,-300 2338.51,-312 2338.51,-312 2338.51,-318 2332.51,-324 2326.51,-324"/>
<text text-anchor="middle" x="2276.01" y="-303.5" font-family="sans" font-size="10.00">diag_thermodynamics</text>
</g>
<!-- 10&#45;&gt;30 -->
<g id="edge69" class="edge">
<title>10&#45;&gt;30</title>
<path fill="none" stroke="grey" stroke-width="2" d="M2193.67,-359.88C2207.79,-350.81 2225.32,-339.55 2240.57,-329.76"/>
<polygon fill="grey" stroke="grey" stroke-width="2" points="2242.72,-332.54 2249.24,-324.19 2238.94,-326.65 2242.72,-332.54"/>
</g>
<!-- 31 -->
<g id="node32" class="node">
<title>31</title>
<path fill="none" stroke="#56b1d8" stroke-width="2" stroke-dasharray="5,2" d="M2307.01,-252C2307.01,-252 2207.01,-252 2207.01,-252 2201.01,-252 2195.01,-246 2195.01,-240 2195.01,-240 2195.01,-228 2195.01,-228 2195.01,-222 2201.01,-216 2207.01,-216 2207.01,-216 2307.01,-216 2307.01,-216 2313.01,-216 2319.01,-222 2319.01,-228 2319.01,-228 2319.01,-240 2319.01,-240 2319.01,-246 2313.01,-252 2307.01,-252"/>
<text text-anchor="middle" x="2257.01" y="-231.5" font-family="sans" font-size="10.00">diag_buoyancy_fluxes</text>
</g>
<!-- 10&#45;&gt;31 -->
<g id="edge70" class="edge">
<title>10&#45;&gt;31</title>
<path fill="none" stroke="grey" stroke-width="2" d="M2171.89,-359.96C2177.72,-341.29 2188.66,-310.95 2204.01,-288 2210.95,-277.63 2220.13,-267.59 2228.9,-259.09"/>
<polygon fill="grey" stroke="grey" stroke-width="2" points="2231.51,-261.43 2236.43,-252.05 2226.73,-256.32 2231.51,-261.43"/>
</g>
<!-- 36 -->
<g id="node37" class="node">
<title>36</title>
<path fill="none" stroke="#5663d8" stroke-width="2" stroke-dasharray="5,2" d="M2126.51,-252C2126.51,-252 2013.51,-252 2013.51,-252 2007.51,-252 2001.51,-246 2001.51,-240 2001.51,-240 2001.51,-228 2001.51,-228 2001.51,-222 2007.51,-216 2013.51,-216 2013.51,-216 2126.51,-216 2126.51,-216 2132.51,-216 2138.51,-222 2138.51,-228 2138.51,-228 2138.51,-240 2138.51,-240 2138.51,-246 2132.51,-252 2126.51,-252"/>
<text text-anchor="middle" x="2070.01" y="-231.5" font-family="sans" font-size="10.00">diag_average_properties</text>
</g>
<!-- 10&#45;&gt;36 -->
<g id="edge80" class="edge">
<title>10&#45;&gt;36</title>
<path fill="none" stroke="grey" stroke-width="2" d="M2155.31,-359.87C2138.41,-335.14 2107.06,-289.24 2087.44,-260.51"/>
<polygon fill="grey" stroke="grey" stroke-width="2" points="2090.28,-258.47 2081.75,-252.19 2084.5,-262.42 2090.28,-258.47"/>
</g>
<!-- 41 -->
<g id="node42" class="node">
<title>41</title>
<path fill="none" stroke="#59d856" stroke-width="2" stroke-dasharray="5,2" d="M2069.01,-324C2069.01,-324 1985.01,-324 1985.01,-324 1979.01,-324 1973.01,-318 1973.01,-312 1973.01,-312 1973.01,-300 1973.01,-300 1973.01,-294 1979.01,-288 1985.01,-288 1985.01,-288 2069.01,-288 2069.01,-288 2075.01,-288 2081.01,-294 2081.01,-300 2081.01,-300 2081.01,-312 2081.01,-312 2081.01,-318 2075.01,-324 2069.01,-324"/>
<text text-anchor="middle" x="2027.01" y="-303.5" font-family="sans" font-size="10.00">diag_forcing_fields</text>
</g>
<!-- 10&#45;&gt;41 -->
<g id="edge86" class="edge">
<title>10&#45;&gt;41</title>
<path fill="none" stroke="grey" stroke-width="2" d="M2132.76,-359.88C2113.95,-350.47 2090.43,-338.71 2070.34,-328.67"/>
<polygon fill="grey" stroke="grey" stroke-width="2" points="2071.9,-325.53 2061.39,-324.19 2068.77,-331.79 2071.9,-325.53"/>
</g>
<!-- 11 -->
<g id="node12" class="node">
<title>11</title>
<path fill="none" stroke="#56d873" stroke-width="2" stroke-dasharray="5,2" d="M2386.01,-473C2386.01,-473 2186.01,-473 2186.01,-473 2180.01,-473 2174.01,-467 2174.01,-461 2174.01,-461 2174.01,-444 2174.01,-444 2174.01,-438 2180.01,-432 2186.01,-432 2186.01,-432 2386.01,-432 2386.01,-432 2392.01,-432 2398.01,-438 2398.01,-444 2398.01,-444 2398.01,-461 2398.01,-461 2398.01,-467 2392.01,-473 2386.01,-473"/>
<text text-anchor="middle" x="2286.01" y="-461" font-family="sans" font-size="10.00">process_delta_t</text>
<text text-anchor="middle" x="2286.01" y="-450" font-family="sans" font-size="10.00">config: EXP_rn_lambda1_0.04_rn_a0_0.165</text>
<text text-anchor="middle" x="2286.01" y="-439" font-family="sans" font-size="10.00">exp: EXP_main</text>
</g>
<!-- 11&#45;&gt;10 -->
<g id="edge26" class="edge">
<title>11&#45;&gt;10</title>
<path fill="none" stroke="grey" stroke-width="2" d="M2253.81,-431.88C2238.36,-422.47 2219.78,-411.15 2203.77,-401.4"/>
<polygon fill="grey" stroke="grey" stroke-width="2" points="2205.55,-398.38 2195.19,-396.17 2201.91,-404.36 2205.55,-398.38"/>
</g>
<!-- 11&#45;&gt;29 -->
<g id="edge68" class="edge">
<title>11&#45;&gt;29</title>
<path fill="none" stroke="grey" stroke-width="2" d="M2304.21,-431.74C2324.58,-408.15 2356.38,-366.54 2369.01,-324 2374.98,-303.9 2373.78,-280.12 2371.33,-262.2"/>
<polygon fill="grey" stroke="grey" stroke-width="2" points="2374.76,-261.47 2369.75,-252.14 2367.85,-262.56 2374.76,-261.47"/>
</g>
<!-- 12&#45;&gt;1 -->
<g id="edge7" class="edge">
<title>12&#45;&gt;1</title>
<path fill="none" stroke="grey" stroke-width="2" d="M428.25,-149.4C439.08,-147.39 450.38,-145.48 461.01,-144 659.05,-116.53 894.63,-101.15 1011.2,-94.69"/>
<polygon fill="grey" stroke="grey" stroke-width="2" points="1011.63,-98.17 1021.43,-94.12 1011.25,-91.18 1011.63,-98.17"/>
</g>
<!-- 13&#45;&gt;12 -->
<g id="edge28" class="edge">
<title>13&#45;&gt;12</title>
<path fill="none" stroke="grey" stroke-width="2" d="M407.64,-215.7C402.29,-207.56 395.81,-197.69 389.9,-188.7"/>
<polygon fill="grey" stroke="grey" stroke-width="2" points="392.67,-186.54 384.25,-180.1 386.82,-190.38 392.67,-186.54"/>
</g>
<!-- 14&#45;&gt;13 -->
<g id="edge31" class="edge">
<title>14&#45;&gt;13</title>
<path fill="none" stroke="grey" stroke-width="2" d="M335.16,-287.88C349.54,-278.81 367.39,-267.55 382.92,-257.76"/>
<polygon fill="grey" stroke="grey" stroke-width="2" points="385.16,-260.48 391.75,-252.19 381.43,-254.56 385.16,-260.48"/>
</g>
<!-- 14&#45;&gt;15 -->
<g id="edge35" class="edge">
<title>14&#45;&gt;15</title>
<path fill="none" stroke="grey" stroke-width="2" d="M308.75,-287.7C309.08,-279.98 309.48,-270.71 309.85,-262.11"/>
<polygon fill="grey" stroke="grey" stroke-width="2" points="313.35,-262.25 310.28,-252.1 306.35,-261.95 313.35,-262.25"/>
</g>
<!-- 14&#45;&gt;32 -->
<g id="edge73" class="edge">
<title>14&#45;&gt;32</title>
<path fill="none" stroke="grey" stroke-width="2" d="M263,-287.88C237.51,-278.18 205.44,-265.98 178.53,-255.74"/>
<polygon fill="grey" stroke="grey" stroke-width="2" points="179.47,-252.35 168.88,-252.07 176.98,-258.9 179.47,-252.35"/>
</g>
<!-- 15&#45;&gt;12 -->
<g id="edge29" class="edge">
<title>15&#45;&gt;12</title>
<path fill="none" stroke="grey" stroke-width="2" d="M326.34,-215.7C333.77,-207.3 342.83,-197.07 350.99,-187.86"/>
<polygon fill="grey" stroke="grey" stroke-width="2" points="353.85,-189.91 357.86,-180.1 348.61,-185.27 353.85,-189.91"/>
</g>
<!-- 16&#45;&gt;1 -->
<g id="edge8" class="edge">
<title>16&#45;&gt;1</title>
<path fill="none" stroke="grey" stroke-width="2" d="M892.13,-145.38C928.18,-135.16 975.57,-121.73 1014.24,-110.77"/>
<polygon fill="grey" stroke="grey" stroke-width="2" points="1015.2,-114.14 1023.87,-108.04 1013.29,-107.4 1015.2,-114.14"/>
</g>
<!-- 17&#45;&gt;16 -->
<g id="edge37" class="edge">
<title>17&#45;&gt;16</title>
<path fill="none" stroke="grey" stroke-width="2" d="M888.2,-215.7C879.88,-207.14 869.7,-196.66 860.62,-187.3"/>
<polygon fill="grey" stroke="grey" stroke-width="2" points="863.1,-184.84 853.63,-180.1 858.08,-189.72 863.1,-184.84"/>
</g>
<!-- 18&#45;&gt;17 -->
<g id="edge40" class="edge">
<title>18&#45;&gt;17</title>
<path fill="none" stroke="grey" stroke-width="2" d="M821.16,-287.88C835.54,-278.81 853.39,-267.55 868.92,-257.76"/>
<polygon fill="grey" stroke="grey" stroke-width="2" points="871.16,-260.48 877.75,-252.19 867.43,-254.56 871.16,-260.48"/>
</g>
<!-- 18&#45;&gt;19 -->
<g id="edge44" class="edge">
<title>18&#45;&gt;19</title>
<path fill="none" stroke="grey" stroke-width="2" d="M794.75,-287.7C795.08,-279.98 795.48,-270.71 795.85,-262.11"/>
<polygon fill="grey" stroke="grey" stroke-width="2" points="799.35,-262.25 796.28,-252.1 792.35,-261.95 799.35,-262.25"/>
</g>
<!-- 18&#45;&gt;33 -->
<g id="edge75" class="edge">
<title>18&#45;&gt;33</title>
<path fill="none" stroke="grey" stroke-width="2" d="M749,-287.88C723.51,-278.18 691.44,-265.98 664.53,-255.74"/>
<polygon fill="grey" stroke="grey" stroke-width="2" points="665.47,-252.35 654.88,-252.07 662.98,-258.9 665.47,-252.35"/>
</g>
<!-- 19&#45;&gt;16 -->
<g id="edge38" class="edge">
<title>19&#45;&gt;16</title>
<path fill="none" stroke="grey" stroke-width="2" d="M806.9,-215.7C811.5,-207.64 817.07,-197.89 822.16,-188.98"/>
<polygon fill="grey" stroke="grey" stroke-width="2" points="825.31,-190.52 827.24,-180.1 819.24,-187.05 825.31,-190.52"/>
</g>
<!-- 20&#45;&gt;1 -->
<g id="edge9" class="edge">
<title>20&#45;&gt;1</title>
<path fill="none" stroke="grey" stroke-width="2" d="M1206.38,-143.88C1184.23,-134.31 1156.45,-122.3 1132.95,-112.15"/>
<polygon fill="grey" stroke="grey" stroke-width="2" points="1134.08,-108.82 1123.51,-108.07 1131.3,-115.25 1134.08,-108.82"/>
</g>
<!-- 21&#45;&gt;20 -->
<g id="edge46" class="edge">
<title>21&#45;&gt;20</title>
<path fill="none" stroke="grey" stroke-width="2" d="M1362.71,-219.34C1342.19,-209.43 1314.04,-195.84 1290.52,-184.49"/>
<polygon fill="grey" stroke="grey" stroke-width="2" points="1291.96,-181.3 1281.43,-180.1 1288.91,-187.6 1291.96,-181.3"/>
</g>
<!-- 22&#45;&gt;21 -->
<g id="edge49" class="edge">
<title>22&#45;&gt;21</title>
<path fill="none" stroke="grey" stroke-width="2" d="M1307.16,-287.88C1321.54,-278.81 1339.39,-267.55 1354.92,-257.76"/>
<polygon fill="grey" stroke="grey" stroke-width="2" points="1357.16,-260.48 1363.75,-252.19 1353.43,-254.56 1357.16,-260.48"/>
</g>
<!-- 22&#45;&gt;23 -->
<g id="edge53" class="edge">
<title>22&#45;&gt;23</title>
<path fill="none" stroke="grey" stroke-width="2" d="M1280.75,-287.7C1281.08,-279.98 1281.48,-270.71 1281.85,-262.11"/>
<polygon fill="grey" stroke="grey" stroke-width="2" points="1285.35,-262.25 1282.28,-252.1 1278.35,-261.95 1285.35,-262.25"/>
</g>
<!-- 22&#45;&gt;34 -->
<g id="edge77" class="edge">
<title>22&#45;&gt;34</title>
<path fill="none" stroke="grey" stroke-width="2" d="M1235,-287.88C1209.51,-278.18 1177.44,-265.98 1150.53,-255.74"/>
<polygon fill="grey" stroke="grey" stroke-width="2" points="1151.47,-252.35 1140.88,-252.07 1148.98,-258.9 1151.47,-252.35"/>
</g>
<!-- 23&#45;&gt;20 -->
<g id="edge47" class="edge">
<title>23&#45;&gt;20</title>
<path fill="none" stroke="grey" stroke-width="2" d="M1273.86,-215.7C1269.61,-207.64 1264.45,-197.89 1259.74,-188.98"/>
<polygon fill="grey" stroke="grey" stroke-width="2" points="1262.82,-187.31 1255.05,-180.1 1256.63,-190.58 1262.82,-187.31"/>
</g>
<!-- 24&#45;&gt;1 -->
<g id="edge10" class="edge">
<title>24&#45;&gt;1</title>
<path fill="none" stroke="grey" stroke-width="2" d="M1668.89,-154.97C1553.46,-142.35 1286.34,-113.13 1156.91,-98.97"/>
<polygon fill="grey" stroke="grey" stroke-width="2" points="1157.03,-95.47 1146.7,-97.86 1156.26,-102.42 1157.03,-95.47"/>
</g>
<!-- 25&#45;&gt;24 -->
<g id="edge55" class="edge">
<title>25&#45;&gt;24</title>
<path fill="none" stroke="grey" stroke-width="2" d="M1848.73,-220C1845.79,-218.65 1842.84,-217.3 1840.01,-216 1817.13,-205.52 1791.69,-193.89 1770.49,-184.21"/>
<polygon fill="grey" stroke="grey" stroke-width="2" points="1771.92,-181.02 1761.37,-180.05 1769.01,-187.38 1771.92,-181.02"/>
</g>
<!-- 26&#45;&gt;25 -->
<g id="edge58" class="edge">
<title>26&#45;&gt;25</title>
<path fill="none" stroke="grey" stroke-width="2" d="M1802.23,-287.88C1814.93,-278.89 1830.67,-267.76 1844.43,-258.03"/>
<polygon fill="grey" stroke="grey" stroke-width="2" points="1846.55,-260.82 1852.7,-252.19 1842.51,-255.11 1846.55,-260.82"/>
</g>
<!-- 26&#45;&gt;27 -->
<g id="edge62" class="edge">
<title>26&#45;&gt;27</title>
<path fill="none" stroke="grey" stroke-width="2" d="M1775.79,-287.7C1774.79,-279.98 1773.6,-270.71 1772.5,-262.11"/>
<polygon fill="grey" stroke="grey" stroke-width="2" points="1775.96,-261.58 1771.21,-252.1 1769.01,-262.47 1775.96,-261.58"/>
</g>
<!-- 26&#45;&gt;35 -->
<g id="edge79" class="edge">
<title>26&#45;&gt;35</title>
<path fill="none" stroke="grey" stroke-width="2" d="M1730.31,-287.97C1702.93,-278.19 1668.35,-265.84 1639.48,-255.52"/>
<polygon fill="grey" stroke="grey" stroke-width="2" points="1640.52,-252.18 1629.92,-252.11 1638.16,-258.77 1640.52,-252.18"/>
</g>
<!-- 27&#45;&gt;24 -->
<g id="edge56" class="edge">
<title>27&#45;&gt;24</title>
<path fill="none" stroke="grey" stroke-width="2" d="M1757.89,-215.7C1752.66,-207.56 1746.31,-197.69 1740.53,-188.7"/>
<polygon fill="grey" stroke="grey" stroke-width="2" points="1743.36,-186.62 1735.01,-180.1 1737.47,-190.41 1743.36,-186.62"/>
</g>
<!-- 28&#45;&gt;1 -->
<g id="edge11" class="edge">
<title>28&#45;&gt;1</title>
<path fill="none" stroke="grey" stroke-width="2" d="M2156.86,-154.3C2126.79,-150.83 2088.89,-146.76 2055.01,-144 1719.94,-116.73 1318.64,-99.82 1156.87,-93.65"/>
<polygon fill="grey" stroke="grey" stroke-width="2" points="1156.69,-90.14 1146.57,-93.26 1156.43,-97.13 1156.69,-90.14"/>
</g>
<!-- 29&#45;&gt;28 -->
<g id="edge64" class="edge">
<title>29&#45;&gt;28</title>
<path fill="none" stroke="grey" stroke-width="2" d="M2337.76,-220.16C2315.72,-210.14 2284.63,-196.01 2258.88,-184.3"/>
<polygon fill="grey" stroke="grey" stroke-width="2" points="2260.21,-181.06 2249.66,-180.11 2257.31,-187.44 2260.21,-181.06"/>
</g>
<!-- 30&#45;&gt;29 -->
<g id="edge67" class="edge">
<title>30&#45;&gt;29</title>
<path fill="none" stroke="grey" stroke-width="2" d="M2298.26,-287.7C2309.59,-278.88 2323.54,-268.03 2335.83,-258.47"/>
<polygon fill="grey" stroke="grey" stroke-width="2" points="2338.27,-261.01 2344.02,-252.1 2333.98,-255.48 2338.27,-261.01"/>
</g>
<!-- 30&#45;&gt;31 -->
<g id="edge71" class="edge">
<title>30&#45;&gt;31</title>
<path fill="none" stroke="grey" stroke-width="2" d="M2271.31,-287.7C2269.2,-279.9 2266.65,-270.51 2264.29,-261.83"/>
<polygon fill="grey" stroke="grey" stroke-width="2" points="2267.65,-260.84 2261.65,-252.1 2260.89,-262.67 2267.65,-260.84"/>
</g>
<!-- 30&#45;&gt;36 -->
<g id="edge81" class="edge">
<title>30&#45;&gt;36</title>
<path fill="none" stroke="grey" stroke-width="2" d="M2225.88,-287.97C2196.97,-278.14 2160.44,-265.73 2130.01,-255.39"/>
<polygon fill="grey" stroke="grey" stroke-width="2" points="2130.96,-252.01 2120.36,-252.11 2128.71,-258.64 2130.96,-252.01"/>
</g>
<!-- 31&#45;&gt;28 -->
<g id="edge65" class="edge">
<title>31&#45;&gt;28</title>
<path fill="none" stroke="grey" stroke-width="2" d="M2245.89,-215.7C2240.66,-207.56 2234.31,-197.69 2228.53,-188.7"/>
<polygon fill="grey" stroke="grey" stroke-width="2" points="2231.36,-186.62 2223.01,-180.1 2225.47,-190.41 2231.36,-186.62"/>
</g>
<!-- 32&#45;&gt;1 -->
<g id="edge12" class="edge">
<title>32&#45;&gt;1</title>
<path fill="none" stroke="grey" stroke-width="2" d="M150.94,-215.97C185.87,-194.86 249.4,-159.75 309.01,-144 440.32,-109.3 844.72,-96.4 1011.22,-92.47"/>
<polygon fill="grey" stroke="grey" stroke-width="2" points="1011.45,-95.96 1021.37,-92.23 1011.29,-88.97 1011.45,-95.96"/>
</g>
<!-- 33&#45;&gt;1 -->
<g id="edge13" class="edge">
<title>33&#45;&gt;1</title>
<path fill="none" stroke="grey" stroke-width="2" d="M635.03,-215.88C666.02,-195.53 721.08,-162.04 773.01,-144 851.96,-116.58 947.28,-103.02 1011.41,-96.54"/>
<polygon fill="grey" stroke="grey" stroke-width="2" points="1011.82,-100.01 1021.43,-95.55 1011.14,-93.05 1011.82,-100.01"/>
</g>
<!-- 34&#45;&gt;1 -->
<g id="edge14" class="edge">
<title>34&#45;&gt;1</title>
<path fill="none" stroke="grey" stroke-width="2" d="M1101.06,-215.81C1105.62,-197.78 1110.93,-168.7 1106.01,-144 1104.22,-135.01 1100.87,-125.64 1097.32,-117.32"/>
<polygon fill="grey" stroke="grey" stroke-width="2" points="1100.47,-115.77 1093.14,-108.12 1094.09,-118.67 1100.47,-115.77"/>
</g>
<!-- 35&#45;&gt;1 -->
<g id="edge15" class="edge">
<title>35&#45;&gt;1</title>
<path fill="none" stroke="grey" stroke-width="2" d="M1571.51,-215.9C1557.7,-195.05 1531.35,-160.58 1499.01,-144 1440.83,-114.18 1259.29,-100.09 1156.63,-94.36"/>
<polygon fill="grey" stroke="grey" stroke-width="2" points="1156.82,-90.86 1146.64,-93.81 1156.44,-97.85 1156.82,-90.86"/>
</g>
<!-- 36&#45;&gt;1 -->
<g id="edge16" class="edge">
<title>36&#45;&gt;1</title>
<path fill="none" stroke="grey" stroke-width="2" d="M2059.92,-215.9C2046.36,-194.73 2020.09,-159.55 1987.01,-144 1912.8,-109.11 1358.58,-95.87 1157.02,-92.18"/>
<polygon fill="grey" stroke="grey" stroke-width="2" points="1156.89,-88.68 1146.83,-92 1156.76,-95.68 1156.89,-88.68"/>
</g>
<!-- 37&#45;&gt;1 -->
<g id="edge17" class="edge">
<title>37&#45;&gt;1</title>
<path fill="none" stroke="grey" stroke-width="2" d="M145.02,-154.01C172.52,-150.63 206.51,-146.73 237.01,-144 523.09,-118.41 864.64,-101.06 1011.28,-94.24"/>
<polygon fill="grey" stroke="grey" stroke-width="2" points="1011.67,-97.73 1021.5,-93.77 1011.34,-90.73 1011.67,-97.73"/>
</g>
<!-- 38&#45;&gt;1 -->
<g id="edge18" class="edge">
<title>38&#45;&gt;1</title>
<path fill="none" stroke="grey" stroke-width="2" d="M670.23,-149.93C681.07,-147.85 692.38,-145.78 703.01,-144 810.02,-126.12 934.65,-109.59 1011.44,-99.89"/>
<polygon fill="grey" stroke="grey" stroke-width="2" points="1012,-103.35 1021.48,-98.63 1011.13,-96.41 1012,-103.35"/>
</g>
<!-- 39&#45;&gt;1 -->
<g id="edge19" class="edge">
<title>39&#45;&gt;1</title>
<path fill="none" stroke="grey" stroke-width="2" d="M1053.15,-143.7C1057.86,-135.64 1063.57,-125.89 1068.79,-116.98"/>
<polygon fill="grey" stroke="grey" stroke-width="2" points="1071.96,-118.5 1073.99,-108.1 1065.92,-114.96 1071.96,-118.5"/>
</g>
<!-- 40&#45;&gt;1 -->
<g id="edge20" class="edge">
<title>40&#45;&gt;1</title>
<path fill="none" stroke="grey" stroke-width="2" d="M1520.63,-287.94C1515.64,-277.61 1509.28,-264.13 1504.01,-252 1483.42,-204.61 1501.64,-175.91 1461.01,-144 1415.12,-107.96 1253.19,-96.42 1157.12,-92.73"/>
<polygon fill="grey" stroke="grey" stroke-width="2" points="1157.01,-89.23 1146.89,-92.36 1156.76,-96.22 1157.01,-89.23"/>
</g>
<!-- 41&#45;&gt;1 -->
<g id="edge21" class="edge">
<title>41&#45;&gt;1</title>
<path fill="none" stroke="grey" stroke-width="2" d="M2014.41,-287.88C2007.29,-277.76 1998.54,-264.51 1992.01,-252 1968.09,-206.2 1990.86,-174.29 1949.01,-144 1885.63,-98.12 1354.07,-91.81 1157.07,-91.05"/>
<polygon fill="grey" stroke="grey" stroke-width="2" points="1156.84,-87.55 1146.83,-91.02 1156.81,-94.55 1156.84,-87.55"/>
</g>
</g>
</svg>
