<?xml version="1.0" encoding="UTF-8" standalone="no"?>
<!DOCTYPE svg PUBLIC "-//W3C//DTD SVG 1.1//EN"
 "http://www.w3.org/Graphics/SVG/1.1/DTD/svg11.dtd">
<!-- Generated by graphviz version 2.43.0 (0)
 -->
<!-- Title: snakemake_dag Pages: 1 -->
<svg width="334pt" height="337pt"
 viewBox="0.00 0.00 333.50 337.00" xmlns="http://www.w3.org/2000/svg" xmlns:xlink="http://www.w3.org/1999/xlink">
<g id="graph0" class="graph" transform="scale(1 1) rotate(0) translate(4 333)">
<title>snakemake_dag</title>
<polygon fill="white" stroke="transparent" points="-4,4 -4,-333 329.5,-333 329.5,4 -4,4"/>
<!-- 0 -->
<g id="node1" class="node">
<title>0</title>
<path fill="none" stroke="#566bd8" stroke-width="2" d="M166.5,-36C166.5,-36 57.5,-36 57.5,-36 51.5,-36 45.5,-30 45.5,-24 45.5,-24 45.5,-12 45.5,-12 45.5,-6 51.5,0 57.5,0 57.5,0 166.5,0 166.5,0 172.5,0 178.5,-6 178.5,-12 178.5,-12 178.5,-24 178.5,-24 178.5,-30 172.5,-36 166.5,-36"/>
<text text-anchor="middle" x="112" y="-21" font-family="sans" font-size="10.00">paper_fig_from_number</text>
<text text-anchor="middle" x="112" y="-10" font-family="sans" font-size="10.00">n: 2</text>
</g>
<!-- 1 -->
<g id="node2" class="node">
<title>1</title>
<path fill="none" stroke="#70d856" stroke-width="2" stroke-dasharray="5,2" d="M151.5,-108C151.5,-108 72.5,-108 72.5,-108 66.5,-108 60.5,-102 60.5,-96 60.5,-96 60.5,-84 60.5,-84 60.5,-78 66.5,-72 72.5,-72 72.5,-72 151.5,-72 151.5,-72 157.5,-72 163.5,-78 163.5,-84 163.5,-84 163.5,-96 163.5,-96 163.5,-102 157.5,-108 151.5,-108"/>
<text text-anchor="middle" x="112" y="-93" font-family="sans" font-size="10.00">plot_config_paper</text>
<text text-anchor="middle" x="112" y="-82" font-family="sans" font-size="10.00">fig: baro_ekman</text>
</g>
<!-- 1&#45;&gt;0 -->
<g id="edge1" class="edge">
<title>1&#45;&gt;0</title>
<path fill="none" stroke="grey" stroke-width="2" d="M112,-71.7C112,-63.98 112,-54.71 112,-46.11"/>
<polygon fill="grey" stroke="grey" stroke-width="2" points="115.5,-46.1 112,-36.1 108.5,-46.1 115.5,-46.1"/>
</g>
<!-- 2 -->
<g id="node3" class="node">
<title>2</title>
<path fill="none" stroke="#88d856" stroke-width="2" stroke-dasharray="5,2" d="M170,-252C170,-252 54,-252 54,-252 48,-252 42,-246 42,-240 42,-240 42,-228 42,-228 42,-222 48,-216 54,-216 54,-216 170,-216 170,-216 176,-216 182,-222 182,-228 182,-228 182,-240 182,-240 182,-246 176,-252 170,-252"/>
<text text-anchor="middle" x="112" y="-231.5" font-family="sans" font-size="10.00">process_with_xnemogcm</text>
</g>
<!-- 2&#45;&gt;1 -->
<g id="edge2" class="edge">
<title>2&#45;&gt;1</title>
<path fill="none" stroke="grey" stroke-width="2" d="M68.44,-215.87C53.14,-207.49 37.63,-195.74 29,-180 21.31,-165.97 21.31,-158.03 29,-144 35.94,-131.33 47.34,-121.25 59.5,-113.43"/>
<polygon fill="grey" stroke="grey" stroke-width="2" points="61.62,-116.24 68.44,-108.13 58.05,-110.22 61.62,-116.24"/>
</g>
<!-- 4 -->
<g id="node5" class="node">
<title>4</title>
<path fill="none" stroke="#56d85b" stroke-width="2" stroke-dasharray="5,2" d="M174.5,-180C174.5,-180 49.5,-180 49.5,-180 43.5,-180 37.5,-174 37.5,-168 37.5,-168 37.5,-156 37.5,-156 37.5,-150 43.5,-144 49.5,-144 49.5,-144 174.5,-144 174.5,-144 180.5,-144 186.5,-150 186.5,-156 186.5,-156 186.5,-168 186.5,-168 186.5,-174 180.5,-180 174.5,-180"/>
<text text-anchor="middle" x="112" y="-159.5" font-family="sans" font-size="10.00">diag_barotropic_circulation</text>
</g>
<!-- 2&#45;&gt;4 -->
<g id="edge6" class="edge">
<title>2&#45;&gt;4</title>
<path fill="none" stroke="grey" stroke-width="2" d="M112,-215.7C112,-207.98 112,-198.71 112,-190.11"/>
<polygon fill="grey" stroke="grey" stroke-width="2" points="115.5,-190.1 112,-180.1 108.5,-190.1 115.5,-190.1"/>
</g>
<!-- 5 -->
<g id="node6" class="node">
<title>5</title>
<path fill="none" stroke="#d8cb56" stroke-width="2" stroke-dasharray="5,2" d="M313.5,-180C313.5,-180 216.5,-180 216.5,-180 210.5,-180 204.5,-174 204.5,-168 204.5,-168 204.5,-156 204.5,-156 204.5,-150 210.5,-144 216.5,-144 216.5,-144 313.5,-144 313.5,-144 319.5,-144 325.5,-150 325.5,-156 325.5,-156 325.5,-168 325.5,-168 325.5,-174 319.5,-180 313.5,-180"/>
<text text-anchor="middle" x="265" y="-159.5" font-family="sans" font-size="10.00">diag_ekman_velocity</text>
</g>
<!-- 2&#45;&gt;5 -->
<g id="edge7" class="edge">
<title>2&#45;&gt;5</title>
<path fill="none" stroke="grey" stroke-width="2" d="M149.43,-215.88C170.25,-206.35 196.35,-194.41 218.48,-184.28"/>
<polygon fill="grey" stroke="grey" stroke-width="2" points="220.06,-187.41 227.69,-180.07 217.14,-181.05 220.06,-187.41"/>
</g>
<!-- 3 -->
<g id="node4" class="node">
<title>3</title>
<path fill="none" stroke="#d8c356" stroke-width="2" stroke-dasharray="5,2" d="M212,-329C212,-329 12,-329 12,-329 6,-329 0,-323 0,-317 0,-317 0,-300 0,-300 0,-294 6,-288 12,-288 12,-288 212,-288 212,-288 218,-288 224,-294 224,-300 224,-300 224,-317 224,-317 224,-323 218,-329 212,-329"/>
<text text-anchor="middle" x="112" y="-317" font-family="sans" font-size="10.00">process_delta_t</text>
<text text-anchor="middle" x="112" y="-306" font-family="sans" font-size="10.00">config: EXP_rn_lambda1_0.06_rn_a0_0.165</text>
<text text-anchor="middle" x="112" y="-295" font-family="sans" font-size="10.00">exp: EXP_main</text>
</g>
<!-- 3&#45;&gt;2 -->
<g id="edge5" class="edge">
<title>3&#45;&gt;2</title>
<path fill="none" stroke="grey" stroke-width="2" d="M112,-287.69C112,-279.91 112,-270.84 112,-262.45"/>
<polygon fill="grey" stroke="grey" stroke-width="2" points="115.5,-262.32 112,-252.32 108.5,-262.32 115.5,-262.32"/>
</g>
<!-- 4&#45;&gt;1 -->
<g id="edge3" class="edge">
<title>4&#45;&gt;1</title>
<path fill="none" stroke="grey" stroke-width="2" d="M112,-143.7C112,-135.98 112,-126.71 112,-118.11"/>
<polygon fill="grey" stroke="grey" stroke-width="2" points="115.5,-118.1 112,-108.1 108.5,-118.1 115.5,-118.1"/>
</g>
<!-- 5&#45;&gt;1 -->
<g id="edge4" class="edge">
<title>5&#45;&gt;1</title>
<path fill="none" stroke="grey" stroke-width="2" d="M227.57,-143.88C206.75,-134.35 180.65,-122.41 158.52,-112.28"/>
<polygon fill="grey" stroke="grey" stroke-width="2" points="159.86,-109.05 149.31,-108.07 156.94,-115.41 159.86,-109.05"/>
</g>
</g>
</svg>
