<?xml version="1.0" encoding="UTF-8" standalone="no"?>
<!DOCTYPE svg PUBLIC "-//W3C//DTD SVG 1.1//EN"
 "http://www.w3.org/Graphics/SVG/1.1/DTD/svg11.dtd">
<!-- Generated by graphviz version 2.43.0 (0)
 -->
<!-- Title: snakemake_dag Pages: 1 -->
<svg width="1580pt" height="337pt"
 viewBox="0.00 0.00 1579.50 337.00" xmlns="http://www.w3.org/2000/svg" xmlns:xlink="http://www.w3.org/1999/xlink">
<g id="graph0" class="graph" transform="scale(1 1) rotate(0) translate(4 333)">
<title>snakemake_dag</title>
<polygon fill="white" stroke="transparent" points="-4,4 -4,-333 1575.5,-333 1575.5,4 -4,4"/>
<!-- 0 -->
<g id="node1" class="node">
<title>0</title>
<path fill="none" stroke="#d89556" stroke-width="2" d="M840,-36C840,-36 731,-36 731,-36 725,-36 719,-30 719,-24 719,-24 719,-12 719,-12 719,-6 725,0 731,0 731,0 840,0 840,0 846,0 852,-6 852,-12 852,-12 852,-24 852,-24 852,-30 846,-36 840,-36"/>
<text text-anchor="middle" x="785.5" y="-21" font-family="sans" font-size="10.00">paper_fig_from_number</text>
<text text-anchor="middle" x="785.5" y="-10" font-family="sans" font-size="10.00">n: 9</text>
</g>
<!-- 1 -->
<g id="node2" class="node">
<title>1</title>
<path fill="none" stroke="#d8d356" stroke-width="2" stroke-dasharray="5,2" d="M831.5,-108C831.5,-108 739.5,-108 739.5,-108 733.5,-108 727.5,-102 727.5,-96 727.5,-96 727.5,-84 727.5,-84 727.5,-78 733.5,-72 739.5,-72 739.5,-72 831.5,-72 831.5,-72 837.5,-72 843.5,-78 843.5,-84 843.5,-84 843.5,-96 843.5,-96 843.5,-102 837.5,-108 831.5,-108"/>
<text text-anchor="middle" x="785.5" y="-87.5" font-family="sans" font-size="10.00">plot_variation_alpha</text>
</g>
<!-- 1&#45;&gt;0 -->
<g id="edge1" class="edge">
<title>1&#45;&gt;0</title>
<path fill="none" stroke="grey" stroke-width="2" d="M785.5,-71.7C785.5,-63.98 785.5,-54.71 785.5,-46.11"/>
<polygon fill="grey" stroke="grey" stroke-width="2" points="789,-46.1 785.5,-36.1 782,-46.1 789,-46.1"/>
</g>
<!-- 2 -->
<g id="node3" class="node">
<title>2</title>
<path fill="none" stroke="#a7d856" stroke-width="2" stroke-dasharray="5,2" d="M129,-180C129,-180 12,-180 12,-180 6,-180 0,-174 0,-168 0,-168 0,-156 0,-156 0,-150 6,-144 12,-144 12,-144 129,-144 129,-144 135,-144 141,-150 141,-156 141,-156 141,-168 141,-168 141,-174 135,-180 129,-180"/>
<text text-anchor="middle" x="70.5" y="-159.5" font-family="sans" font-size="10.00">diag_alpha_function_of_T</text>
</g>
<!-- 2&#45;&gt;1 -->
<g id="edge2" class="edge">
<title>2&#45;&gt;1</title>
<path fill="none" stroke="grey" stroke-width="2" d="M141.08,-145.5C144.26,-144.96 147.41,-144.46 150.5,-144 355.54,-113.78 600.56,-99.41 717.23,-93.87"/>
<polygon fill="grey" stroke="grey" stroke-width="2" points="717.61,-97.36 727.43,-93.39 717.28,-90.36 717.61,-97.36"/>
</g>
<!-- 3 -->
<g id="node4" class="node">
<title>3</title>
<path fill="none" stroke="#5663d8" stroke-width="2" stroke-dasharray="5,2" d="M204.5,-252C204.5,-252 88.5,-252 88.5,-252 82.5,-252 76.5,-246 76.5,-240 76.5,-240 76.5,-228 76.5,-228 76.5,-222 82.5,-216 88.5,-216 88.5,-216 204.5,-216 204.5,-216 210.5,-216 216.5,-222 216.5,-228 216.5,-228 216.5,-240 216.5,-240 216.5,-246 210.5,-252 204.5,-252"/>
<text text-anchor="middle" x="146.5" y="-231.5" font-family="sans" font-size="10.00">process_with_xnemogcm</text>
</g>
<!-- 3&#45;&gt;2 -->
<g id="edge12" class="edge">
<title>3&#45;&gt;2</title>
<path fill="none" stroke="grey" stroke-width="2" d="M127.71,-215.7C118.33,-207.05 106.82,-196.45 96.59,-187.03"/>
<polygon fill="grey" stroke="grey" stroke-width="2" points="98.8,-184.3 89.07,-180.1 94.05,-189.45 98.8,-184.3"/>
</g>
<!-- 17 -->
<g id="node18" class="node">
<title>17</title>
<path fill="none" stroke="#56d8b9" stroke-width="2" stroke-dasharray="5,2" d="M287.5,-180C287.5,-180 171.5,-180 171.5,-180 165.5,-180 159.5,-174 159.5,-168 159.5,-168 159.5,-156 159.5,-156 159.5,-150 165.5,-144 171.5,-144 171.5,-144 287.5,-144 287.5,-144 293.5,-144 299.5,-150 299.5,-156 299.5,-156 299.5,-168 299.5,-168 299.5,-174 293.5,-180 287.5,-180"/>
<text text-anchor="middle" x="229.5" y="-159.5" font-family="sans" font-size="10.00">process_exp_short_name</text>
</g>
<!-- 3&#45;&gt;17 -->
<g id="edge22" class="edge">
<title>3&#45;&gt;17</title>
<path fill="none" stroke="grey" stroke-width="2" d="M167.02,-215.7C177.37,-206.97 190.09,-196.24 201.34,-186.75"/>
<polygon fill="grey" stroke="grey" stroke-width="2" points="203.83,-189.23 209.22,-180.1 199.32,-183.88 203.83,-189.23"/>
</g>
<!-- 4 -->
<g id="node5" class="node">
<title>4</title>
<path fill="none" stroke="#56d8c9" stroke-width="2" stroke-dasharray="5,2" d="M246.5,-329C246.5,-329 46.5,-329 46.5,-329 40.5,-329 34.5,-323 34.5,-317 34.5,-317 34.5,-300 34.5,-300 34.5,-294 40.5,-288 46.5,-288 46.5,-288 246.5,-288 246.5,-288 252.5,-288 258.5,-294 258.5,-300 258.5,-300 258.5,-317 258.5,-317 258.5,-323 252.5,-329 246.5,-329"/>
<text text-anchor="middle" x="146.5" y="-317" font-family="sans" font-size="10.00">process_delta_t</text>
<text text-anchor="middle" x="146.5" y="-306" font-family="sans" font-size="10.00">config: EXP_rn_lambda1_0.06_rn_a0_0.165</text>
<text text-anchor="middle" x="146.5" y="-295" font-family="sans" font-size="10.00">exp: EXP_main</text>
</g>
<!-- 4&#45;&gt;3 -->
<g id="edge13" class="edge">
<title>4&#45;&gt;3</title>
<path fill="none" stroke="grey" stroke-width="2" d="M146.5,-287.69C146.5,-279.91 146.5,-270.84 146.5,-262.45"/>
<polygon fill="grey" stroke="grey" stroke-width="2" points="150,-262.32 146.5,-252.32 143,-262.32 150,-262.32"/>
</g>
<!-- 5 -->
<g id="node6" class="node">
<title>5</title>
<path fill="none" stroke="#a7d856" stroke-width="2" stroke-dasharray="5,2" d="M447,-180C447,-180 330,-180 330,-180 324,-180 318,-174 318,-168 318,-168 318,-156 318,-156 318,-150 324,-144 330,-144 330,-144 447,-144 447,-144 453,-144 459,-150 459,-156 459,-156 459,-168 459,-168 459,-174 453,-180 447,-180"/>
<text text-anchor="middle" x="388.5" y="-159.5" font-family="sans" font-size="10.00">diag_alpha_function_of_T</text>
</g>
<!-- 5&#45;&gt;1 -->
<g id="edge3" class="edge">
<title>5&#45;&gt;1</title>
<path fill="none" stroke="grey" stroke-width="2" d="M459.14,-145.81C462.3,-145.19 465.43,-144.58 468.5,-144 553.97,-127.78 652.91,-111.66 717.21,-101.53"/>
<polygon fill="grey" stroke="grey" stroke-width="2" points="717.89,-104.97 727.23,-99.96 716.81,-98.05 717.89,-104.97"/>
</g>
<!-- 6 -->
<g id="node7" class="node">
<title>6</title>
<path fill="none" stroke="#5663d8" stroke-width="2" stroke-dasharray="5,2" d="M484.5,-252C484.5,-252 368.5,-252 368.5,-252 362.5,-252 356.5,-246 356.5,-240 356.5,-240 356.5,-228 356.5,-228 356.5,-222 362.5,-216 368.5,-216 368.5,-216 484.5,-216 484.5,-216 490.5,-216 496.5,-222 496.5,-228 496.5,-228 496.5,-240 496.5,-240 496.5,-246 490.5,-252 484.5,-252"/>
<text text-anchor="middle" x="426.5" y="-231.5" font-family="sans" font-size="10.00">process_with_xnemogcm</text>
</g>
<!-- 6&#45;&gt;5 -->
<g id="edge14" class="edge">
<title>6&#45;&gt;5</title>
<path fill="none" stroke="grey" stroke-width="2" d="M417.11,-215.7C412.74,-207.64 407.44,-197.89 402.6,-188.98"/>
<polygon fill="grey" stroke="grey" stroke-width="2" points="405.63,-187.22 397.79,-180.1 399.48,-190.56 405.63,-187.22"/>
</g>
<!-- 18 -->
<g id="node19" class="node">
<title>18</title>
<path fill="none" stroke="#56d8b9" stroke-width="2" stroke-dasharray="5,2" d="M605.5,-180C605.5,-180 489.5,-180 489.5,-180 483.5,-180 477.5,-174 477.5,-168 477.5,-168 477.5,-156 477.5,-156 477.5,-150 483.5,-144 489.5,-144 489.5,-144 605.5,-144 605.5,-144 611.5,-144 617.5,-150 617.5,-156 617.5,-156 617.5,-168 617.5,-168 617.5,-174 611.5,-180 605.5,-180"/>
<text text-anchor="middle" x="547.5" y="-159.5" font-family="sans" font-size="10.00">process_exp_short_name</text>
</g>
<!-- 6&#45;&gt;18 -->
<g id="edge23" class="edge">
<title>6&#45;&gt;18</title>
<path fill="none" stroke="grey" stroke-width="2" d="M456.1,-215.88C472.07,-206.64 491.96,-195.13 509.11,-185.21"/>
<polygon fill="grey" stroke="grey" stroke-width="2" points="510.88,-188.23 517.79,-180.19 507.38,-182.17 510.88,-188.23"/>
</g>
<!-- 7 -->
<g id="node8" class="node">
<title>7</title>
<path fill="none" stroke="#56d8c9" stroke-width="2" stroke-dasharray="5,2" d="M526.5,-329C526.5,-329 326.5,-329 326.5,-329 320.5,-329 314.5,-323 314.5,-317 314.5,-317 314.5,-300 314.5,-300 314.5,-294 320.5,-288 326.5,-288 326.5,-288 526.5,-288 526.5,-288 532.5,-288 538.5,-294 538.5,-300 538.5,-300 538.5,-317 538.5,-317 538.5,-323 532.5,-329 526.5,-329"/>
<text text-anchor="middle" x="426.5" y="-317" font-family="sans" font-size="10.00">process_delta_t</text>
<text text-anchor="middle" x="426.5" y="-306" font-family="sans" font-size="10.00">config: EXP_rn_lambda1_0.08_rn_a0_0.165</text>
<text text-anchor="middle" x="426.5" y="-295" font-family="sans" font-size="10.00">exp: EXP_main</text>
</g>
<!-- 7&#45;&gt;6 -->
<g id="edge15" class="edge">
<title>7&#45;&gt;6</title>
<path fill="none" stroke="grey" stroke-width="2" d="M426.5,-287.69C426.5,-279.91 426.5,-270.84 426.5,-262.45"/>
<polygon fill="grey" stroke="grey" stroke-width="2" points="430,-262.32 426.5,-252.32 423,-262.32 430,-262.32"/>
</g>
<!-- 8 -->
<g id="node9" class="node">
<title>8</title>
<path fill="none" stroke="#a7d856" stroke-width="2" stroke-dasharray="5,2" d="M765,-180C765,-180 648,-180 648,-180 642,-180 636,-174 636,-168 636,-168 636,-156 636,-156 636,-150 642,-144 648,-144 648,-144 765,-144 765,-144 771,-144 777,-150 777,-156 777,-156 777,-168 777,-168 777,-174 771,-180 765,-180"/>
<text text-anchor="middle" x="706.5" y="-159.5" font-family="sans" font-size="10.00">diag_alpha_function_of_T</text>
</g>
<!-- 8&#45;&gt;1 -->
<g id="edge4" class="edge">
<title>8&#45;&gt;1</title>
<path fill="none" stroke="grey" stroke-width="2" d="M726.03,-143.7C735.88,-134.97 747.99,-124.24 758.7,-114.75"/>
<polygon fill="grey" stroke="grey" stroke-width="2" points="761.03,-117.36 766.2,-108.1 756.39,-112.12 761.03,-117.36"/>
</g>
<!-- 9 -->
<g id="node10" class="node">
<title>9</title>
<path fill="none" stroke="#5663d8" stroke-width="2" stroke-dasharray="5,2" d="M802.5,-252C802.5,-252 686.5,-252 686.5,-252 680.5,-252 674.5,-246 674.5,-240 674.5,-240 674.5,-228 674.5,-228 674.5,-222 680.5,-216 686.5,-216 686.5,-216 802.5,-216 802.5,-216 808.5,-216 814.5,-222 814.5,-228 814.5,-228 814.5,-240 814.5,-240 814.5,-246 808.5,-252 802.5,-252"/>
<text text-anchor="middle" x="744.5" y="-231.5" font-family="sans" font-size="10.00">process_with_xnemogcm</text>
</g>
<!-- 9&#45;&gt;8 -->
<g id="edge16" class="edge">
<title>9&#45;&gt;8</title>
<path fill="none" stroke="grey" stroke-width="2" d="M735.11,-215.7C730.74,-207.64 725.44,-197.89 720.6,-188.98"/>
<polygon fill="grey" stroke="grey" stroke-width="2" points="723.63,-187.22 715.79,-180.1 717.48,-190.56 723.63,-187.22"/>
</g>
<!-- 19 -->
<g id="node20" class="node">
<title>19</title>
<path fill="none" stroke="#56d8b9" stroke-width="2" stroke-dasharray="5,2" d="M923.5,-180C923.5,-180 807.5,-180 807.5,-180 801.5,-180 795.5,-174 795.5,-168 795.5,-168 795.5,-156 795.5,-156 795.5,-150 801.5,-144 807.5,-144 807.5,-144 923.5,-144 923.5,-144 929.5,-144 935.5,-150 935.5,-156 935.5,-156 935.5,-168 935.5,-168 935.5,-174 929.5,-180 923.5,-180"/>
<text text-anchor="middle" x="865.5" y="-159.5" font-family="sans" font-size="10.00">process_exp_short_name</text>
</g>
<!-- 9&#45;&gt;19 -->
<g id="edge24" class="edge">
<title>9&#45;&gt;19</title>
<path fill="none" stroke="grey" stroke-width="2" d="M774.1,-215.88C790.07,-206.64 809.96,-195.13 827.11,-185.21"/>
<polygon fill="grey" stroke="grey" stroke-width="2" points="828.88,-188.23 835.79,-180.19 825.38,-182.17 828.88,-188.23"/>
</g>
<!-- 10 -->
<g id="node11" class="node">
<title>10</title>
<path fill="none" stroke="#56d8c9" stroke-width="2" stroke-dasharray="5,2" d="M844.5,-329C844.5,-329 644.5,-329 644.5,-329 638.5,-329 632.5,-323 632.5,-317 632.5,-317 632.5,-300 632.5,-300 632.5,-294 638.5,-288 644.5,-288 644.5,-288 844.5,-288 844.5,-288 850.5,-288 856.5,-294 856.5,-300 856.5,-300 856.5,-317 856.5,-317 856.5,-323 850.5,-329 844.5,-329"/>
<text text-anchor="middle" x="744.5" y="-317" font-family="sans" font-size="10.00">process_delta_t</text>
<text text-anchor="middle" x="744.5" y="-306" font-family="sans" font-size="10.00">config: EXP_rn_lambda1_0.06_rn_a0_0.145</text>
<text text-anchor="middle" x="744.5" y="-295" font-family="sans" font-size="10.00">exp: EXP_main</text>
</g>
<!-- 10&#45;&gt;9 -->
<g id="edge17" class="edge">
<title>10&#45;&gt;9</title>
<path fill="none" stroke="grey" stroke-width="2" d="M744.5,-287.69C744.5,-279.91 744.5,-270.84 744.5,-262.45"/>
<polygon fill="grey" stroke="grey" stroke-width="2" points="748,-262.32 744.5,-252.32 741,-262.32 748,-262.32"/>
</g>
<!-- 11 -->
<g id="node12" class="node">
<title>11</title>
<path fill="none" stroke="#a7d856" stroke-width="2" stroke-dasharray="5,2" d="M1083,-180C1083,-180 966,-180 966,-180 960,-180 954,-174 954,-168 954,-168 954,-156 954,-156 954,-150 960,-144 966,-144 966,-144 1083,-144 1083,-144 1089,-144 1095,-150 1095,-156 1095,-156 1095,-168 1095,-168 1095,-174 1089,-180 1083,-180"/>
<text text-anchor="middle" x="1024.5" y="-159.5" font-family="sans" font-size="10.00">diag_alpha_function_of_T</text>
</g>
<!-- 11&#45;&gt;1 -->
<g id="edge5" class="edge">
<title>11&#45;&gt;1</title>
<path fill="none" stroke="grey" stroke-width="2" d="M966.34,-143.97C932.24,-133.98 889,-121.31 853.35,-110.87"/>
<polygon fill="grey" stroke="grey" stroke-width="2" points="854.09,-107.44 843.51,-107.99 852.12,-114.16 854.09,-107.44"/>
</g>
<!-- 12 -->
<g id="node13" class="node">
<title>12</title>
<path fill="none" stroke="#5663d8" stroke-width="2" stroke-dasharray="5,2" d="M1120.5,-252C1120.5,-252 1004.5,-252 1004.5,-252 998.5,-252 992.5,-246 992.5,-240 992.5,-240 992.5,-228 992.5,-228 992.5,-222 998.5,-216 1004.5,-216 1004.5,-216 1120.5,-216 1120.5,-216 1126.5,-216 1132.5,-222 1132.5,-228 1132.5,-228 1132.5,-240 1132.5,-240 1132.5,-246 1126.5,-252 1120.5,-252"/>
<text text-anchor="middle" x="1062.5" y="-231.5" font-family="sans" font-size="10.00">process_with_xnemogcm</text>
</g>
<!-- 12&#45;&gt;11 -->
<g id="edge18" class="edge">
<title>12&#45;&gt;11</title>
<path fill="none" stroke="grey" stroke-width="2" d="M1053.11,-215.7C1048.74,-207.64 1043.44,-197.89 1038.6,-188.98"/>
<polygon fill="grey" stroke="grey" stroke-width="2" points="1041.63,-187.22 1033.79,-180.1 1035.48,-190.56 1041.63,-187.22"/>
</g>
<!-- 20 -->
<g id="node21" class="node">
<title>20</title>
<path fill="none" stroke="#56d8b9" stroke-width="2" stroke-dasharray="5,2" d="M1241.5,-180C1241.5,-180 1125.5,-180 1125.5,-180 1119.5,-180 1113.5,-174 1113.5,-168 1113.5,-168 1113.5,-156 1113.5,-156 1113.5,-150 1119.5,-144 1125.5,-144 1125.5,-144 1241.5,-144 1241.5,-144 1247.5,-144 1253.5,-150 1253.5,-156 1253.5,-156 1253.5,-168 1253.5,-168 1253.5,-174 1247.5,-180 1241.5,-180"/>
<text text-anchor="middle" x="1183.5" y="-159.5" font-family="sans" font-size="10.00">process_exp_short_name</text>
</g>
<!-- 12&#45;&gt;20 -->
<g id="edge25" class="edge">
<title>12&#45;&gt;20</title>
<path fill="none" stroke="grey" stroke-width="2" d="M1092.1,-215.88C1108.07,-206.64 1127.96,-195.13 1145.11,-185.21"/>
<polygon fill="grey" stroke="grey" stroke-width="2" points="1146.88,-188.23 1153.79,-180.19 1143.38,-182.17 1146.88,-188.23"/>
</g>
<!-- 13 -->
<g id="node14" class="node">
<title>13</title>
<path fill="none" stroke="#56d8c9" stroke-width="2" stroke-dasharray="5,2" d="M1162.5,-329C1162.5,-329 962.5,-329 962.5,-329 956.5,-329 950.5,-323 950.5,-317 950.5,-317 950.5,-300 950.5,-300 950.5,-294 956.5,-288 962.5,-288 962.5,-288 1162.5,-288 1162.5,-288 1168.5,-288 1174.5,-294 1174.5,-300 1174.5,-300 1174.5,-317 1174.5,-317 1174.5,-323 1168.5,-329 1162.5,-329"/>
<text text-anchor="middle" x="1062.5" y="-317" font-family="sans" font-size="10.00">process_delta_t</text>
<text text-anchor="middle" x="1062.5" y="-306" font-family="sans" font-size="10.00">config: EXP_rn_lambda1_0.06_rn_a0_0.185</text>
<text text-anchor="middle" x="1062.5" y="-295" font-family="sans" font-size="10.00">exp: EXP_main</text>
</g>
<!-- 13&#45;&gt;12 -->
<g id="edge19" class="edge">
<title>13&#45;&gt;12</title>
<path fill="none" stroke="grey" stroke-width="2" d="M1062.5,-287.69C1062.5,-279.91 1062.5,-270.84 1062.5,-262.45"/>
<polygon fill="grey" stroke="grey" stroke-width="2" points="1066,-262.32 1062.5,-252.32 1059,-262.32 1066,-262.32"/>
</g>
<!-- 14 -->
<g id="node15" class="node">
<title>14</title>
<path fill="none" stroke="#a7d856" stroke-width="2" stroke-dasharray="5,2" d="M1401,-180C1401,-180 1284,-180 1284,-180 1278,-180 1272,-174 1272,-168 1272,-168 1272,-156 1272,-156 1272,-150 1278,-144 1284,-144 1284,-144 1401,-144 1401,-144 1407,-144 1413,-150 1413,-156 1413,-156 1413,-168 1413,-168 1413,-174 1407,-180 1401,-180"/>
<text text-anchor="middle" x="1342.5" y="-159.5" font-family="sans" font-size="10.00">diag_alpha_function_of_T</text>
</g>
<!-- 14&#45;&gt;1 -->
<g id="edge6" class="edge">
<title>14&#45;&gt;1</title>
<path fill="none" stroke="grey" stroke-width="2" d="M1271.9,-145.6C1268.73,-145.04 1265.58,-144.5 1262.5,-144 1117.8,-120.65 946.74,-104.36 853.87,-96.46"/>
<polygon fill="grey" stroke="grey" stroke-width="2" points="854.02,-92.96 843.76,-95.61 853.43,-99.93 854.02,-92.96"/>
</g>
<!-- 15 -->
<g id="node16" class="node">
<title>15</title>
<path fill="none" stroke="#5663d8" stroke-width="2" stroke-dasharray="5,2" d="M1479.5,-252C1479.5,-252 1363.5,-252 1363.5,-252 1357.5,-252 1351.5,-246 1351.5,-240 1351.5,-240 1351.5,-228 1351.5,-228 1351.5,-222 1357.5,-216 1363.5,-216 1363.5,-216 1479.5,-216 1479.5,-216 1485.5,-216 1491.5,-222 1491.5,-228 1491.5,-228 1491.5,-240 1491.5,-240 1491.5,-246 1485.5,-252 1479.5,-252"/>
<text text-anchor="middle" x="1421.5" y="-231.5" font-family="sans" font-size="10.00">process_with_xnemogcm</text>
</g>
<!-- 15&#45;&gt;14 -->
<g id="edge20" class="edge">
<title>15&#45;&gt;14</title>
<path fill="none" stroke="grey" stroke-width="2" d="M1401.97,-215.7C1392.12,-206.97 1380.01,-196.24 1369.3,-186.75"/>
<polygon fill="grey" stroke="grey" stroke-width="2" points="1371.61,-184.12 1361.8,-180.1 1366.97,-189.36 1371.61,-184.12"/>
</g>
<!-- 21 -->
<g id="node22" class="node">
<title>21</title>
<path fill="none" stroke="#56d8b9" stroke-width="2" stroke-dasharray="5,2" d="M1559.5,-180C1559.5,-180 1443.5,-180 1443.5,-180 1437.5,-180 1431.5,-174 1431.5,-168 1431.5,-168 1431.5,-156 1431.5,-156 1431.5,-150 1437.5,-144 1443.5,-144 1443.5,-144 1559.5,-144 1559.5,-144 1565.5,-144 1571.5,-150 1571.5,-156 1571.5,-156 1571.5,-168 1571.5,-168 1571.5,-174 1565.5,-180 1559.5,-180"/>
<text text-anchor="middle" x="1501.5" y="-159.5" font-family="sans" font-size="10.00">process_exp_short_name</text>
</g>
<!-- 15&#45;&gt;21 -->
<g id="edge26" class="edge">
<title>15&#45;&gt;21</title>
<path fill="none" stroke="grey" stroke-width="2" d="M1441.28,-215.7C1451.25,-206.97 1463.51,-196.24 1474.36,-186.75"/>
<polygon fill="grey" stroke="grey" stroke-width="2" points="1476.73,-189.32 1481.95,-180.1 1472.12,-184.06 1476.73,-189.32"/>
</g>
<!-- 16 -->
<g id="node17" class="node">
<title>16</title>
<path fill="none" stroke="#56d8c9" stroke-width="2" stroke-dasharray="5,2" d="M1521.5,-329C1521.5,-329 1321.5,-329 1321.5,-329 1315.5,-329 1309.5,-323 1309.5,-317 1309.5,-317 1309.5,-300 1309.5,-300 1309.5,-294 1315.5,-288 1321.5,-288 1321.5,-288 1521.5,-288 1521.5,-288 1527.5,-288 1533.5,-294 1533.5,-300 1533.5,-300 1533.5,-317 1533.5,-317 1533.5,-323 1527.5,-329 1521.5,-329"/>
<text text-anchor="middle" x="1421.5" y="-317" font-family="sans" font-size="10.00">process_delta_t</text>
<text text-anchor="middle" x="1421.5" y="-306" font-family="sans" font-size="10.00">config: EXP_rn_lambda1_0.04_rn_a0_0.165</text>
<text text-anchor="middle" x="1421.5" y="-295" font-family="sans" font-size="10.00">exp: EXP_main</text>
</g>
<!-- 16&#45;&gt;15 -->
<g id="edge21" class="edge">
<title>16&#45;&gt;15</title>
<path fill="none" stroke="grey" stroke-width="2" d="M1421.5,-287.69C1421.5,-279.91 1421.5,-270.84 1421.5,-262.45"/>
<polygon fill="grey" stroke="grey" stroke-width="2" points="1425,-262.32 1421.5,-252.32 1418,-262.32 1425,-262.32"/>
</g>
<!-- 17&#45;&gt;1 -->
<g id="edge7" class="edge">
<title>17&#45;&gt;1</title>
<path fill="none" stroke="grey" stroke-width="2" d="M299.64,-145.52C302.63,-144.98 305.59,-144.47 308.5,-144 453.17,-120.46 624.24,-104.25 717.12,-96.4"/>
<polygon fill="grey" stroke="grey" stroke-width="2" points="717.56,-99.88 727.23,-95.56 716.98,-92.9 717.56,-99.88"/>
</g>
<!-- 18&#45;&gt;1 -->
<g id="edge8" class="edge">
<title>18&#45;&gt;1</title>
<path fill="none" stroke="grey" stroke-width="2" d="M605.42,-143.97C639.25,-134.01 682.12,-121.41 717.54,-110.99"/>
<polygon fill="grey" stroke="grey" stroke-width="2" points="718.72,-114.29 727.32,-108.11 716.74,-107.57 718.72,-114.29"/>
</g>
<!-- 19&#45;&gt;1 -->
<g id="edge9" class="edge">
<title>19&#45;&gt;1</title>
<path fill="none" stroke="grey" stroke-width="2" d="M845.72,-143.7C835.75,-134.97 823.49,-124.24 812.64,-114.75"/>
<polygon fill="grey" stroke="grey" stroke-width="2" points="814.88,-112.06 805.05,-108.1 810.27,-117.32 814.88,-112.06"/>
</g>
<!-- 20&#45;&gt;1 -->
<g id="edge10" class="edge">
<title>20&#45;&gt;1</title>
<path fill="none" stroke="grey" stroke-width="2" d="M1113.32,-145.72C1110.34,-145.13 1107.39,-144.55 1104.5,-144 1018.26,-127.57 918.34,-111.43 853.64,-101.36"/>
<polygon fill="grey" stroke="grey" stroke-width="2" points="853.98,-97.88 843.57,-99.8 852.91,-104.79 853.98,-97.88"/>
</g>
<!-- 21&#45;&gt;1 -->
<g id="edge11" class="edge">
<title>21&#45;&gt;1</title>
<path fill="none" stroke="grey" stroke-width="2" d="M1431.37,-145.42C1428.38,-144.91 1425.41,-144.43 1422.5,-144 1216.85,-113.45 971.05,-99.23 854,-93.8"/>
<polygon fill="grey" stroke="grey" stroke-width="2" points="853.91,-90.29 843.76,-93.33 853.59,-97.28 853.91,-90.29"/>
</g>
</g>
</svg>
