<?xml version="1.0" encoding="UTF-8" standalone="no"?>
<!DOCTYPE svg PUBLIC "-//W3C//DTD SVG 1.1//EN"
 "http://www.w3.org/Graphics/SVG/1.1/DTD/svg11.dtd">
<!-- Generated by graphviz version 2.43.0 (0)
 -->
<!-- Title: snakemake_dag Pages: 1 -->
<svg width="274pt" height="409pt"
 viewBox="0.00 0.00 273.50 409.00" xmlns="http://www.w3.org/2000/svg" xmlns:xlink="http://www.w3.org/1999/xlink">
<g id="graph0" class="graph" transform="scale(1 1) rotate(0) translate(4 405)">
<title>snakemake_dag</title>
<polygon fill="white" stroke="transparent" points="-4,4 -4,-405 269.5,-405 269.5,4 -4,4"/>
<!-- 0 -->
<g id="node1" class="node">
<title>0</title>
<path fill="none" stroke="#56c1d8" stroke-width="2" d="M192.5,-36C192.5,-36 83.5,-36 83.5,-36 77.5,-36 71.5,-30 71.5,-24 71.5,-24 71.5,-12 71.5,-12 71.5,-6 77.5,0 83.5,0 83.5,0 192.5,0 192.5,0 198.5,0 204.5,-6 204.5,-12 204.5,-12 204.5,-24 204.5,-24 204.5,-30 198.5,-36 192.5,-36"/>
<text text-anchor="middle" x="138" y="-21" font-family="sans" font-size="10.00">paper_fig_from_number</text>
<text text-anchor="middle" x="138" y="-10" font-family="sans" font-size="10.00">n: 3</text>
</g>
<!-- 1 -->
<g id="node2" class="node">
<title>1</title>
<path fill="none" stroke="#b6d856" stroke-width="2" stroke-dasharray="5,2" d="M177.5,-108C177.5,-108 98.5,-108 98.5,-108 92.5,-108 86.5,-102 86.5,-96 86.5,-96 86.5,-84 86.5,-84 86.5,-78 92.5,-72 98.5,-72 98.5,-72 177.5,-72 177.5,-72 183.5,-72 189.5,-78 189.5,-84 189.5,-84 189.5,-96 189.5,-96 189.5,-102 183.5,-108 177.5,-108"/>
<text text-anchor="middle" x="138" y="-93" font-family="sans" font-size="10.00">plot_config_paper</text>
<text text-anchor="middle" x="138" y="-82" font-family="sans" font-size="10.00">fig: moc_sigma</text>
</g>
<!-- 1&#45;&gt;0 -->
<g id="edge1" class="edge">
<title>1&#45;&gt;0</title>
<path fill="none" stroke="grey" stroke-width="2" d="M138,-71.7C138,-63.98 138,-54.71 138,-46.11"/>
<polygon fill="grey" stroke="grey" stroke-width="2" points="141.5,-46.1 138,-36.1 134.5,-46.1 141.5,-46.1"/>
</g>
<!-- 2 -->
<g id="node3" class="node">
<title>2</title>
<path fill="none" stroke="#c6d856" stroke-width="2" stroke-dasharray="5,2" d="M170,-324C170,-324 54,-324 54,-324 48,-324 42,-318 42,-312 42,-312 42,-300 42,-300 42,-294 48,-288 54,-288 54,-288 170,-288 170,-288 176,-288 182,-294 182,-300 182,-300 182,-312 182,-312 182,-318 176,-324 170,-324"/>
<text text-anchor="middle" x="112" y="-303.5" font-family="sans" font-size="10.00">process_with_xnemogcm</text>
</g>
<!-- 2&#45;&gt;1 -->
<g id="edge2" class="edge">
<title>2&#45;&gt;1</title>
<path fill="none" stroke="grey" stroke-width="2" d="M105.78,-287.53C96.03,-257.36 79.94,-193.94 97,-144 100.44,-133.93 106.66,-124.28 113.23,-116.05"/>
<polygon fill="grey" stroke="grey" stroke-width="2" points="116,-118.2 119.83,-108.32 110.68,-113.65 116,-118.2"/>
</g>
<!-- 4 -->
<g id="node5" class="node">
<title>4</title>
<path fill="none" stroke="#56d882" stroke-width="2" stroke-dasharray="5,2" d="M158,-180C158,-180 118,-180 118,-180 112,-180 106,-174 106,-168 106,-168 106,-156 106,-156 106,-150 112,-144 118,-144 118,-144 158,-144 158,-144 164,-144 170,-150 170,-156 170,-156 170,-168 170,-168 170,-174 164,-180 158,-180"/>
<text text-anchor="middle" x="138" y="-159.5" font-family="sans" font-size="10.00">diag_moc</text>
</g>
<!-- 2&#45;&gt;4 -->
<g id="edge6" class="edge">
<title>2&#45;&gt;4</title>
<path fill="none" stroke="grey" stroke-width="2" d="M115.14,-287.87C119.57,-263.67 127.71,-219.21 132.98,-190.39"/>
<polygon fill="grey" stroke="grey" stroke-width="2" points="136.49,-190.66 134.85,-180.19 129.61,-189.4 136.49,-190.66"/>
</g>
<!-- 5 -->
<g id="node6" class="node">
<title>5</title>
<path fill="none" stroke="#5682d8" stroke-width="2" stroke-dasharray="5,2" d="M253.5,-252C253.5,-252 152.5,-252 152.5,-252 146.5,-252 140.5,-246 140.5,-240 140.5,-240 140.5,-228 140.5,-228 140.5,-222 146.5,-216 152.5,-216 152.5,-216 253.5,-216 253.5,-216 259.5,-216 265.5,-222 265.5,-228 265.5,-228 265.5,-240 265.5,-240 265.5,-246 259.5,-252 253.5,-252"/>
<text text-anchor="middle" x="203" y="-231.5" font-family="sans" font-size="10.00">diag_thermodynamics</text>
</g>
<!-- 2&#45;&gt;5 -->
<g id="edge8" class="edge">
<title>2&#45;&gt;5</title>
<path fill="none" stroke="grey" stroke-width="2" d="M134.49,-287.7C145.96,-278.88 160.06,-268.03 172.48,-258.47"/>
<polygon fill="grey" stroke="grey" stroke-width="2" points="174.97,-260.98 180.76,-252.1 170.7,-255.43 174.97,-260.98"/>
</g>
<!-- 3 -->
<g id="node4" class="node">
<title>3</title>
<path fill="none" stroke="#56d873" stroke-width="2" stroke-dasharray="5,2" d="M212,-401C212,-401 12,-401 12,-401 6,-401 0,-395 0,-389 0,-389 0,-372 0,-372 0,-366 6,-360 12,-360 12,-360 212,-360 212,-360 218,-360 224,-366 224,-372 224,-372 224,-389 224,-389 224,-395 218,-401 212,-401"/>
<text text-anchor="middle" x="112" y="-389" font-family="sans" font-size="10.00">process_delta_t</text>
<text text-anchor="middle" x="112" y="-378" font-family="sans" font-size="10.00">config: EXP_rn_lambda1_0.06_rn_a0_0.165</text>
<text text-anchor="middle" x="112" y="-367" font-family="sans" font-size="10.00">exp: EXP_main</text>
</g>
<!-- 3&#45;&gt;2 -->
<g id="edge5" class="edge">
<title>3&#45;&gt;2</title>
<path fill="none" stroke="grey" stroke-width="2" d="M112,-359.69C112,-351.91 112,-342.84 112,-334.45"/>
<polygon fill="grey" stroke="grey" stroke-width="2" points="115.5,-334.32 112,-324.32 108.5,-334.32 115.5,-334.32"/>
</g>
<!-- 4&#45;&gt;1 -->
<g id="edge3" class="edge">
<title>4&#45;&gt;1</title>
<path fill="none" stroke="grey" stroke-width="2" d="M138,-143.7C138,-135.98 138,-126.71 138,-118.11"/>
<polygon fill="grey" stroke="grey" stroke-width="2" points="141.5,-118.1 138,-108.1 134.5,-118.1 141.5,-118.1"/>
</g>
<!-- 5&#45;&gt;1 -->
<g id="edge4" class="edge">
<title>5&#45;&gt;1</title>
<path fill="none" stroke="grey" stroke-width="2" d="M200.45,-215.89C197.24,-197.42 190.67,-167.51 179,-144 174.19,-134.31 167.46,-124.67 160.85,-116.31"/>
<polygon fill="grey" stroke="grey" stroke-width="2" points="163.41,-113.92 154.34,-108.44 158.01,-118.38 163.41,-113.92"/>
</g>
<!-- 5&#45;&gt;4 -->
<g id="edge7" class="edge">
<title>5&#45;&gt;4</title>
<path fill="none" stroke="grey" stroke-width="2" d="M186.93,-215.7C179.06,-207.22 169.44,-196.86 160.83,-187.58"/>
<polygon fill="grey" stroke="grey" stroke-width="2" points="163.25,-185.05 153.88,-180.1 158.12,-189.81 163.25,-185.05"/>
</g>
</g>
</svg>
