<?xml version="1.0" encoding="UTF-8" standalone="no"?>
<!DOCTYPE svg PUBLIC "-//W3C//DTD SVG 1.1//EN"
 "http://www.w3.org/Graphics/SVG/1.1/DTD/svg11.dtd">
<!-- Generated by graphviz version 2.43.0 (0)
 -->
<!-- Title: snakemake_dag Pages: 1 -->
<svg width="141pt" height="116pt"
 viewBox="0.00 0.00 141.00 116.00" xmlns="http://www.w3.org/2000/svg" xmlns:xlink="http://www.w3.org/1999/xlink">
<g id="graph0" class="graph" transform="scale(1 1) rotate(0) translate(4 112)">
<title>snakemake_dag</title>
<polygon fill="white" stroke="transparent" points="-4,4 -4,-112 137,-112 137,4 -4,4"/>
<!-- 0 -->
<g id="node1" class="node">
<title>0</title>
<path fill="none" stroke="#56d892" stroke-width="2" d="M121,-36C121,-36 12,-36 12,-36 6,-36 0,-30 0,-24 0,-24 0,-12 0,-12 0,-6 6,0 12,0 12,0 121,0 121,0 127,0 133,-6 133,-12 133,-12 133,-24 133,-24 133,-30 127,-36 121,-36"/>
<text text-anchor="middle" x="66.5" y="-21" font-family="sans" font-size="10.00">paper_fig_from_number</text>
<text text-anchor="middle" x="66.5" y="-10" font-family="sans" font-size="10.00">n: 11</text>
</g>
<!-- 1 -->
<g id="node2" class="node">
<title>1</title>
<path fill="none" stroke="#a7d856" stroke-width="2" stroke-dasharray="5,2" d="M112.5,-108C112.5,-108 20.5,-108 20.5,-108 14.5,-108 8.5,-102 8.5,-96 8.5,-96 8.5,-84 8.5,-84 8.5,-78 14.5,-72 20.5,-72 20.5,-72 112.5,-72 112.5,-72 118.5,-72 124.5,-78 124.5,-84 124.5,-84 124.5,-96 124.5,-96 124.5,-102 118.5,-108 112.5,-108"/>
<text text-anchor="middle" x="66.5" y="-87.5" font-family="sans" font-size="10.00">paper_global_sketch</text>
</g>
<!-- 1&#45;&gt;0 -->
<g id="edge1" class="edge">
<title>1&#45;&gt;0</title>
<path fill="none" stroke="grey" stroke-width="2" d="M66.5,-71.7C66.5,-63.98 66.5,-54.71 66.5,-46.11"/>
<polygon fill="grey" stroke="grey" stroke-width="2" points="70,-46.1 66.5,-36.1 63,-46.1 70,-46.1"/>
</g>
</g>
</svg>
