<?xml version="1.0" encoding="UTF-8" standalone="no"?>
<!DOCTYPE svg PUBLIC "-//W3C//DTD SVG 1.1//EN"
 "http://www.w3.org/Graphics/SVG/1.1/DTD/svg11.dtd">
<!-- Generated by graphviz version 2.43.0 (0)
 -->
<!-- Title: snakemake_dag Pages: 1 -->
<svg width="274pt" height="409pt"
 viewBox="0.00 0.00 273.50 409.00" xmlns="http://www.w3.org/2000/svg" xmlns:xlink="http://www.w3.org/1999/xlink">
<g id="graph0" class="graph" transform="scale(1 1) rotate(0) translate(4 405)">
<title>snakemake_dag</title>
<polygon fill="white" stroke="transparent" points="-4,4 -4,-405 269.5,-405 269.5,4 -4,4"/>
<!-- 0 -->
<g id="node1" class="node">
<title>0</title>
<path fill="none" stroke="#d8d356" stroke-width="2" d="M173.5,-36C173.5,-36 64.5,-36 64.5,-36 58.5,-36 52.5,-30 52.5,-24 52.5,-24 52.5,-12 52.5,-12 52.5,-6 58.5,0 64.5,0 64.5,0 173.5,0 173.5,0 179.5,0 185.5,-6 185.5,-12 185.5,-12 185.5,-24 185.5,-24 185.5,-30 179.5,-36 173.5,-36"/>
<text text-anchor="middle" x="119" y="-21" font-family="sans" font-size="10.00">paper_fig_from_number</text>
<text text-anchor="middle" x="119" y="-10" font-family="sans" font-size="10.00">n: 7</text>
</g>
<!-- 1 -->
<g id="node2" class="node">
<title>1</title>
<path fill="none" stroke="#d87556" stroke-width="2" stroke-dasharray="5,2" d="M158.5,-108C158.5,-108 79.5,-108 79.5,-108 73.5,-108 67.5,-102 67.5,-96 67.5,-96 67.5,-84 67.5,-84 67.5,-78 73.5,-72 79.5,-72 79.5,-72 158.5,-72 158.5,-72 164.5,-72 170.5,-78 170.5,-84 170.5,-84 170.5,-96 170.5,-96 170.5,-102 164.5,-108 158.5,-108"/>
<text text-anchor="middle" x="119" y="-93" font-family="sans" font-size="10.00">plot_config_paper</text>
<text text-anchor="middle" x="119" y="-82" font-family="sans" font-size="10.00">fig: fb_tot</text>
</g>
<!-- 1&#45;&gt;0 -->
<g id="edge1" class="edge">
<title>1&#45;&gt;0</title>
<path fill="none" stroke="grey" stroke-width="2" d="M119,-71.7C119,-63.98 119,-54.71 119,-46.11"/>
<polygon fill="grey" stroke="grey" stroke-width="2" points="122.5,-46.1 119,-36.1 115.5,-46.1 122.5,-46.1"/>
</g>
<!-- 2 -->
<g id="node3" class="node">
<title>2</title>
<path fill="none" stroke="#5682d8" stroke-width="2" stroke-dasharray="5,2" d="M170,-324C170,-324 54,-324 54,-324 48,-324 42,-318 42,-312 42,-312 42,-300 42,-300 42,-294 48,-288 54,-288 54,-288 170,-288 170,-288 176,-288 182,-294 182,-300 182,-300 182,-312 182,-312 182,-318 176,-324 170,-324"/>
<text text-anchor="middle" x="112" y="-303.5" font-family="sans" font-size="10.00">process_with_xnemogcm</text>
</g>
<!-- 2&#45;&gt;1 -->
<g id="edge2" class="edge">
<title>2&#45;&gt;1</title>
<path fill="none" stroke="grey" stroke-width="2" d="M106.16,-287.87C96.89,-258.21 81.04,-195.54 93,-144 95.1,-134.96 98.97,-125.68 103.09,-117.47"/>
<polygon fill="grey" stroke="grey" stroke-width="2" points="106.31,-118.86 107.95,-108.39 100.14,-115.55 106.31,-118.86"/>
</g>
<!-- 4 -->
<g id="node5" class="node">
<title>4</title>
<path fill="none" stroke="#56d8a2" stroke-width="2" stroke-dasharray="5,2" d="M214,-180C214,-180 114,-180 114,-180 108,-180 102,-174 102,-168 102,-168 102,-156 102,-156 102,-150 108,-144 114,-144 114,-144 214,-144 214,-144 220,-144 226,-150 226,-156 226,-156 226,-168 226,-168 226,-174 220,-180 214,-180"/>
<text text-anchor="middle" x="164" y="-159.5" font-family="sans" font-size="10.00">diag_buoyancy_fluxes</text>
</g>
<!-- 2&#45;&gt;4 -->
<g id="edge5" class="edge">
<title>2&#45;&gt;4</title>
<path fill="none" stroke="grey" stroke-width="2" d="M113.88,-287.75C116.29,-269.43 121.36,-239.88 131,-216 134.75,-206.7 140.11,-197.2 145.41,-188.86"/>
<polygon fill="grey" stroke="grey" stroke-width="2" points="148.46,-190.59 151.07,-180.32 142.62,-186.72 148.46,-190.59"/>
</g>
<!-- 5 -->
<g id="node6" class="node">
<title>5</title>
<path fill="none" stroke="#c6d856" stroke-width="2" stroke-dasharray="5,2" d="M253.5,-252C253.5,-252 152.5,-252 152.5,-252 146.5,-252 140.5,-246 140.5,-240 140.5,-240 140.5,-228 140.5,-228 140.5,-222 146.5,-216 152.5,-216 152.5,-216 253.5,-216 253.5,-216 259.5,-216 265.5,-222 265.5,-228 265.5,-228 265.5,-240 265.5,-240 265.5,-246 259.5,-252 253.5,-252"/>
<text text-anchor="middle" x="203" y="-231.5" font-family="sans" font-size="10.00">diag_thermodynamics</text>
</g>
<!-- 2&#45;&gt;5 -->
<g id="edge7" class="edge">
<title>2&#45;&gt;5</title>
<path fill="none" stroke="grey" stroke-width="2" d="M134.49,-287.7C145.96,-278.88 160.06,-268.03 172.48,-258.47"/>
<polygon fill="grey" stroke="grey" stroke-width="2" points="174.97,-260.98 180.76,-252.1 170.7,-255.43 174.97,-260.98"/>
</g>
<!-- 3 -->
<g id="node4" class="node">
<title>3</title>
<path fill="none" stroke="#a7d856" stroke-width="2" stroke-dasharray="5,2" d="M212,-401C212,-401 12,-401 12,-401 6,-401 0,-395 0,-389 0,-389 0,-372 0,-372 0,-366 6,-360 12,-360 12,-360 212,-360 212,-360 218,-360 224,-366 224,-372 224,-372 224,-389 224,-389 224,-395 218,-401 212,-401"/>
<text text-anchor="middle" x="112" y="-389" font-family="sans" font-size="10.00">process_delta_t</text>
<text text-anchor="middle" x="112" y="-378" font-family="sans" font-size="10.00">config: EXP_rn_lambda1_0.06_rn_a0_0.165</text>
<text text-anchor="middle" x="112" y="-367" font-family="sans" font-size="10.00">exp: EXP_main</text>
</g>
<!-- 3&#45;&gt;2 -->
<g id="edge4" class="edge">
<title>3&#45;&gt;2</title>
<path fill="none" stroke="grey" stroke-width="2" d="M112,-359.69C112,-351.91 112,-342.84 112,-334.45"/>
<polygon fill="grey" stroke="grey" stroke-width="2" points="115.5,-334.32 112,-324.32 108.5,-334.32 115.5,-334.32"/>
</g>
<!-- 4&#45;&gt;1 -->
<g id="edge3" class="edge">
<title>4&#45;&gt;1</title>
<path fill="none" stroke="grey" stroke-width="2" d="M152.88,-143.7C147.64,-135.56 141.3,-125.69 135.52,-116.7"/>
<polygon fill="grey" stroke="grey" stroke-width="2" points="138.35,-114.62 130,-108.1 132.46,-118.41 138.35,-114.62"/>
</g>
<!-- 5&#45;&gt;4 -->
<g id="edge6" class="edge">
<title>5&#45;&gt;4</title>
<path fill="none" stroke="grey" stroke-width="2" d="M193.36,-215.7C188.87,-207.64 183.44,-197.89 178.48,-188.98"/>
<polygon fill="grey" stroke="grey" stroke-width="2" points="181.45,-187.14 173.53,-180.1 175.34,-190.54 181.45,-187.14"/>
</g>
</g>
</svg>
