<?xml version="1.0" encoding="UTF-8" standalone="no"?>
<!DOCTYPE svg PUBLIC "-//W3C//DTD SVG 1.1//EN"
 "http://www.w3.org/Graphics/SVG/1.1/DTD/svg11.dtd">
<!-- Generated by graphviz version 2.43.0 (0)
 -->
<!-- Title: snakemake_dag Pages: 1 -->
<svg width="1773pt" height="337pt"
 viewBox="0.00 0.00 1773.00 337.00" xmlns="http://www.w3.org/2000/svg" xmlns:xlink="http://www.w3.org/1999/xlink">
<g id="graph0" class="graph" transform="scale(1 1) rotate(0) translate(4 333)">
<title>snakemake_dag</title>
<polygon fill="white" stroke="transparent" points="-4,4 -4,-333 1769,-333 1769,4 -4,4"/>
<!-- 0 -->
<g id="node1" class="node">
<title>0</title>
<path fill="none" stroke="#88d856" stroke-width="2" d="M878.5,-36C878.5,-36 769.5,-36 769.5,-36 763.5,-36 757.5,-30 757.5,-24 757.5,-24 757.5,-12 757.5,-12 757.5,-6 763.5,0 769.5,0 769.5,0 878.5,0 878.5,0 884.5,0 890.5,-6 890.5,-12 890.5,-12 890.5,-24 890.5,-24 890.5,-30 884.5,-36 878.5,-36"/>
<text text-anchor="middle" x="824" y="-21" font-family="sans" font-size="10.00">paper_fig_from_number</text>
<text text-anchor="middle" x="824" y="-10" font-family="sans" font-size="10.00">n: 1</text>
</g>
<!-- 1 -->
<g id="node2" class="node">
<title>1</title>
<path fill="none" stroke="#56d8c9" stroke-width="2" stroke-dasharray="5,2" d="M888,-108C888,-108 760,-108 760,-108 754,-108 748,-102 748,-96 748,-96 748,-84 748,-84 748,-78 754,-72 760,-72 760,-72 888,-72 888,-72 894,-72 900,-78 900,-84 900,-84 900,-96 900,-96 900,-102 894,-108 888,-108"/>
<text text-anchor="middle" x="824" y="-87.5" font-family="sans" font-size="10.00">plot_variation_alpha_a0_Cb</text>
</g>
<!-- 1&#45;&gt;0 -->
<g id="edge1" class="edge">
<title>1&#45;&gt;0</title>
<path fill="none" stroke="grey" stroke-width="2" d="M824,-71.7C824,-63.98 824,-54.71 824,-46.11"/>
<polygon fill="grey" stroke="grey" stroke-width="2" points="827.5,-46.1 824,-36.1 820.5,-46.1 827.5,-46.1"/>
</g>
<!-- 2 -->
<g id="node3" class="node">
<title>2</title>
<path fill="none" stroke="#d8ac56" stroke-width="2" stroke-dasharray="5,2" d="M170,-252C170,-252 54,-252 54,-252 48,-252 42,-246 42,-240 42,-240 42,-228 42,-228 42,-222 48,-216 54,-216 54,-216 170,-216 170,-216 176,-216 182,-222 182,-228 182,-228 182,-240 182,-240 182,-246 176,-252 170,-252"/>
<text text-anchor="middle" x="112" y="-231.5" font-family="sans" font-size="10.00">process_with_xnemogcm</text>
</g>
<!-- 2&#45;&gt;1 -->
<g id="edge2" class="edge">
<title>2&#45;&gt;1</title>
<path fill="none" stroke="grey" stroke-width="2" d="M70.82,-216C55.79,-207.54 40.43,-195.71 32,-180 24.43,-165.9 21.07,-155.69 32,-144 79.4,-93.33 542.39,-89.58 737.74,-90.29"/>
<polygon fill="grey" stroke="grey" stroke-width="2" points="737.95,-93.79 747.97,-90.33 737.98,-86.79 737.95,-93.79"/>
</g>
<!-- 12 -->
<g id="node13" class="node">
<title>12</title>
<path fill="none" stroke="#bed856" stroke-width="2" stroke-dasharray="5,2" d="M170.5,-180C170.5,-180 53.5,-180 53.5,-180 47.5,-180 41.5,-174 41.5,-168 41.5,-168 41.5,-156 41.5,-156 41.5,-150 47.5,-144 53.5,-144 53.5,-144 170.5,-144 170.5,-144 176.5,-144 182.5,-150 182.5,-156 182.5,-156 182.5,-168 182.5,-168 182.5,-174 176.5,-180 170.5,-180"/>
<text text-anchor="middle" x="112" y="-159.5" font-family="sans" font-size="10.00">diag_alpha_function_of_T</text>
</g>
<!-- 2&#45;&gt;12 -->
<g id="edge22" class="edge">
<title>2&#45;&gt;12</title>
<path fill="none" stroke="grey" stroke-width="2" d="M112,-215.7C112,-207.98 112,-198.71 112,-190.11"/>
<polygon fill="grey" stroke="grey" stroke-width="2" points="115.5,-190.1 112,-180.1 108.5,-190.1 115.5,-190.1"/>
</g>
<!-- 17 -->
<g id="node18" class="node">
<title>17</title>
<path fill="none" stroke="#78d856" stroke-width="2" stroke-dasharray="5,2" d="M329,-180C329,-180 213,-180 213,-180 207,-180 201,-174 201,-168 201,-168 201,-156 201,-156 201,-150 207,-144 213,-144 213,-144 329,-144 329,-144 335,-144 341,-150 341,-156 341,-156 341,-168 341,-168 341,-174 335,-180 329,-180"/>
<text text-anchor="middle" x="271" y="-159.5" font-family="sans" font-size="10.00">process_exp_short_name</text>
</g>
<!-- 2&#45;&gt;17 -->
<g id="edge27" class="edge">
<title>2&#45;&gt;17</title>
<path fill="none" stroke="grey" stroke-width="2" d="M150.9,-215.88C172.63,-206.31 199.9,-194.3 222.96,-184.15"/>
<polygon fill="grey" stroke="grey" stroke-width="2" points="224.49,-187.3 232.23,-180.07 221.67,-180.89 224.49,-187.3"/>
</g>
<!-- 3 -->
<g id="node4" class="node">
<title>3</title>
<path fill="none" stroke="#d8b456" stroke-width="2" stroke-dasharray="5,2" d="M212,-329C212,-329 12,-329 12,-329 6,-329 0,-323 0,-317 0,-317 0,-300 0,-300 0,-294 6,-288 12,-288 12,-288 212,-288 212,-288 218,-288 224,-294 224,-300 224,-300 224,-317 224,-317 224,-323 218,-329 212,-329"/>
<text text-anchor="middle" x="112" y="-317" font-family="sans" font-size="10.00">process_delta_t</text>
<text text-anchor="middle" x="112" y="-306" font-family="sans" font-size="10.00">config: EXP_rn_lambda1_0.06_rn_a0_0.165</text>
<text text-anchor="middle" x="112" y="-295" font-family="sans" font-size="10.00">exp: EXP_main</text>
</g>
<!-- 3&#45;&gt;2 -->
<g id="edge17" class="edge">
<title>3&#45;&gt;2</title>
<path fill="none" stroke="grey" stroke-width="2" d="M112,-287.69C112,-279.91 112,-270.84 112,-262.45"/>
<polygon fill="grey" stroke="grey" stroke-width="2" points="115.5,-262.32 112,-252.32 108.5,-262.32 115.5,-262.32"/>
</g>
<!-- 4 -->
<g id="node5" class="node">
<title>4</title>
<path fill="none" stroke="#d8ac56" stroke-width="2" stroke-dasharray="5,2" d="M526,-252C526,-252 410,-252 410,-252 404,-252 398,-246 398,-240 398,-240 398,-228 398,-228 398,-222 404,-216 410,-216 410,-216 526,-216 526,-216 532,-216 538,-222 538,-228 538,-228 538,-240 538,-240 538,-246 532,-252 526,-252"/>
<text text-anchor="middle" x="468" y="-231.5" font-family="sans" font-size="10.00">process_with_xnemogcm</text>
</g>
<!-- 4&#45;&gt;1 -->
<g id="edge3" class="edge">
<title>4&#45;&gt;1</title>
<path fill="none" stroke="grey" stroke-width="2" d="M426.82,-216C411.79,-207.54 396.43,-195.71 388,-180 380.43,-165.9 377.39,-155.98 388,-144 410.75,-118.31 617.07,-102.55 737.56,-95.45"/>
<polygon fill="grey" stroke="grey" stroke-width="2" points="738.09,-98.92 747.87,-94.85 737.68,-91.94 738.09,-98.92"/>
</g>
<!-- 13 -->
<g id="node14" class="node">
<title>13</title>
<path fill="none" stroke="#bed856" stroke-width="2" stroke-dasharray="5,2" d="M526.5,-180C526.5,-180 409.5,-180 409.5,-180 403.5,-180 397.5,-174 397.5,-168 397.5,-168 397.5,-156 397.5,-156 397.5,-150 403.5,-144 409.5,-144 409.5,-144 526.5,-144 526.5,-144 532.5,-144 538.5,-150 538.5,-156 538.5,-156 538.5,-168 538.5,-168 538.5,-174 532.5,-180 526.5,-180"/>
<text text-anchor="middle" x="468" y="-159.5" font-family="sans" font-size="10.00">diag_alpha_function_of_T</text>
</g>
<!-- 4&#45;&gt;13 -->
<g id="edge23" class="edge">
<title>4&#45;&gt;13</title>
<path fill="none" stroke="grey" stroke-width="2" d="M468,-215.7C468,-207.98 468,-198.71 468,-190.11"/>
<polygon fill="grey" stroke="grey" stroke-width="2" points="471.5,-190.1 468,-180.1 464.5,-190.1 471.5,-190.1"/>
</g>
<!-- 18 -->
<g id="node19" class="node">
<title>18</title>
<path fill="none" stroke="#78d856" stroke-width="2" stroke-dasharray="5,2" d="M685,-180C685,-180 569,-180 569,-180 563,-180 557,-174 557,-168 557,-168 557,-156 557,-156 557,-150 563,-144 569,-144 569,-144 685,-144 685,-144 691,-144 697,-150 697,-156 697,-156 697,-168 697,-168 697,-174 691,-180 685,-180"/>
<text text-anchor="middle" x="627" y="-159.5" font-family="sans" font-size="10.00">process_exp_short_name</text>
</g>
<!-- 4&#45;&gt;18 -->
<g id="edge28" class="edge">
<title>4&#45;&gt;18</title>
<path fill="none" stroke="grey" stroke-width="2" d="M506.9,-215.88C528.63,-206.31 555.9,-194.3 578.96,-184.15"/>
<polygon fill="grey" stroke="grey" stroke-width="2" points="580.49,-187.3 588.23,-180.07 577.67,-180.89 580.49,-187.3"/>
</g>
<!-- 5 -->
<g id="node6" class="node">
<title>5</title>
<path fill="none" stroke="#d8b456" stroke-width="2" stroke-dasharray="5,2" d="M568,-329C568,-329 368,-329 368,-329 362,-329 356,-323 356,-317 356,-317 356,-300 356,-300 356,-294 362,-288 368,-288 368,-288 568,-288 568,-288 574,-288 580,-294 580,-300 580,-300 580,-317 580,-317 580,-323 574,-329 568,-329"/>
<text text-anchor="middle" x="468" y="-317" font-family="sans" font-size="10.00">process_delta_t</text>
<text text-anchor="middle" x="468" y="-306" font-family="sans" font-size="10.00">config: EXP_rn_lambda1_0.08_rn_a0_0.165</text>
<text text-anchor="middle" x="468" y="-295" font-family="sans" font-size="10.00">exp: EXP_main</text>
</g>
<!-- 5&#45;&gt;4 -->
<g id="edge18" class="edge">
<title>5&#45;&gt;4</title>
<path fill="none" stroke="grey" stroke-width="2" d="M468,-287.69C468,-279.91 468,-270.84 468,-262.45"/>
<polygon fill="grey" stroke="grey" stroke-width="2" points="471.5,-262.32 468,-252.32 464.5,-262.32 471.5,-262.32"/>
</g>
<!-- 6 -->
<g id="node7" class="node">
<title>6</title>
<path fill="none" stroke="#d8ac56" stroke-width="2" stroke-dasharray="5,2" d="M882,-252C882,-252 766,-252 766,-252 760,-252 754,-246 754,-240 754,-240 754,-228 754,-228 754,-222 760,-216 766,-216 766,-216 882,-216 882,-216 888,-216 894,-222 894,-228 894,-228 894,-240 894,-240 894,-246 888,-252 882,-252"/>
<text text-anchor="middle" x="824" y="-231.5" font-family="sans" font-size="10.00">process_with_xnemogcm</text>
</g>
<!-- 6&#45;&gt;1 -->
<g id="edge4" class="edge">
<title>6&#45;&gt;1</title>
<path fill="none" stroke="grey" stroke-width="2" d="M782.82,-216C767.79,-207.54 752.43,-195.71 744,-180 736.43,-165.9 736.43,-158.1 744,-144 750.79,-131.36 762.06,-121.23 774.03,-113.35"/>
<polygon fill="grey" stroke="grey" stroke-width="2" points="776.09,-116.19 782.82,-108 772.45,-110.21 776.09,-116.19"/>
</g>
<!-- 14 -->
<g id="node15" class="node">
<title>14</title>
<path fill="none" stroke="#bed856" stroke-width="2" stroke-dasharray="5,2" d="M882.5,-180C882.5,-180 765.5,-180 765.5,-180 759.5,-180 753.5,-174 753.5,-168 753.5,-168 753.5,-156 753.5,-156 753.5,-150 759.5,-144 765.5,-144 765.5,-144 882.5,-144 882.5,-144 888.5,-144 894.5,-150 894.5,-156 894.5,-156 894.5,-168 894.5,-168 894.5,-174 888.5,-180 882.5,-180"/>
<text text-anchor="middle" x="824" y="-159.5" font-family="sans" font-size="10.00">diag_alpha_function_of_T</text>
</g>
<!-- 6&#45;&gt;14 -->
<g id="edge24" class="edge">
<title>6&#45;&gt;14</title>
<path fill="none" stroke="grey" stroke-width="2" d="M824,-215.7C824,-207.98 824,-198.71 824,-190.11"/>
<polygon fill="grey" stroke="grey" stroke-width="2" points="827.5,-190.1 824,-180.1 820.5,-190.1 827.5,-190.1"/>
</g>
<!-- 19 -->
<g id="node20" class="node">
<title>19</title>
<path fill="none" stroke="#78d856" stroke-width="2" stroke-dasharray="5,2" d="M1041,-180C1041,-180 925,-180 925,-180 919,-180 913,-174 913,-168 913,-168 913,-156 913,-156 913,-150 919,-144 925,-144 925,-144 1041,-144 1041,-144 1047,-144 1053,-150 1053,-156 1053,-156 1053,-168 1053,-168 1053,-174 1047,-180 1041,-180"/>
<text text-anchor="middle" x="983" y="-159.5" font-family="sans" font-size="10.00">process_exp_short_name</text>
</g>
<!-- 6&#45;&gt;19 -->
<g id="edge29" class="edge">
<title>6&#45;&gt;19</title>
<path fill="none" stroke="grey" stroke-width="2" d="M862.9,-215.88C884.63,-206.31 911.9,-194.3 934.96,-184.15"/>
<polygon fill="grey" stroke="grey" stroke-width="2" points="936.49,-187.3 944.23,-180.07 933.67,-180.89 936.49,-187.3"/>
</g>
<!-- 7 -->
<g id="node8" class="node">
<title>7</title>
<path fill="none" stroke="#d8b456" stroke-width="2" stroke-dasharray="5,2" d="M924,-329C924,-329 724,-329 724,-329 718,-329 712,-323 712,-317 712,-317 712,-300 712,-300 712,-294 718,-288 724,-288 724,-288 924,-288 924,-288 930,-288 936,-294 936,-300 936,-300 936,-317 936,-317 936,-323 930,-329 924,-329"/>
<text text-anchor="middle" x="824" y="-317" font-family="sans" font-size="10.00">process_delta_t</text>
<text text-anchor="middle" x="824" y="-306" font-family="sans" font-size="10.00">config: EXP_rn_lambda1_0.06_rn_a0_0.145</text>
<text text-anchor="middle" x="824" y="-295" font-family="sans" font-size="10.00">exp: EXP_main</text>
</g>
<!-- 7&#45;&gt;6 -->
<g id="edge19" class="edge">
<title>7&#45;&gt;6</title>
<path fill="none" stroke="grey" stroke-width="2" d="M824,-287.69C824,-279.91 824,-270.84 824,-262.45"/>
<polygon fill="grey" stroke="grey" stroke-width="2" points="827.5,-262.32 824,-252.32 820.5,-262.32 827.5,-262.32"/>
</g>
<!-- 8 -->
<g id="node9" class="node">
<title>8</title>
<path fill="none" stroke="#d8ac56" stroke-width="2" stroke-dasharray="5,2" d="M1238,-252C1238,-252 1122,-252 1122,-252 1116,-252 1110,-246 1110,-240 1110,-240 1110,-228 1110,-228 1110,-222 1116,-216 1122,-216 1122,-216 1238,-216 1238,-216 1244,-216 1250,-222 1250,-228 1250,-228 1250,-240 1250,-240 1250,-246 1244,-252 1238,-252"/>
<text text-anchor="middle" x="1180" y="-231.5" font-family="sans" font-size="10.00">process_with_xnemogcm</text>
</g>
<!-- 8&#45;&gt;1 -->
<g id="edge5" class="edge">
<title>8&#45;&gt;1</title>
<path fill="none" stroke="grey" stroke-width="2" d="M1152.21,-215.85C1136.73,-205.93 1117.33,-192.89 1101,-180 1082.48,-165.39 1082.9,-154.94 1062,-144 1015.09,-119.44 957.21,-106.23 910.27,-99.14"/>
<polygon fill="grey" stroke="grey" stroke-width="2" points="910.52,-95.64 900.13,-97.68 909.52,-102.57 910.52,-95.64"/>
</g>
<!-- 15 -->
<g id="node16" class="node">
<title>15</title>
<path fill="none" stroke="#bed856" stroke-width="2" stroke-dasharray="5,2" d="M1238.5,-180C1238.5,-180 1121.5,-180 1121.5,-180 1115.5,-180 1109.5,-174 1109.5,-168 1109.5,-168 1109.5,-156 1109.5,-156 1109.5,-150 1115.5,-144 1121.5,-144 1121.5,-144 1238.5,-144 1238.5,-144 1244.5,-144 1250.5,-150 1250.5,-156 1250.5,-156 1250.5,-168 1250.5,-168 1250.5,-174 1244.5,-180 1238.5,-180"/>
<text text-anchor="middle" x="1180" y="-159.5" font-family="sans" font-size="10.00">diag_alpha_function_of_T</text>
</g>
<!-- 8&#45;&gt;15 -->
<g id="edge25" class="edge">
<title>8&#45;&gt;15</title>
<path fill="none" stroke="grey" stroke-width="2" d="M1180,-215.7C1180,-207.98 1180,-198.71 1180,-190.11"/>
<polygon fill="grey" stroke="grey" stroke-width="2" points="1183.5,-190.1 1180,-180.1 1176.5,-190.1 1183.5,-190.1"/>
</g>
<!-- 20 -->
<g id="node21" class="node">
<title>20</title>
<path fill="none" stroke="#78d856" stroke-width="2" stroke-dasharray="5,2" d="M1397,-180C1397,-180 1281,-180 1281,-180 1275,-180 1269,-174 1269,-168 1269,-168 1269,-156 1269,-156 1269,-150 1275,-144 1281,-144 1281,-144 1397,-144 1397,-144 1403,-144 1409,-150 1409,-156 1409,-156 1409,-168 1409,-168 1409,-174 1403,-180 1397,-180"/>
<text text-anchor="middle" x="1339" y="-159.5" font-family="sans" font-size="10.00">process_exp_short_name</text>
</g>
<!-- 8&#45;&gt;20 -->
<g id="edge30" class="edge">
<title>8&#45;&gt;20</title>
<path fill="none" stroke="grey" stroke-width="2" d="M1218.9,-215.88C1240.63,-206.31 1267.9,-194.3 1290.96,-184.15"/>
<polygon fill="grey" stroke="grey" stroke-width="2" points="1292.49,-187.3 1300.23,-180.07 1289.67,-180.89 1292.49,-187.3"/>
</g>
<!-- 9 -->
<g id="node10" class="node">
<title>9</title>
<path fill="none" stroke="#d8b456" stroke-width="2" stroke-dasharray="5,2" d="M1280,-329C1280,-329 1080,-329 1080,-329 1074,-329 1068,-323 1068,-317 1068,-317 1068,-300 1068,-300 1068,-294 1074,-288 1080,-288 1080,-288 1280,-288 1280,-288 1286,-288 1292,-294 1292,-300 1292,-300 1292,-317 1292,-317 1292,-323 1286,-329 1280,-329"/>
<text text-anchor="middle" x="1180" y="-317" font-family="sans" font-size="10.00">process_delta_t</text>
<text text-anchor="middle" x="1180" y="-306" font-family="sans" font-size="10.00">config: EXP_rn_lambda1_0.06_rn_a0_0.185</text>
<text text-anchor="middle" x="1180" y="-295" font-family="sans" font-size="10.00">exp: EXP_main</text>
</g>
<!-- 9&#45;&gt;8 -->
<g id="edge20" class="edge">
<title>9&#45;&gt;8</title>
<path fill="none" stroke="grey" stroke-width="2" d="M1180,-287.69C1180,-279.91 1180,-270.84 1180,-262.45"/>
<polygon fill="grey" stroke="grey" stroke-width="2" points="1183.5,-262.32 1180,-252.32 1176.5,-262.32 1183.5,-262.32"/>
</g>
<!-- 10 -->
<g id="node11" class="node">
<title>10</title>
<path fill="none" stroke="#d8ac56" stroke-width="2" stroke-dasharray="5,2" d="M1594,-252C1594,-252 1478,-252 1478,-252 1472,-252 1466,-246 1466,-240 1466,-240 1466,-228 1466,-228 1466,-222 1472,-216 1478,-216 1478,-216 1594,-216 1594,-216 1600,-216 1606,-222 1606,-228 1606,-228 1606,-240 1606,-240 1606,-246 1600,-252 1594,-252"/>
<text text-anchor="middle" x="1536" y="-231.5" font-family="sans" font-size="10.00">process_with_xnemogcm</text>
</g>
<!-- 10&#45;&gt;1 -->
<g id="edge6" class="edge">
<title>10&#45;&gt;1</title>
<path fill="none" stroke="grey" stroke-width="2" d="M1508.21,-215.85C1492.73,-205.93 1473.33,-192.89 1457,-180 1438.48,-165.39 1439.57,-153.56 1418,-144 1329.32,-104.69 1052.23,-94.53 910.05,-91.91"/>
<polygon fill="grey" stroke="grey" stroke-width="2" points="910.11,-88.41 900.05,-91.73 909.98,-95.41 910.11,-88.41"/>
</g>
<!-- 16 -->
<g id="node17" class="node">
<title>16</title>
<path fill="none" stroke="#bed856" stroke-width="2" stroke-dasharray="5,2" d="M1594.5,-180C1594.5,-180 1477.5,-180 1477.5,-180 1471.5,-180 1465.5,-174 1465.5,-168 1465.5,-168 1465.5,-156 1465.5,-156 1465.5,-150 1471.5,-144 1477.5,-144 1477.5,-144 1594.5,-144 1594.5,-144 1600.5,-144 1606.5,-150 1606.5,-156 1606.5,-156 1606.5,-168 1606.5,-168 1606.5,-174 1600.5,-180 1594.5,-180"/>
<text text-anchor="middle" x="1536" y="-159.5" font-family="sans" font-size="10.00">diag_alpha_function_of_T</text>
</g>
<!-- 10&#45;&gt;16 -->
<g id="edge26" class="edge">
<title>10&#45;&gt;16</title>
<path fill="none" stroke="grey" stroke-width="2" d="M1536,-215.7C1536,-207.98 1536,-198.71 1536,-190.11"/>
<polygon fill="grey" stroke="grey" stroke-width="2" points="1539.5,-190.1 1536,-180.1 1532.5,-190.1 1539.5,-190.1"/>
</g>
<!-- 21 -->
<g id="node22" class="node">
<title>21</title>
<path fill="none" stroke="#78d856" stroke-width="2" stroke-dasharray="5,2" d="M1753,-180C1753,-180 1637,-180 1637,-180 1631,-180 1625,-174 1625,-168 1625,-168 1625,-156 1625,-156 1625,-150 1631,-144 1637,-144 1637,-144 1753,-144 1753,-144 1759,-144 1765,-150 1765,-156 1765,-156 1765,-168 1765,-168 1765,-174 1759,-180 1753,-180"/>
<text text-anchor="middle" x="1695" y="-159.5" font-family="sans" font-size="10.00">process_exp_short_name</text>
</g>
<!-- 10&#45;&gt;21 -->
<g id="edge31" class="edge">
<title>10&#45;&gt;21</title>
<path fill="none" stroke="grey" stroke-width="2" d="M1574.9,-215.88C1596.63,-206.31 1623.9,-194.3 1646.96,-184.15"/>
<polygon fill="grey" stroke="grey" stroke-width="2" points="1648.49,-187.3 1656.23,-180.07 1645.67,-180.89 1648.49,-187.3"/>
</g>
<!-- 11 -->
<g id="node12" class="node">
<title>11</title>
<path fill="none" stroke="#d8b456" stroke-width="2" stroke-dasharray="5,2" d="M1636,-329C1636,-329 1436,-329 1436,-329 1430,-329 1424,-323 1424,-317 1424,-317 1424,-300 1424,-300 1424,-294 1430,-288 1436,-288 1436,-288 1636,-288 1636,-288 1642,-288 1648,-294 1648,-300 1648,-300 1648,-317 1648,-317 1648,-323 1642,-329 1636,-329"/>
<text text-anchor="middle" x="1536" y="-317" font-family="sans" font-size="10.00">process_delta_t</text>
<text text-anchor="middle" x="1536" y="-306" font-family="sans" font-size="10.00">config: EXP_rn_lambda1_0.04_rn_a0_0.165</text>
<text text-anchor="middle" x="1536" y="-295" font-family="sans" font-size="10.00">exp: EXP_main</text>
</g>
<!-- 11&#45;&gt;10 -->
<g id="edge21" class="edge">
<title>11&#45;&gt;10</title>
<path fill="none" stroke="grey" stroke-width="2" d="M1536,-287.69C1536,-279.91 1536,-270.84 1536,-262.45"/>
<polygon fill="grey" stroke="grey" stroke-width="2" points="1539.5,-262.32 1536,-252.32 1532.5,-262.32 1539.5,-262.32"/>
</g>
<!-- 12&#45;&gt;1 -->
<g id="edge7" class="edge">
<title>12&#45;&gt;1</title>
<path fill="none" stroke="grey" stroke-width="2" d="M182.58,-145.5C185.76,-144.96 188.91,-144.46 192,-144 385.89,-115.39 615.69,-100.94 737.73,-94.79"/>
<polygon fill="grey" stroke="grey" stroke-width="2" points="737.95,-98.29 747.76,-94.29 737.6,-91.3 737.95,-98.29"/>
</g>
<!-- 13&#45;&gt;1 -->
<g id="edge8" class="edge">
<title>13&#45;&gt;1</title>
<path fill="none" stroke="grey" stroke-width="2" d="M538.65,-145.91C541.81,-145.26 544.94,-144.62 548,-144 611.48,-131.16 683.33,-117.39 737.81,-107.1"/>
<polygon fill="grey" stroke="grey" stroke-width="2" points="738.6,-110.51 747.77,-105.22 737.3,-103.63 738.6,-110.51"/>
</g>
<!-- 14&#45;&gt;1 -->
<g id="edge9" class="edge">
<title>14&#45;&gt;1</title>
<path fill="none" stroke="grey" stroke-width="2" d="M824,-143.7C824,-135.98 824,-126.71 824,-118.11"/>
<polygon fill="grey" stroke="grey" stroke-width="2" points="827.5,-118.1 824,-108.1 820.5,-118.1 827.5,-118.1"/>
</g>
<!-- 15&#45;&gt;1 -->
<g id="edge10" class="edge">
<title>15&#45;&gt;1</title>
<path fill="none" stroke="grey" stroke-width="2" d="M1109.04,-146.79C1104.29,-145.84 1099.58,-144.91 1095,-144 1033.26,-131.79 963.57,-118.16 910.32,-107.78"/>
<polygon fill="grey" stroke="grey" stroke-width="2" points="910.72,-104.3 900.24,-105.82 909.38,-111.17 910.72,-104.3"/>
</g>
<!-- 16&#45;&gt;1 -->
<g id="edge11" class="edge">
<title>16&#45;&gt;1</title>
<path fill="none" stroke="grey" stroke-width="2" d="M1465.14,-146.21C1460.37,-145.4 1455.62,-144.65 1451,-144 1258.93,-116.76 1031.64,-101.81 910.4,-95.21"/>
<polygon fill="grey" stroke="grey" stroke-width="2" points="910.25,-91.69 900.08,-94.65 909.87,-98.68 910.25,-91.69"/>
</g>
<!-- 17&#45;&gt;1 -->
<g id="edge12" class="edge">
<title>17&#45;&gt;1</title>
<path fill="none" stroke="grey" stroke-width="2" d="M341.04,-146.35C345.76,-145.51 350.44,-144.72 355,-144 487.96,-123.07 643.39,-107.18 737.71,-98.48"/>
<polygon fill="grey" stroke="grey" stroke-width="2" points="738.14,-101.95 747.77,-97.56 737.5,-94.98 738.14,-101.95"/>
</g>
<!-- 18&#45;&gt;1 -->
<g id="edge13" class="edge">
<title>18&#45;&gt;1</title>
<path fill="none" stroke="grey" stroke-width="2" d="M674.94,-143.97C702.47,-134.19 737.22,-121.84 766.24,-111.52"/>
<polygon fill="grey" stroke="grey" stroke-width="2" points="767.59,-114.76 775.85,-108.11 765.25,-108.16 767.59,-114.76"/>
</g>
<!-- 19&#45;&gt;1 -->
<g id="edge14" class="edge">
<title>19&#45;&gt;1</title>
<path fill="none" stroke="grey" stroke-width="2" d="M944.1,-143.88C922.37,-134.31 895.1,-122.3 872.04,-112.15"/>
<polygon fill="grey" stroke="grey" stroke-width="2" points="873.33,-108.89 862.77,-108.07 870.51,-115.3 873.33,-108.89"/>
</g>
<!-- 20&#45;&gt;1 -->
<g id="edge15" class="edge">
<title>20&#45;&gt;1</title>
<path fill="none" stroke="grey" stroke-width="2" d="M1268.85,-145.56C1265.87,-145.01 1262.91,-144.49 1260,-144 1139.26,-123.71 998.46,-108.03 910.27,-99.15"/>
<polygon fill="grey" stroke="grey" stroke-width="2" points="910.61,-95.66 900.31,-98.15 909.91,-102.63 910.61,-95.66"/>
</g>
<!-- 21&#45;&gt;1 -->
<g id="edge16" class="edge">
<title>21&#45;&gt;1</title>
<path fill="none" stroke="grey" stroke-width="2" d="M1624.88,-145.36C1621.89,-144.87 1618.92,-144.41 1616,-144 1360.95,-108.22 1056.19,-96.43 910.23,-92.68"/>
<polygon fill="grey" stroke="grey" stroke-width="2" points="910.09,-89.17 900,-92.42 909.91,-96.17 910.09,-89.17"/>
</g>
</g>
</svg>
