<?xml version="1.0" encoding="UTF-8" standalone="no"?>
<!DOCTYPE svg PUBLIC "-//W3C//DTD SVG 1.1//EN"
 "http://www.w3.org/Graphics/SVG/1.1/DTD/svg11.dtd">
<!-- Generated by graphviz version 2.43.0 (0)
 -->
<!-- Title: snakemake_dag Pages: 1 -->
<svg width="232pt" height="337pt"
 viewBox="0.00 0.00 232.00 337.00" xmlns="http://www.w3.org/2000/svg" xmlns:xlink="http://www.w3.org/1999/xlink">
<g id="graph0" class="graph" transform="scale(1 1) rotate(0) translate(4 333)">
<title>snakemake_dag</title>
<polygon fill="white" stroke="transparent" points="-4,4 -4,-333 228,-333 228,4 -4,4"/>
<!-- 0 -->
<g id="node1" class="node">
<title>0</title>
<path fill="none" stroke="#97d856" stroke-width="2" d="M166.5,-36C166.5,-36 57.5,-36 57.5,-36 51.5,-36 45.5,-30 45.5,-24 45.5,-24 45.5,-12 45.5,-12 45.5,-6 51.5,0 57.5,0 57.5,0 166.5,0 166.5,0 172.5,0 178.5,-6 178.5,-12 178.5,-12 178.5,-24 178.5,-24 178.5,-30 172.5,-36 166.5,-36"/>
<text text-anchor="middle" x="112" y="-21" font-family="sans" font-size="10.00">paper_fig_from_number</text>
<text text-anchor="middle" x="112" y="-10" font-family="sans" font-size="10.00">n: 2</text>
</g>
<!-- 1 -->
<g id="node2" class="node">
<title>1</title>
<path fill="none" stroke="#56c1d8" stroke-width="2" stroke-dasharray="5,2" d="M151.5,-108C151.5,-108 72.5,-108 72.5,-108 66.5,-108 60.5,-102 60.5,-96 60.5,-96 60.5,-84 60.5,-84 60.5,-78 66.5,-72 72.5,-72 72.5,-72 151.5,-72 151.5,-72 157.5,-72 163.5,-78 163.5,-84 163.5,-84 163.5,-96 163.5,-96 163.5,-102 157.5,-108 151.5,-108"/>
<text text-anchor="middle" x="112" y="-93" font-family="sans" font-size="10.00">plot_config_paper</text>
<text text-anchor="middle" x="112" y="-82" font-family="sans" font-size="10.00">fig: bathy_forcing</text>
</g>
<!-- 1&#45;&gt;0 -->
<g id="edge1" class="edge">
<title>1&#45;&gt;0</title>
<path fill="none" stroke="grey" stroke-width="2" d="M112,-71.7C112,-63.98 112,-54.71 112,-46.11"/>
<polygon fill="grey" stroke="grey" stroke-width="2" points="115.5,-46.1 112,-36.1 108.5,-46.1 115.5,-46.1"/>
</g>
<!-- 2 -->
<g id="node3" class="node">
<title>2</title>
<path fill="none" stroke="#56b1d8" stroke-width="2" stroke-dasharray="5,2" d="M170,-252C170,-252 54,-252 54,-252 48,-252 42,-246 42,-240 42,-240 42,-228 42,-228 42,-222 48,-216 54,-216 54,-216 170,-216 170,-216 176,-216 182,-222 182,-228 182,-228 182,-240 182,-240 182,-246 176,-252 170,-252"/>
<text text-anchor="middle" x="112" y="-231.5" font-family="sans" font-size="10.00">process_with_xnemogcm</text>
</g>
<!-- 2&#45;&gt;1 -->
<g id="edge2" class="edge">
<title>2&#45;&gt;1</title>
<path fill="none" stroke="grey" stroke-width="2" d="M102.87,-215.88C97.99,-205.76 92.49,-192.51 90,-180 86.87,-164.31 86.87,-159.69 90,-144 91.79,-135.01 95.14,-125.64 98.69,-117.32"/>
<polygon fill="grey" stroke="grey" stroke-width="2" points="101.92,-118.67 102.87,-108.12 95.54,-115.77 101.92,-118.67"/>
</g>
<!-- 4 -->
<g id="node5" class="node">
<title>4</title>
<path fill="none" stroke="#56d892" stroke-width="2" stroke-dasharray="5,2" d="M195,-180C195,-180 111,-180 111,-180 105,-180 99,-174 99,-168 99,-168 99,-156 99,-156 99,-150 105,-144 111,-144 111,-144 195,-144 195,-144 201,-144 207,-150 207,-156 207,-156 207,-168 207,-168 207,-174 201,-180 195,-180"/>
<text text-anchor="middle" x="153" y="-159.5" font-family="sans" font-size="10.00">diag_forcing_fields</text>
</g>
<!-- 2&#45;&gt;4 -->
<g id="edge5" class="edge">
<title>2&#45;&gt;4</title>
<path fill="none" stroke="grey" stroke-width="2" d="M122.13,-215.7C126.85,-207.64 132.56,-197.89 137.78,-188.98"/>
<polygon fill="grey" stroke="grey" stroke-width="2" points="140.95,-190.5 142.98,-180.1 134.91,-186.96 140.95,-190.5"/>
</g>
<!-- 3 -->
<g id="node4" class="node">
<title>3</title>
<path fill="none" stroke="#56d8a2" stroke-width="2" stroke-dasharray="5,2" d="M212,-329C212,-329 12,-329 12,-329 6,-329 0,-323 0,-317 0,-317 0,-300 0,-300 0,-294 6,-288 12,-288 12,-288 212,-288 212,-288 218,-288 224,-294 224,-300 224,-300 224,-317 224,-317 224,-323 218,-329 212,-329"/>
<text text-anchor="middle" x="112" y="-317" font-family="sans" font-size="10.00">process_delta_t</text>
<text text-anchor="middle" x="112" y="-306" font-family="sans" font-size="10.00">config: EXP_rn_lambda1_0.06_rn_a0_0.165</text>
<text text-anchor="middle" x="112" y="-295" font-family="sans" font-size="10.00">exp: EXP_main</text>
</g>
<!-- 3&#45;&gt;2 -->
<g id="edge4" class="edge">
<title>3&#45;&gt;2</title>
<path fill="none" stroke="grey" stroke-width="2" d="M112,-287.69C112,-279.91 112,-270.84 112,-262.45"/>
<polygon fill="grey" stroke="grey" stroke-width="2" points="115.5,-262.32 112,-252.32 108.5,-262.32 115.5,-262.32"/>
</g>
<!-- 4&#45;&gt;1 -->
<g id="edge3" class="edge">
<title>4&#45;&gt;1</title>
<path fill="none" stroke="grey" stroke-width="2" d="M142.87,-143.7C138.15,-135.64 132.44,-125.89 127.22,-116.98"/>
<polygon fill="grey" stroke="grey" stroke-width="2" points="130.09,-114.96 122.02,-108.1 124.05,-118.5 130.09,-114.96"/>
</g>
</g>
</svg>
